<mxfile modified="2023-10-18T16:39:31.774Z" host="app.diagrams.net" agent="Mozilla/5.0 (Macintosh; Intel Mac OS X 10_15_7) AppleWebKit/537.36 (KHTML, like Gecko) Chrome/118.0.0.0 Safari/537.36" etag="TIa61hDQkmtPJt_uLlh9" version="22.0.4" type="device">
  <diagram id="d1ab7348-05c3-a1e3-ca4d-12c340fd6b49" name="Page-1">
    <mxGraphModel dx="1434" dy="790" grid="1" gridSize="10" guides="1" tooltips="1" connect="1" arrows="1" fold="1" page="1" pageScale="1" pageWidth="1169" pageHeight="827" background="none" math="0" shadow="0">
      <root>
        <mxCell id="0" />
        <mxCell id="1" parent="0" />
        <mxCell id="2" value="&lt;b&gt;Google &lt;/b&gt;Cloud Platform" style="fillColor=#F6F6F6;strokeColor=none;shadow=0;gradientColor=none;fontSize=14;align=left;spacing=10;fontColor=#717171;9E9E9E;verticalAlign=top;spacingTop=-4;fontStyle=0;spacingLeft=40;html=1;" parent="1" vertex="1">
          <mxGeometry x="330" y="80" width="700" height="570" as="geometry" />
        </mxCell>
        <mxCell id="3" value="" style="shape=mxgraph.gcp2.google_cloud_platform;fillColor=#F6F6F6;strokeColor=none;shadow=0;gradientColor=none;" parent="2" vertex="1">
          <mxGeometry width="23" height="20" relative="1" as="geometry">
            <mxPoint x="20" y="10" as="offset" />
          </mxGeometry>
        </mxCell>
        <mxCell id="VxR14Vq80_6-qc9pXVwi-179" value="" style="shape=mxgraph.gcp2.doubleRect;strokeColor=#dddddd;shadow=1;strokeWidth=1;rounded=1;absoluteArcSize=1;arcSize=2;" parent="2" vertex="1">
          <mxGeometry x="33.47826086956522" y="423.73838709677415" width="187.47826086956525" height="62.516129032258064" as="geometry" />
        </mxCell>
        <mxCell id="VxR14Vq80_6-qc9pXVwi-180" value="&lt;font color=&quot;#000000&quot;&gt;Bot Web Hook&lt;/font&gt;&lt;br&gt;Cloud Functions" style="editableCssRules=.*;html=1;fontColor=#999999;shape=image;verticalLabelPosition=middle;labelBackgroundColor=#ffffff;verticalAlign=middle;labelPosition=right;align=left;spacingLeft=20;part=1;points=[];imageAspect=0;image=data:image/svg+xml,PHN2ZyB4bWxucz0iaHR0cDovL3d3dy53My5vcmcvMjAwMC9zdmciIHhtbG5zOnY9Imh0dHBzOi8vdmVjdGEuaW8vbmFubyIgd2lkdGg9IjIwIiBoZWlnaHQ9IjE5Ljk4OTk5OTc3MTExODE2NCIgdmlld0JveD0iMCAwIDIwIDE5Ljk4OTk5OTc3MTExODE2NCI+JiN4YTsJPHN0eWxlIHR5cGU9InRleHQvY3NzIj4mI3hhOwkuc3Qwe2ZpbGw6IzQyODVmNDt9JiN4YTsJLnN0MXtmaWxsOiM2NjlkZjY7fSYjeGE7CS5zdDJ7ZmlsbDojYWVjYmZhO30mI3hhOwk8L3N0eWxlPiYjeGE7CTxwYXRoIGNsYXNzPSJzdDEiIGQ9Ik0zIDMuOTlMMCA2LjQydjcuMTNsMyAyLjQ0eiIvPiYjeGE7CTxwYXRoIGNsYXNzPSJzdDAiIGQ9Ik0zIDMuOTlsLTMgNCAzLTJ6bS0zIDhsMyA0di0yeiIvPiYjeGE7CTxwYXRoIGNsYXNzPSJzdDIiIGQ9Ik0wIDE1Ljk5bDQgNCAyLTItNi02em0uMDEtOEw1Ljk5IDJsLTItMkwwIDMuOTl6Ii8+JiN4YTsJPHBhdGggY2xhc3M9InN0MSIgZD0iTTE3IDE2bDMtMi40MlY2LjQ0TDE3IDR6Ii8+JiN4YTsJPHBhdGggY2xhc3M9InN0MCIgZD0iTTE3IDE2bDMtNC0zIDJ6bTMtOGwtMy00djJ6Ii8+JiN4YTsJPGcgY2xhc3M9InN0MiI+JiN4YTsJCTxwYXRoIGQ9Ik0yMCA0bC00LTQtMiAyIDYgNnptLS4wMSA4bC01Ljk4IDUuOTkgMiAyTDIwIDE2eiIvPiYjeGE7CQk8Y2lyY2xlIGN4PSI2IiBjeT0iOS45OSIgcj0iMSIvPiYjeGE7CQk8Y2lyY2xlIGN4PSIxMCIgY3k9IjkuOTkiIHI9IjEiLz4mI3hhOwkJPGNpcmNsZSBjeD0iMTMuOTkiIGN5PSI5Ljk5IiByPSIxIi8+JiN4YTsJPC9nPiYjeGE7PC9zdmc+;" parent="VxR14Vq80_6-qc9pXVwi-179" vertex="1">
          <mxGeometry width="30" height="24" relative="1" as="geometry">
            <mxPoint x="15" y="18" as="offset" />
          </mxGeometry>
        </mxCell>
        <mxCell id="VxR14Vq80_6-qc9pXVwi-182" value="" style="shape=mxgraph.gcp2.doubleRect;strokeColor=#dddddd;shadow=1;strokeWidth=1;rounded=1;absoluteArcSize=1;arcSize=2;" parent="2" vertex="1">
          <mxGeometry x="294.2028985507247" y="423.73838709677415" width="154.00000000000003" height="62.516129032258064" as="geometry" />
        </mxCell>
        <mxCell id="VxR14Vq80_6-qc9pXVwi-183" value="&lt;font color=&quot;#000000&quot;&gt;AI service&lt;/font&gt;&lt;br&gt;Cloud Run" style="editableCssRules=.*;html=1;fontColor=#999999;shape=image;verticalLabelPosition=middle;labelBackgroundColor=#ffffff;verticalAlign=middle;labelPosition=right;align=left;spacingLeft=20;part=1;points=[];imageAspect=0;image=data:image/svg+xml,PHN2ZyB4bWxucz0iaHR0cDovL3d3dy53My5vcmcvMjAwMC9zdmciIHhtbG5zOnY9Imh0dHBzOi8vdmVjdGEuaW8vbmFubyIgd2lkdGg9IjM2NS40NjQ5OTY3NzA0MjQ5MyIgaGVpZ2h0PSIzNzkuMjIyOTk0NDYzNTc3OTUiIHZpZXdCb3g9IjAgMCA5Ni42OTU5OTkxNDU1MDc4MSAxMDAuMzM1OTk4NTM1MTU2MjUiPiYjeGE7PHN0eWxlIHR5cGU9InRleHQvY3NzIj4mI3hhOwkuc3Qwe2ZpbGw6IzQyODVmNDt9JiN4YTsJLnN0MXtmaWxsOiNhZWNiZmE7fSYjeGE7PC9zdHlsZT4mI3hhOwk8cGF0aCBjbGFzcz0ic3QwIiBkPSJNMjkuNzk0IDEwMC4zMzZMNDYuOTIgNTAuMTY4aDQ5Ljc3NnpNMCA5OS42NzFsMTIuOTc2LTQ5LjUwMkgyOS4yMkwxNi44OTcgOTIuMDU0eiIvPiYjeGE7CTxwYXRoIGNsYXNzPSJzdDEiIGQ9Ik0yOS43OTQgMEw0Ni45MiA1MC4xNjhoNDkuNzc2ek0wIC42NjZsMTIuOTc2IDQ5LjUwMkgyOS4yMkwxNi44OTcgOC4yODN6Ii8+JiN4YTs8L3N2Zz4=;" parent="VxR14Vq80_6-qc9pXVwi-182" vertex="1">
          <mxGeometry width="30" height="30" relative="1" as="geometry">
            <mxPoint x="15" y="15" as="offset" />
          </mxGeometry>
        </mxCell>
        <mxCell id="VxR14Vq80_6-qc9pXVwi-193" value="" style="edgeStyle=orthogonalEdgeStyle;fontSize=12;html=1;endArrow=blockThin;endFill=1;rounded=0;strokeWidth=2;endSize=4;startSize=4;dashed=0;strokeColor=#4284F3;exitX=1;exitY=0.5;exitDx=0;exitDy=0;entryX=0;entryY=0.5;entryDx=0;entryDy=0;" parent="2" source="VxR14Vq80_6-qc9pXVwi-179" target="VxR14Vq80_6-qc9pXVwi-182" edge="1">
          <mxGeometry width="100" relative="1" as="geometry">
            <mxPoint x="213.0434782608696" y="367.741935483871" as="sourcePoint" />
            <mxPoint x="314.49275362318843" y="367.741935483871" as="targetPoint" />
          </mxGeometry>
        </mxCell>
        <mxCell id="VxR14Vq80_6-qc9pXVwi-196" value="" style="strokeColor=#dddddd;shadow=1;strokeWidth=1;rounded=1;absoluteArcSize=1;arcSize=2;" parent="2" vertex="1">
          <mxGeometry x="50.72463768115942" y="240.99516129032256" width="131.8840579710145" height="40.45161290322581" as="geometry" />
        </mxCell>
        <mxCell id="VxR14Vq80_6-qc9pXVwi-197" value="HTTPS&#xa;Load Balancer" style="sketch=0;dashed=0;connectable=0;html=1;fillColor=#757575;strokeColor=none;shape=mxgraph.gcp2.network_load_balancer;part=1;labelPosition=right;verticalLabelPosition=middle;align=left;verticalAlign=middle;spacingLeft=5;fontSize=12;" parent="VxR14Vq80_6-qc9pXVwi-196" vertex="1">
          <mxGeometry y="0.5" width="32" height="32" relative="1" as="geometry">
            <mxPoint x="5" y="-16" as="offset" />
          </mxGeometry>
        </mxCell>
        <mxCell id="VxR14Vq80_6-qc9pXVwi-200" value="" style="shape=mxgraph.gcp2.doubleRect;strokeColor=#dddddd;shadow=1;strokeWidth=1;rounded=1;absoluteArcSize=1;arcSize=2;" parent="2" vertex="1">
          <mxGeometry x="260.72463768115944" y="45.04838709677419" width="187.47826086956525" height="62.516129032258064" as="geometry" />
        </mxCell>
        <mxCell id="VxR14Vq80_6-qc9pXVwi-201" value="&lt;font color=&quot;#000000&quot;&gt;User Service&lt;/font&gt;&lt;br&gt;Cloud Functions" style="editableCssRules=.*;html=1;fontColor=#999999;shape=image;verticalLabelPosition=middle;labelBackgroundColor=#ffffff;verticalAlign=middle;labelPosition=right;align=left;spacingLeft=20;part=1;points=[];imageAspect=0;image=data:image/svg+xml,PHN2ZyB4bWxucz0iaHR0cDovL3d3dy53My5vcmcvMjAwMC9zdmciIHhtbG5zOnY9Imh0dHBzOi8vdmVjdGEuaW8vbmFubyIgd2lkdGg9IjIwIiBoZWlnaHQ9IjE5Ljk4OTk5OTc3MTExODE2NCIgdmlld0JveD0iMCAwIDIwIDE5Ljk4OTk5OTc3MTExODE2NCI+JiN4YTsJPHN0eWxlIHR5cGU9InRleHQvY3NzIj4mI3hhOwkuc3Qwe2ZpbGw6IzQyODVmNDt9JiN4YTsJLnN0MXtmaWxsOiM2NjlkZjY7fSYjeGE7CS5zdDJ7ZmlsbDojYWVjYmZhO30mI3hhOwk8L3N0eWxlPiYjeGE7CTxwYXRoIGNsYXNzPSJzdDEiIGQ9Ik0zIDMuOTlMMCA2LjQydjcuMTNsMyAyLjQ0eiIvPiYjeGE7CTxwYXRoIGNsYXNzPSJzdDAiIGQ9Ik0zIDMuOTlsLTMgNCAzLTJ6bS0zIDhsMyA0di0yeiIvPiYjeGE7CTxwYXRoIGNsYXNzPSJzdDIiIGQ9Ik0wIDE1Ljk5bDQgNCAyLTItNi02em0uMDEtOEw1Ljk5IDJsLTItMkwwIDMuOTl6Ii8+JiN4YTsJPHBhdGggY2xhc3M9InN0MSIgZD0iTTE3IDE2bDMtMi40MlY2LjQ0TDE3IDR6Ii8+JiN4YTsJPHBhdGggY2xhc3M9InN0MCIgZD0iTTE3IDE2bDMtNC0zIDJ6bTMtOGwtMy00djJ6Ii8+JiN4YTsJPGcgY2xhc3M9InN0MiI+JiN4YTsJCTxwYXRoIGQ9Ik0yMCA0bC00LTQtMiAyIDYgNnptLS4wMSA4bC01Ljk4IDUuOTkgMiAyTDIwIDE2eiIvPiYjeGE7CQk8Y2lyY2xlIGN4PSI2IiBjeT0iOS45OSIgcj0iMSIvPiYjeGE7CQk8Y2lyY2xlIGN4PSIxMCIgY3k9IjkuOTkiIHI9IjEiLz4mI3hhOwkJPGNpcmNsZSBjeD0iMTMuOTkiIGN5PSI5Ljk5IiByPSIxIi8+JiN4YTsJPC9nPiYjeGE7PC9zdmc+;" parent="VxR14Vq80_6-qc9pXVwi-200" vertex="1">
          <mxGeometry width="30" height="24" relative="1" as="geometry">
            <mxPoint x="15" y="18" as="offset" />
          </mxGeometry>
        </mxCell>
        <mxCell id="VxR14Vq80_6-qc9pXVwi-202" value="" style="strokeColor=#dddddd;shadow=1;strokeWidth=1;rounded=1;absoluteArcSize=1;arcSize=2;" parent="2" vertex="1">
          <mxGeometry x="50.72463768115942" y="45.04838709677419" width="172.46376811594203" height="62.516129032258064" as="geometry" />
        </mxCell>
        <mxCell id="VxR14Vq80_6-qc9pXVwi-203" value="&lt;font color=&quot;#000000&quot;&gt;Firebase Auth&lt;/font&gt;&lt;br&gt;Cloud Identity" style="editableCssRules=.*;html=1;fontColor=#999999;shape=image;verticalLabelPosition=middle;labelBackgroundColor=#ffffff;verticalAlign=middle;labelPosition=right;align=left;spacingLeft=20;part=1;points=[];imageAspect=0;image=data:image/png,iVBORw0KGgoAAAANSUhEUgAAASwAAAEsCAYAAAB5fY51AAAgAElEQVR4Xu19eZwcVbX/OVW9VvUsWUhCAkFAUNyV50Pw+Qg/NBiyI4mIMSTTPTOE7AmL+hAj6BOSTFbUzHTPTCBEJAmEEHABlYjKA/W5Az5kCcoakCzTXb3X+X1qkmjEJNNLLbeqzvwFn7n3fL/ne+58c2/VrXsR+IcVYAVYAZcogC7hyTRdosDnbidVO1B4293zwk+4hDLTdJECbFguKpbIVFu6c+8IgD6fAGbu3qPHwgF4MRgMrNy+KLJOZN7MzV0KsGG5q15CsZ22heTmvuwUBJgLABccJvf8Hh3K+sH/C8iYiwRpu6yoi7bPwT1CJcBkXKcAG5brSuY84Stvp2F6MdcOQO0AMOqtjI40rMO/QwSKhvD3wYB8zfZFkYecz4IZuFEBNiw3Vs0hzvGU9lEJYS4SXAoIwWPROJphHdk2HIQ3I0EpGRgVvWHrdCw4lA7DulABNiwXFs1OytO2ULS5LzcDQZ8LgO+vBHsgwzocQ5agHA7iw0FU5m5fik9XEpvb+FsBNix/1/+Y2bf05E4LkPEQnWYhYHM1MlVqWEfGjIRxdzgg/ff2RdFkNVjc1l8KsGH5q97HzXbZMpJeOlmbYDxEJ8BPIEBN46MWwzpMLCSjFgrAVklWFt27GPdxeViBIxWoaUCyhN5SIJ6iwTLm2ojoSkQ4pd7s6jGsw9goEUWD0q+DodDS7QuCP6mXE/f3hgJsWN6oY01ZxFPav0tIc5Hw04AQrinIUTqZYViHwxIARIP4ejAE39qxUPkKIB7aMGEWW47jJgXYsNxULRO4zl9H4Zya+wwCGXun/s2EkP8SwkzDOjK4LEEpEoSHZF2df++1+KwV3Dmm2AqwYYldH9PYxVPZU2Q0TIpaAHCIaYEtnmEdnSeBEoZn5IB8/Y5Fyl1W5sKxxVKADUusepjLhghbe/KfRCjPBcJxgCCZC3D0aFbNsI6GFpIxHQpL326QI9dsXoAH7MiPMZxTgA3LOe0tQ57VS80hPRsHgjmAcLplQMcIbKdhHaYgIejRMP5CknHRjkXK43bnzHj2KMCGZY/OtqC09ebfS3ppIQJebjyrtgXUkSXhcTIjgEgQXguG5XU7FkZu5of0To0Ca3DZsKzR1bao07ZQqLkvN+3QQ/RzbQM+DpATM6yj0QlIVIyGpAfKijLv/jn4kgjaMIf6FGDDqk8/x3q3dGdGBg6ekpAAwGGOERFthnUUPggEkRD8KRSQ/2v7YuUekbRiLtUpwIZVnV6Ot27tyX0cdX0uIUxEANlxQi4wrCMphoJwIBLA28uqct3OdtRE1I85HVsBNiwXjI6WbmoIYHY2EFwFAO8QnbIoS8Lj6SRLoEdD8HMI4sL7Fqi/EV1T5ndQATYsgUdCe0/+XbquLwCkGQigCkz1n6i5wbD+Tth4SB+Gl0KytPreJUqHWzT2K082LMEqP+ZhCpzxXPYSJJgLCP8pGL2K6LjKsI7IKChDPhyCHQFVXXRPO75SUbLcyFYF2LBslfvYYLN6aURI164EgjZAPFEQWjXRcKthHU4WJaBIAJ4IyYFrti+JfL8mEbiTJQqwYVkia+VBW3uy56Pe/13fVEAIVN5T3JZuN6wjlQ0HYF8wLHUfaIpev2s25sRV3R/M2LAcqLNxFVa0pM08+BAd3+MABUshvWRYh4UK9J+OKj0iheR5OxaEn7RUQA5+TAXYsGwcHO29uTP0sr4AkWYCYKON0LZCedGwjhQwGsIXAjIs37FE/aatwjIYvyW0egwcugpr0qGH6BdajSdCfK8b1mGNgzLkoiFpW7YxuvAHCXxTBO29zoFnWBZVuK2ThkIw1w7UfxXWyRbBCBnWL4Z1WHxJAooG8beBgHwdX2Fm7ZBkwzJZ39Ye7TzUwdiJfikChEwO74pwfjOsw0UxTkeNBOFvwSB2Hdiv3LBrGZZcUTAXkWTDMqFYs3opEirnZhDocxHxAyaEdHUIvxrWkUULSFAKh/DHAVDm8xVm5g1nNqw6tDSuwpJ1fR4CzQLEQXWE8lRXNqx/lNP4A4sE8blQRPra9gXRHk8V2oFk2LCqFd04xbNXG39w2YcX1XoVVrWwbmrPhnX0agVl0KJB/A5IylK+wqy2Ec2GVaFu/VdhQTYBCHMA4G0VdvNlMzas45ddQqJoSPpVOIiLti1UHvXlIKkxaTasAYRr7S18AMvFRYT4aQSI1Kizr7qxYVVYbgIIh2BPWMZv3rtEuYlPRx1YNzaso2hkXIWVV3KXkXFnH8CHB5aRWxypABtW9eNBlqAYCeP3g7oy/56r8YXqI/ijBxvWEXWe3aOdHNBhHiLFrb4Ky8vDiw2rnuoSRMP4dCAg3cBXmP2rjmxY/Q/R82ONUzwBYLxdV2HVM6RF78uGZU6FgjKlIxHpjv1B5ZpdczFtTlR3R/GtYX32DmpUc9k4AVyFCG93dxnFYs+GZW49ZIn0cEh6TJZxid+vMPOdYRlXYUG5tACMq7AQFHOHFkczFGDDsm4cRALwSigEa+5dHFtuHYq4kX1hWG2dFAQ5O40QjIfo54lbDm8wY8Oyvo4BCQqRMN2vR2ML/HSFmacNy7gKSyK4CgESiDjc+mHECDzDsncMIAJFgvBUJIyfv3uButNedPvRPGlYiZ7s/5N0Mj5AnizqVVj2l9o+RJ5h2af1kUihAOyPBGFjWVW/6NUrzDxjWP1XYVH2CgK6ChHPcmbIMCrPsJwfA7KM5UiQfoZycMF9i8K/d56ReQxcb1gt3bl3BEhfCACfA4SYedJwpFoV4BlWrcqZ3I8AlDD8NRgMrNy+KLLO5OiOhHOlYRlXYZ35bHbqoYfo5zuiHIMeUwE2LPEGR0CGfDQkbZei0YXb5+Ae8RhWxshVhnXl7TRML+bmEFAbAoysLEVuZbcCbFh2K145nvGQPhrEPwRl+To3XmHmCsNK9GY/JpX7r8K6BBCClZeHWzqhABuWE6pXjxkKwN5wUEqFTopev3U6FqqPYH8PYQ1r2haKDjqgzQSEuQD4XvulYcRaFWDDqlU5Z/rJ/VeY4cNyKLBQ9CvMhDMs4yos0vV5QHQFIDY5U0JGrUcBNqx61HO2bySMuyMBuPmeRWqns0yOji6EYS1bRtLLJ2mTjIfoAHghn+Ip4lCpnBMbVuVaidoyEIBsNIBbUVIWinQ6qqOG1X8VViDX1n8VFsJoUYvHvKpTgA2rOr1Ebo3G6ahB/E0wHF6yfUHwJ05zdcSwEkntIxL2X4U13a9XYTldeCvx2bCsVNeZ2IeuMHsjFMJv7liofMWp01FtNay227OjoajfB4Dvd0Z2RrVDATYsO1R2DsO4wiwWkZbcs1hZbzcLWw2rvVs7lwD40H27q2wzHhuWzYI7ABeL4rb7lqjT7IZmw7JbcR/gsWF5v8hsWN6vsW8yZMPyfqnZsLxfY99kyIbl/VL7wrD63w5K8D/eL6cfM6S/EeFeQNj78t/Kby/pqOoEgbIOkh/V8HrOjRHceu9Sdbrdedr6DIsNy+7yWoL3MwB6mEj6M0j0bJlod09cffl4SJfcSqcUC9oHJF06i6B0dkmXzi6U9NE6oWwJQw5quQJsWJZLzAA1KUC0l1C6C0D/Xi6o/GjTTMzUFOconcYtT48NSDivWKYxhRI0mBWX41ivABuW9RozQhUKEMB3AGlzskW9v4puNTedsKJ4LmL+a/kifKykQ6DmQNzRFgXYsGyRmUGOpwABvQ4k3VqSIt/qbcHXnVDr7E4KjuzTbs0VqKVMbFxO1KASzFiYtt13dYO392HxM6xKhoL9bQhoHwB8IRlXN9iPfmzE8Su0TdlC+bMAaOuzVpE0EJWLL2ZYvNNdvOFHBJtKUnSpUzOqgRQZuz57qpQtf7dQhHcO1JZ/b58CvK3BPq0ZqV8BehVAurwrHn3YDYJcvDwzN1/S1xK/WRSiXDzDEqIMfiFBDxYk5dMbZ6OxFHTNz5ivZ98WxvL/FMswwjWkPUqUZ1geLaxoaRHB55MJ5RbReFXD5+LlmZ25Ik2opg+3NVcBnmGZqydHe4sCBEBAeEUyEd3kBXEmrMj8t1akzwMBP5B3oKA8w3JAdD9BEuDsZDy60Us5T1ypLc4U9A42Lfurytsa7NfcN4heNKvDxZuyWpt/QNM9cauxmwYkLwndVC03cUVY2NWiePoPesqqvpsO5KT/AiJeHto0NnlJaJPQfoIhohuTCfXLfsh5cod2R19O/6wfchUhR18sCXnjqJ1DjR7siqsX2YnoNNaEFX1/0gr4Dqd5+AGfZ1h+qLJNORLBi0U5+l637bOqVx7jO8Shb2b2FXVQ6o3F/Y+vgC9mWPwtoT1/BmWCc7oTyi/sQRMLZcrqvjF9Wfwx8XYHSwvjC8PiJaGlY6g/OCHckmxRPm89krgIk1Zpd6az+mXiMnQ/M14Sur+GImTwf11xhT8SBoBxy9P780VoFKEoXuTgixkWLwmtHbq6jhekWqO7rEVxR/Tp6zNT3jhA293B1n0sfWFYvCS0cGAS/KgroXzcQgTXhZ7YkXk2k6PTXEfcBYR5SeiCIglNEeEjXS3K40JztJncZbdmL9yzv/xDm2F9AeeLGRYvCa0ay/7bc1WpkhNWpl/U8jCq0vbcrjIFfGFYvCSsbDBU24qQJtp1WUS13Jxuf+naTOLNNCWd5uE1/IYobtuxROUz3b1WWBvyea4rrpxuA45rIS66OZ0tliHi2gQEJO6LGRYvCa0YefiFrnj0ZisieyXmlI70zgM54AP/TCyoLwyLl4QmjpjDoST5rK7Z4T9ZENkzIT99a+ZDr++n//VMQgIkwm8JBSiC2ygQwdPJhMIf+1ZQuHG3pA/k+XbpCpSqrIkvZli8JKxsMFTaighWJhPKNZW293O7SR3arnROP9/PGpiZuy8Mi5eEZg4ZAB1pSqpF3WFuVG9Gu2Rtbv6+dMnTBxnaWTlfLAnZsMwdUmWKDulO4JvmRvVmtGlbSP7bn9Ml4DsrTCkwb2swRUb/BCGCZ5IJ5Qz/ZFx/pmNvzvSVyhSrPxJH4CUhj4GqFCCA+5JxZXJVnXzeeNzyzLP5In9baMYw4CWhGSr6K0ZHV1y52l8p15fthJXpH2p5uLC+KNzbUMAXhsVvCc0b7IjU3tmidpkX0fuRJq1Kr0lnYaH3M7U+Q77my3qNPYWARJM6E+pOTyVlcTITV2uLMpq+2mIYX4T3xQyL3xKaN5aR8PzORPQR8yJ6P9KkDm1aOqdv8X6m1mfIhmW9xp5CICnwweTs0G89lZTFyVy8QjsnV9AfsxjGF+F9YVj8DMu8sUxl6R3JtsjT5kX0fqRpK+jUvxUyz3k/U+sz5GdY1mvsKYQyye/tToT/6KmkLE5m6ur8Wfu14pMWw/givC9mWPwMy8SxjIGzu1pCvzYxoudDTV6rndeX1n/u+URtSNAXhsVLQvNGUpngP7oTCv/xVSHp1I7MhP054jerVWh2rKa8090EEX0VgmB6V0LZ6quc60z2U2ty8/ZmSuvrDMPdAcAX3xLyktDEsU6wpCuh8J6iKiSdujqzYb9G7VV04abHUICXhDw0qlWAP82pUrEJK9K7tALwmVhV6na05rwkNEFEP4UgooeSCXWsn3KuN9eLV6RfzBX4yq96dTT6+2KGxUtCM4bKwRgEtC8ZVweZF9H7kcbenC6UyhD0fqbWZ8jPsKzX2HMIZcK3dSeiL3guMQsSGtuhnVzK6X+xILQvQ/IMy5dlry9pIpyZTEQ31RfFH70ndaQ70jlY4o9src+SDct6jb2HQPDtroTyWe8lZn5G41f0PZUt4DvNj+zPiGxY/qx7fVkT7e9KqM31BfFH7098PV0q6yD7I1vrs/TFMyze6W7+QOJjZgbWdFJHpiWdo+6BW3KLShXgbQ2VKsXt/lkBXhYOOCImLE//USvCuwdsyA0qVoCXhBVLxQ3/SQGCYiYSHbp5Bh5gZf5VgTG9FAm8mtF0ne/3MnN8+MKweElo5pD5p1jXdsWVFZZFd3HgSasyqXSW4i5OQUjqvCQUsixuIUV79jYoI7dOx7JbGNvCk0gae4uWK5WJN4uaLLgvZli8093kUXNEOAKcnYxHN1qH4L7Ikzq0b6Zz+hz3MRefsS8Mi5eElg7EP3XFlbMsRXBZ8E98PV0o6/wpjhVl4yOSrVDVZzGJYHkyoVzns7SPmu7EjvQPMzm+NNWqseCLGRYvCa0aPgfjEgAhwrldLcrj1iKJHf2SNZkP79PocSB+M2hVpXxhWLwktGr4/FPcvxak6Ps2zsZ9tqAJCDLulvQb+RIMEZCaZyjxktAzpXQ+ESL6bjKhjneeif0MJnRk7tFyNNV+ZH8h8gzLX/W2PFsCWJqMK6ssBxIIYGKH9qlMXt/KS0Hri8L7sKzX2F8IBCWS6bzkbPWXfkj8E8tzZ0C59GRZh4Af8nU6R/742ekKeBCfAF5GWfrPrlmRZz2Y3t9TGrOMYuGI9mqxTKqX8xQpN1/MsPihuwNDjugVnQIXplrDTzmAbjnk2Z0UHLov80qRH7JbrvWRAL4wLN7WYOuY+gcY0RuIwY93xkO/c4iBJbDj1lEjZDPP5EtwgiUAHPSYCvCSkAeHpQoQQJ9OMM4rt0VfvDw9oqzD/xXL0GipcBz8qArwDIsHhvUKEBQJaUEyrm6wHsw6hImrCx/K5fKPlnUMW4fCkY+nAM+weHzYpwBRqiuhttoHaB7ShBWZ1lyRNugEknlROVK1CvhihsUP3asdFta1J4JfYEC63C1vEMcso0Aspv1Uy9NHrFOFI1eqABtWpUpxO1MVIKKvJhPql0wNanKwT63NtaWzpfXFMoRMDs3halTAF4bFbwlrHB1WdyN4Vpdxdmp29KdWQ1UT/1Pr6Z3FvHZ/X55Ox2o6clvLFeBPcyyXmAEGUoCAfkC63JFqjTw0UFsrfz9+bf49WCymsgU6h4itykqta43tixkWP8OqdXjY3I/oN4T4tWRcudtO5ItWpC+XCa7PFYEPIrRT+Bqw+LSGGkTjLtYq0P9pD8C2MsGW7nj0UUAksxE/fnNufAiL1xV0/IjOp4OaLa9l8Xhbg2XScmAzFCCi1xDxLiD8Ncn6kzlZeXLTTMxUG/s/b8x8MKZAnEr62EIZTidA3p5QrYgCtPfFDKutRzsHCB4TQG+mYI4CfwWAZ4xd9Ehg3IvYZ/z3a336B0mnv7/R03UcXirDSN6Vbo7oIkSJRXDrfUvV6XZzsfWJZiKZOVuS8Fd2J8l49irw/B4dyrq9mIxmrwIxRbrzvsXK5faigr1nXieS+fdJUtlTH+DaXTA34LFhuaFK9XFsiODGHUvV2fVFqb63zTOs/FmSVH6yeprcw00KsGG5qVq1cW1QsHPHYvXK2nrX3stWw4qncm+XUf9z7XS5pxsUYMNyQ5Xq49gQhXU7lsQW1hel+t42G1b2FBlpd/U0uYebFGDDclO1auMaU6Tl9y22/w5MWw2rpTszMgD4Um0ScS+3KMCG5ZZK1c6zMYI33btUvaH2CLX1tNWwZt5GQyKl7Bu1UeVeblGADcstlaqdZ1NU/sL2JdGba49QW09bDcug2Natmb5burbUuZdVCrBhWaWsOHEbY9h+70K1y25G9htWSssAgmJ3ooxnnwJsWPZp7RTSYDUwcduiyP1249tuWK3d2ksIMNLuRBnPPgXYsOzT2imkExpCH7hrgf2XmthuWG3dmScA8F1OCc241ivAhmW9xk4jvH2o2tzVjvvt5mG7YbV2az9HgPPsTpTx7FOADcs+rZ1AQgT40RdjtnuHkavtoK2pzAOIeLETQjOmPQqwYdmjs1MoAQn0B78Qk53At92w2lLaJkCY4USyjGmPAmxY9ujsFEoogPnvX6dGnMC33bBae7SbkeA6J5JlTHsUYMOyR2enUCIh2Pfda2KDnMC337C6tfkIsM6JZBnTHgXYsOzR2SkUNQzP77w6dpoT+LYbVqInM1kivNeJZBmzXgXoAAA+BUBvEKDx3/uB6AAi7ifS9yHgPp2kfXv74IwylE4lgBN0wsEIpJZ1MP5FVkkHRSeKlnWMlfky1HoL4kj/hgg+umOp+lEnwG03rNbezIdRx184kSxjVq4AEf0vAD6OSE/qKD0lFfWnutrVVyqPMHDLS1bSKRTMj9NL5XPLOr2nXKYz8mVocOBd0MBkucXfFWhSpe9sX6R8xglJbDests7MiRDAl51IljGPpQAdAMIfENKPQYL/Tc5Wf+mkVlNXa5eQTuNLuv7RXAnO1HXjRTr/iKLA4BjetG2h/R8+G/k7MhDaUloBEIKiFMCnPP5MBPeThPc/c2rkkV0XYElIHYikqetzs0pFfXa+BGeXShQVkqePSA2OSZ/ZtlD5jhMpO2NY3drzAPA2JxL2MyYR7AKAB4jkB1Kt4afcqMXkNdo5WKalhTKNyRXhBDfm4HbOo4cEztx4ZcSRgzgdMqzMDwBwrNsL5wr+BFsJYZsWjn5/8wzjQbl3fi5K0WClT1tSKNH0bAHO8E5m4mYSkAAe/IIzu9wdWxK2prRvIMJV4pbF3cyI4HlETEnBSGrDTNzj7mwqY39ZB52sobY2X6CLi2UIV9aLW1WrQDiI2veuVdVq+5nV3pEZVmtKW4gIa8xKguMcUoDgHgQp2ZmIfN/PmlyyWpufL9HibIFO9bMOVuSuhmH3zqtjjunqiGG1pXLjAXXbz9KxooCOxyR6BRBSJYANPXGV374eUZCpHXSmTto6rUgXlnUIOF4rDxBojMKue5fELnAqFUcMq703dwbp+tNOJe0FXCJ6AhBvTMaVLV7Ix+ocJq/Rvp7P0bxCmWJWY3k5/iAVb717kTrfqRwdMaxly0h66eRsAQEc+eLbKbFNwt2NiF/qnB3ZDIh83HSVok5drd2cyemLSzqEquzKzQFgaKP8uS3zo3c4JYYjhmUk29atGa/V3+lU4m7DJaI3AfDGZEJZ6zbuIvKdvCq9WcvBZfx5UHXVOfMk6aQNVyiO3XzlmGG1dmt3IsBl1cnlz9ZE1INlZYkTJzx6WfGp36JhxbT2kJan9zmzhdpd6oaDUP7etTFHnwU6ZlhtKe1aQLjFXSWzne1zAHhFVzz6M9uRfQQ4pSM9I1vE7mKZeJl4nLqrEXh559LYKCeHhmOG1Z7KXkhIP3QyeZGxCeGWZIvyeZE5eo3bxI6+XZkcnu+1vMzKp0nBh7YvVh3d8O2YYbV1UhMEsvvMEtMzcQg0QunSZDzyPc/k5KJEpq7Wrj6Q1ZcT8SLxrWUb3IBf2rZA/aqT5XTMsA49eP8LAJzspAAiYRPAy1CWxybbwk+IxMtvXCatzX0yq5V3lnVy9HmNaLqfOBTet7k99gcneTlqWK3d2g4EmOSkAMJgE/2mKCkX9bbg68Jw8jGRKetyp2ezpd8VS+DYZygiyR8MAP3gWlV2eiuNo4bV1p39IgB9TaTCOMTlYShFJ3S1o+YQPsMeRYF3L6PQaCXzYp5PhQA1Aq/tXBob4fRAcdSwEsnsGEmih50WwUl8AvrevgZlytbpWHCSB2MfXYExvRSJvp55IV+EYX7WqFmF79+zKDbOaQ0cNaxZvRQJlbMH/HqYHxHs2NcY/dTW6Vh2eiAw/rEVmLaFQundmefzRRjpV52GNeKc78xXNzidv6OGdejB+2MAcI7TQtiPTw92xdWL7MdlxFoVGLc8/ZofZ1qyBDD6BHVIdwLfrFU7s/o5blitKW0VIiw2KyE3xCGi13RQ3iXCAHCDXqJwnLA2d0ZeKz1V1v31DawShr77r441ilAH5w2rW/sUAmwTQQxbOBDoJMHHki3Ko7bgMYipCkxdlblyfw6+CUSO/+2YmthxgjWp9Nj2RQ3n2oV3PBzHRb/ydhqmF7OviSCGPRzoK11xdZk9WIxihQKTV2oP9+X1MVbEFjHm0EZ52Zb50a+IwM1xwzJEaE1l/oiI7xZBEIs5/F9XXOETKiwW2fLwy0gaG8lkS2XvH1EjIcDoEYHTe1oiz1muawUAQhhWW7e2GgAWVcDX3U1ImtCViDzg7iSYvaHAlI7MjQdy9CWvq6GGILvzmpgiSp5CGFYimbtYknRP/yETwE+SccU3ywhRBriVPD65PL2/UAQhHkZblecgFR65e1FMmA/ChTCs/v1YejZrlegixNV1+f2p1vDvReDCHMxRYOJK7TOZvP5tc6KJGWVEE7Z/e57aJQo7IQzr4HMs7WFE8OYMhOg3XQn1Q6IUnXmYp8BFN2eyxTJFzIsoTqSADHDCSWqTSPdZCmNYXv6ukAi/nExEbxRnKDITsxSY1JF+JJ2Dj5kVT6Q4agRf3blUPVEkTsIYViKZOVuS8FciiWMWF14OmqWkeHEuWZv93L50+XbxmNXPaHAD3LltQezy+iOZF0EYwzJSauvWvHg+1u6uuOLYxZPmDRWOdCwFPvH1dMlru98NYxh9gvTR3jaxNjgLZVitKW0NIiz00p8GAWxLxpVpXsqJc/lnBcYtT7/ktQ+j1RDmdl6jRkWrtVCGlejNfkzS6RHRRKqHDwFuSMajc+qJwX3FVmDiiswvMwX6N7FZVsduSEz+7taF0fHV9bK+tVCGdXBZmHkDAIdYn7pdCHRTV1y9wS40xrFfgUmr+u5KZ3G6/cjWIBqmcPKwwNiNrZGHrEGoPapwhtWaym5ApPbaUxKsJ8LCrhZlnWCsmI6JCkxemb2hL18W4ls7M9JSwlC4/+pY2IxYZscQzrASydwnJEl/0OxEnYpHhDOTiegmp/AZ13oFpq7WLtmv6Xdbj2QPwuCY9KNtC5WP24NWHYpwhtW/LExlXgfEodWlImZrRPxcZ0v0DjHZMSszFJjckbu4L1fyxKdlhiGMGowTb5+j3m+GNmbHENKwWru1dQgw3+xknYjHMywnVLcXc9KK3Ph0oSTkH3i1SqgRyO9cokadvh3nWLyFNKx4Svt3GeHxasUWsT0blohVMZeTlwxrSAy3b12oXmKuQuZFE9Kw+peF3dqzAHCaeak6E4kNy8/fq8EAABRiSURBVBnd7UT1imEZZ1+dPCR0dm976Nd26lcNlsCGlf0SALn++zs2rGqGozvbesWwGqP45r1LVKG3FAlrWFfepo3SS/CiO4fwP1izYbm9ggPz94phDWuCdd+ZFxP6SxNhDevQsvCnAPAfAw8ZcVvwW0Jxa2MWs0+tzV28N+3ut4ShAMHIodKonrj6slm6WBFHbMNKaZcDwmYrErcrJhuWXUo7h+OFbQ2DYvDk3Qtjwt+rILRhTdtC8qA+7TU3f6rDS0LnjMQuZLcvCfs/xRkuTd+YULbapVmtOEIblpFUayrz34j4hVoTdLofG5bTFbAe3+2G1RDF9I7FSqOoe6+OrKDwhjW7Rzs5qMNuQJCsH3rmI7Bhma+paBHdblgjB0kr77hKuUY0XY/GR3jD6p9ldWs7EGCSGwR9K0c2LDdWrTrObjasSAjplJHKkG99FvdWl7UzrV1hWG7+IJofujszsO1EdfNbwhMapV13zVcusFOverBcYVhGgm3dmScA8F31JOtEXzYsJ1S3F9OtbwmNW3FGDZI+0tuuuOYzONcYVmsq24JI3fYOxfrReElYv4aiR3DrknCQis/dvUg9XXR9XfXQ/TDZaVso1HxA+wsiDneTwGxYbqpWbVzdaFjGd4OjB9Gne+Y0bKkta2d6uWaGdXBZmP0iAH3NGalqQ2XDqk03N/Vyo2E1K7D/nsWxZjfpbHB1lWHN2UyDytnsi4CguEVoNiy3VKp2nm40rJMHw9W3zYl11J61Mz1dZViGRK0pbT0izHNGrupR2bCq18xtPdxmWA1RzA9XlYaudiy6TWvXGVbb7dnRUKQX3CI0vyV0S6Vq5+m2t4SjBkurN81RltSesXM9XWdYh2ZZ30CEq5yTrXJknmFVrpVbW7pphtUQwUJsuHLC5hl4wI16u9KwZvXSiKCefQEBQqKLzoYleoXq5+cmwxo1NLB8U3vkuvqzdiaCKw3LkKqtW1sNAIucka1yVDasyrVya0u3GFZDBHLDY+qQrnbU3Kq1aw1r5m00JFLK/hUAoiKLz4YlcnXM4eYWwxo1CG/cdJX6ZXOydiaKaw3r0CxrOQAI/ZU5G5YzA9tOVDcYVoOCmdGyMmT9AszbqY3ZWK42rFm91Bwqa7sBsclsYcyKx28JzVJS3DiivyVEY1f7UOma3jZlpbgqVsbM1YbVP8tKadcCwi2VpWt/K55h2a+53Yiiz7CaVdj35vvVE3ZdgCW7tTEbz/WGNeZhCpz5XHa3ccO22eKYEY8NywwVxY4hsmHJEsBJQ6XLe1uVO8VWsTJ2rjcsI832nuwMItpUWcr2tmLDsldvJ9BENqwhDfjC1gXq25zQxQpMTxjWwQfwmT8A4HusEKmemGxY9ajnjr6iGlZQBjhlmPSRrhb3nHc1UMU9Y1iJZHaMJNHDAyVs9+/ZsOxW3H48UQ1rRBM88u15sfPtV8Q6RM8YliGRiGe/81tC6wavKJFFfEuohAFGDg28vWtW5FlRdDKDh6cMq6Und1qAdKEKRITxZCLaY0axOIaYClyyWrt0n6YLdaffqMFyctOcaJuYitXOylOG1T/LEu0eQ6JXCrLyoY2z8dXay8Q9RVVgTC9FInsyewolaBCFY7OK2oigMvybczEtCiezeHjOsKZtoeigA9qzgHiiWSLVG4eIfruvUTln63Qs1BuL+4ulwPjlmeezRRLmLVz/NobB2NrbrqbEUsocNp4zLEOWtpR2OSBsNkcik6IQbO1KKNNNisZhBFBg4qrMdzNZGicAlb9TGNqAz25ZoL5dJE5mcvGkYfWbVrf2GACcY6ZY9cfCZV3x6Ffqj8MRnFZgSkdm2YE83ABEwvwNGZeinjQ08P6u2eE/OK2PVfjCiG12gm29+XeCXn7K7Lh1xyOY3pVQhHpAW3dOPgswdVVm8oEcbScS504E4w/5xMHSnXfMUS73cjk8a1gHZ1nZLwPQMqEKSJBHDJzTGQ/9TiheTKYiBSaszZ2R18pPlnUKVNTBpkZDYnCgIaae1BPHPpsgHYHxtGFN20Jy8wHtd4j4bkfUPRYovzkUqhyVkhnzDYpF0tqrhRKplfaxo10kCDBqqDwm2RL9iR14TmJ42rAMYVt7Cx8AvfRrFOxKMyJ6AsvKR7vacb+TA4CxK1NgzDIKRJXMS/kiDKushz2tjKNjRjbj7ZuuUq+wB9FZFM8bVr9pdWsdCCDcLSEE8Mt9DdHzt07HrLPDgNEHUmD88swL2SKNHqid3b8f0iDtGQHR0W4/mK9S3XxhWP17s/qyfwSA0yoVxq52BPCTZFwZYxce41SvwPgV6SeyBXhX9T2t7RENGXuupPM648r/WIskTnRfGJYhdzyl/buM8Lg40v+DCQHcl4wrk0Xk5ndOEzoyP9dydJ5oOkgIcPIQaXVvuzvvF6xVT98YVv/SMJW9HpFuqlUsK/sRwJ3JuLdfSVupnxWxJ61K35XOgpCbfUc04TPFYco7t07HshW5ixrTV4ZlbPJr7c4+iggfEbEgBLghGY/OEZGb3zhN7kjf1peDmSLm3aRgcXizdOaG2VHjpF1f/fjLsAAgkdROkiR6AgAbRay0TvS1VEK9XkRufuE0aXV6dTqLC0XaxX5Y+1AAYNQgOd7d5s8TQHxnWEbhEz3apRKBsLvNiWBlMqEIfX2ZV81rSkem+0AeZotoVsYf68gh+INNV6qf9Kr+A+XlS8MyRGnrznQCoLDnBfEzrYGGrvm/n9SRfiSdg4+ZH9mciMMa8W/yIOW0zTPwgDkR3RfFt4Z18LYd7XEA/JCoZTO2PARz0QlePNdIJM2NTaGqqj2dLdCpIvE6kktDFPXhzcEPd7WEfi0qRzt4+daw+mdZnZkTIQC/BUChdi8fWXhjRzyRcmGqFV+zY0D4DeOiVTRYKmlP54s0RNTcjcskRg2RFve0KmtE5WgXL18bVr9p9WjnEMHPEUC2S/RqcYjgRdClC5Ntkaer7cvtj63ApFty7yhQ6TeFMkRF1cn4Az1piPyj266MflxUjnby8r1hGWK3prSFiCD2v15E+3XCT6ZaFeOcL/6pU4Epq/vGZHL4UFkHoU5deGtawxvxlUCTcsammZipM2VPdGfDOlTG1m7tDgT4rOhVJcDZyXh0o+g8ReY3ZXX62nSWbtbJ+HRY3J8mBWFwQ+C93Ymw8VkZ/4BgJxg4WZFZvRQJ6dmfAsC/OcmjEmwC6k7G1UQlbbnNEQoQ4aRV2R+ls/oF4hy9d/QKKSGAE5vkGcm2qFhHfTs8oIT+F8Zubdo6aSjI2u9FusDi2BrQH4qI43tblL/arZMb8aatz56azuq/FPnh+mFdwwGAE5vlm3raoze4UWsrObNhvUVd4/ws1EuPAoj7IPbvlIn2I8iXdSYi37dykLg99uQ12qe1rL65rIv7YuWwxoH+W2+k7/S0K59xu+5W8GfDOoqqiZ7MZInwXisENzsmARi3INyytyF6vd8+hK1EyykdmS0HcjStkrZOtzGeqJ00WPrFqa9Gz122DHWn+YiIz4Z1jKq0pjJfQUT3TMkJHpFC0WkbZuIeEQea3ZymfouGFfq0X4p46N6xtDhxkLQbGqPv9/NO9oHGCRvWcRRq7c70IuCsgUQU5vdEb6AkLe5sid4hDCcHiExZoy3N5Ojr5TIFHYCvCXJ4M77eFMMPbrhCeammAD7pxIZ1nEIvW0bSyydpDwCiyz42pQchKLV2zYz+xSfjuD/NaevpVC2r/TBbJOFOlj1eHU5oRK05Jn+gc3bkz36qVy25smENoNr8dRTOKdlHEOHfaxHYqT4EkEGCL418MbrWD89DpnZkNvTlqVUnkJzSvBbcZhVLJzTAuZ1x9Ve19PdbHzasCire1klNEMgaxyu/o4LmQjUhot/qEPicVzcfTl2tnZsr6A/kSzBIKOErIGN80HxCg/zJVGvkoQqacxPeOFr5GLjyNm1UuQiPIcJJlfcSpyUh3LIvFv2Kl27ombwi/UBfgS524/5nNYIwolmakYzzxtBq/kp4hlWFWi09udMCpD8CAKOq6CZOU4K/IMG1na3KXeKQqp7J1FXa4kxB/3qpDOHqezvfQw0DDG/CealW9RvOs3EXAzasKusVT2VPkVF/DABHVNlVmObG6RRE8lWp1vDvhSFVAZGp64rn57P5O3MlOLGC5kI2OWRWV6Va1W8JSVBwUmxYNRSobWPudCiXf+Zm0wICHZBSUFL+q6sd36hBBtu6GHuqipq2U8uRq158vFUgJQwwognZrOoYOWxYNYrnCdMycifaT4g3Yim6vqsdizXKYU03ImlSh9aTLdLnyrq73v4dzayGN+Pc7oT6TWvE8kdUNqw66tzalTsTpfIud3wsffxEieB5kmhxqkXdUYckpnWdulZbks3pXy2UXPBN5wBZGw/YT2zGxV1xPjG03gHChlWngolk9lRJIuNYGnc+iH9L/kT0ewS8ZW9j9C7bv000ZlRrtK8W8/q8fBkb6iyNEN3VCNLwRpjLz6zMKQcblgk6tt2eHU0FMjaXnmJCOFFC7AaCjr2N0W6rt0KM6aVI817t1myBZhRd+ubvaEVriBpmhTO6Esq3RSmq23mwYZlUwZbuzMgA4I/duLn0eBIQ0OsI0nooRdZ1teN+k+TqDzNxJQ1F1LqzBRrvhqNfqsm9UUEa2oTTUy3Ktmr6cdvjK8CGZeIIufJ2GlYuaLsQ8SwTw4oSKksE3US4KtUafb4eUpPWZT5IRVinFfSPki72McW15NmsAAxtkKZ3JRRhL+utJS8R+rBhmVyFeIoGy5i9HwDONTm0MOEO3jKEG6Ec2VrprGvKamomXftqvkSXFUog7JVa9Yo8tBFhUBQmdSbUnfXG4v7/qgAblgWjYtoWkpv7sre54VKLutInyBPCTgDahCXle/+yLYJImro2u7BYKl+VLeLppIt+knrtahjzxBHNuDcWhrH8IXPtOg7Ukw1rIIXq+H1rSrsOEW6uI4RruhLQPiS8kyS4440Dkloql7+cL9A5JcGv0TJD4IBsnMGOT0ajOJbPszJD0WPHYMOyVl9o7c6NQ9K3AYJiMZQw4Z/fo0PZJwf8RoIAw5vxu+lm5VKr36YKU2AHibBh2SB+Ipl/H2L5Abee9FCtRH4xLOPewCEN8LVUQr2+Wo24fW0KsGHVplvVvYyH8RJmdyLAeVV3dlkHPxjWsEYsNCh4WTKubHdZeVxNlw3LxvKNeZgCZz6XXQMAc22EtR3Ky4YlHXy4vkeNBC7obAk/abu4Pgdkw3JgALR2Z2chURIQAg7AWw7pVcMyLjgdPkh6TJai47sT+KblQjLAvyjAhuXQoGjv1s7VibYj4nCHKFgG60XDaogYD9eldV1xZaFlwnHgARVgwxpQIusa9O+ML2qbEfDj1qHYH9lLhmX8gRjPq2KK1MLHGds/lt6KyIbldA2IsLU793kEutErS0SvGFbIWAI2S0/LQWlcT0vkOaeHCuO78fR+j1atrUc7B3Ta7oWztbxgWI0KwtCYtCGajSxavwDzHh12rkuLZ1gClWzOZhpUzmZvA4SJAtGqmoqbDUuSCIY1yplYmGZ0JdR7q06eO1iqABuWpfLWFvzQW8T1gBCrLYKzvdxoWAQATVGAoTH5h+UAtfS2KH91VkVGP5oCbFiCjou2zsyJFIDb3fhA3m2GFZQBhjXB35SANNftV6AJOpxNo8WGZZqU1gRqS2UThLQKAVxzZLBbDMs4YWGQitCkSkm5HLmm0qNyrKk0R61EATasSlRyuM3sHu3kIFEKAMc6TKUieDcYVjQEMLQRnwkF8Ypki/JoRYlxI8cVYMNyvASVE2hLadMIYQ0CjKy8l/0tRTYsWeo/DTTfEIEbnj49umrXBViyXyFGrFUBNqxalXOo31XfoFgxnP0qIMxDANkhGseFFdKwCKA5hsYScCdJdGVPXH1ZRO2Y0/EVYMNy6Qhp682/F/TSRgD8kGgpiGZY/cu/Bnw1HJSv6IpHHhRNL+ZTuQJsWJVrJWTL9qT2aR3hRkQ4UxSCohhWUCY4oUHOK1G8qYCRjo2zMSeKRsyjNgXYsGrTTahey5aR9Mro3OWk0zJAON1pck4blmy8/WtAalKgp4TKF3pb8HWnNWF8cxRgwzJHRyGiGOdtvf253BUS0Q2AMNopUk4ZlrFNwbhia5CKDwEEFqZaw085pQHjWqMAG5Y1ujoeta07M5cAv+jEG0W7Dct489ekSNCo4uOyhNcnWyI/dLwATMASBdiwLJFVjKDTtlCouU9rQcAvAsDJdrGyy7CMZ1SDVJnUMOwMyHQTX69lV4Wdw2HDck5725AN4xqU1uKk4xftuAjDasMybqppUqViQ4R6Syjfwke/2DaUHAdiw3K8BPYSMD6sBtKvRcSzrEK2yrDUSP8+qr5IkNZIQeXWDTNxj1U5cFwxFWDDErMulrNq686NBSgvteJzHzMNC5GgKSpBk4LPBYO0cm9M2cj3/1k+PIQFYMMStjT2EIun8u+RoXwdIMwwC9EMwzIufGhUJVBD+KgU0JenWtQdZvHjOO5VgA3LvbUzlfmsXmoO6dlZRNRW73KxVsMyjnlpiErQEIGXAzLdBrq8MdkWedrURDmYqxVgw3J1+awhn+jNfgx1akeCSwEhXC1KNYYVkABiEQQlguloiO6USLqjMx75KRhrQf5hBd6iABsWD4ljKmDMusKkTdcJLkHAiyqVaiDDMi53UMMAakTqiwToHl2C7bzkq1Rdf7djw/J3/SvO/rN3UKOSy14MCFMBYNzxDhQ8mmEZWxGMmZQawZeDMmwDwHv3NkQe2TodyxWT4Ia+V4ANy/dDoDYBEsncxZKkX0wAU9+6m77fsMoA0TBALGo8OKdnJAnukqTgPV0toV/Xhsi9WAG+5ovHgAkKJJL590mSPgGAJgDBOekCSNEg/FaWcRsibumcHfmzCTAcghUAnmHxIDBVgbZOGiqFcrENs6O7TQ3MwVgB4BkWDwJWgBVwkQL/HzbgGkpxXtJcAAAAAElFTkSuQmCC;" parent="VxR14Vq80_6-qc9pXVwi-202" vertex="1">
          <mxGeometry width="44" height="44" relative="1" as="geometry">
            <mxPoint x="15" y="16" as="offset" />
          </mxGeometry>
        </mxCell>
        <mxCell id="VxR14Vq80_6-qc9pXVwi-204" value="" style="edgeStyle=orthogonalEdgeStyle;fontSize=12;html=1;endArrow=blockThin;endFill=1;rounded=0;strokeWidth=2;endSize=4;startSize=4;dashed=0;strokeColor=#4284F3;exitX=0;exitY=0.5;exitDx=0;exitDy=0;entryX=1;entryY=0.5;entryDx=0;entryDy=0;" parent="2" source="VxR14Vq80_6-qc9pXVwi-200" target="VxR14Vq80_6-qc9pXVwi-202" edge="1">
          <mxGeometry width="100" relative="1" as="geometry">
            <mxPoint x="294.2028985507247" y="101.12903225806451" as="sourcePoint" />
            <mxPoint x="395.6521739130435" y="101.12903225806451" as="targetPoint" />
          </mxGeometry>
        </mxCell>
        <mxCell id="VxR14Vq80_6-qc9pXVwi-205" value="" style="strokeColor=#dddddd;shadow=1;strokeWidth=1;rounded=1;absoluteArcSize=1;arcSize=2;" parent="2" vertex="1">
          <mxGeometry x="508.98637681159425" y="272.1290322580645" width="172.46376811594203" height="55.16129032258064" as="geometry" />
        </mxCell>
        <mxCell id="VxR14Vq80_6-qc9pXVwi-206" value="&lt;font color=&quot;#000000&quot;&gt;Message Queue&lt;/font&gt;&lt;br&gt;Pub/Sub" style="editableCssRules=.*;html=1;fontColor=#999999;shape=image;verticalLabelPosition=middle;labelBackgroundColor=#ffffff;verticalAlign=middle;labelPosition=right;align=left;spacingLeft=20;part=1;points=[];imageAspect=0;image=data:image/svg+xml,PHN2ZyB4bWxucz0iaHR0cDovL3d3dy53My5vcmcvMjAwMC9zdmciIHhtbG5zOnY9Imh0dHBzOi8vdmVjdGEuaW8vbmFubyIgd2lkdGg9IjE4LjMxOTk5OTY5NDgyNDIyIiBoZWlnaHQ9IjIwLjAwMDAwMTkwNzM0ODYzMyIgdmlld0JveD0iMCAwIDE4LjMxOTk5OTY5NDgyNDIyIDIwLjAwMDAwMTkwNzM0ODYzMyI+JiN4YTsJPHN0eWxlIHR5cGU9InRleHQvY3NzIj4mI3hhOwkuc3Qwe2ZpbGw6IzY2OWRmNjt9JiN4YTsJLnN0MXtmaWxsOiM0Mjg1ZjQ7fSYjeGE7CS5zdDJ7ZmlsbDojYWVjYmZhO30mI3hhOwk8L3N0eWxlPiYjeGE7CTxkZWZzPiYjeGE7CQk8ZmlsdGVyIGlkPSJBIiB4PSI0LjY0IiB5PSI0LjE5IiB3aWR0aD0iMTQuNzMiIGhlaWdodD0iMTIuNzYiIGZpbHRlclVuaXRzPSJ1c2VyU3BhY2VPblVzZSIgY29sb3ItaW50ZXJwb2xhdGlvbi1maWx0ZXJzPSJzUkdCIj4mI3hhOwkJCTxmZUZsb29kIGZsb29kLWNvbG9yPSIjZmZmIi8+JiN4YTsJCQk8ZmVCbGVuZCBpbj0iU291cmNlR3JhcGhpYyIvPiYjeGE7CQk8L2ZpbHRlcj4mI3hhOwkJPG1hc2sgaWQ9IkIiIHg9IjQuNjQiIHk9IjQuMTkiIHdpZHRoPSIxNC43MyIgaGVpZ2h0PSIxMi43NiIgbWFza1VuaXRzPSJ1c2VyU3BhY2VPblVzZSI+JiN4YTsJCQk8Y2lyY2xlIGN4PSIxMiIgY3k9IjEyLjIzIiByPSIzLjU4IiBmaWx0ZXI9InVybCgjQSkiLz4mI3hhOwkJPC9tYXNrPiYjeGE7CTwvZGVmcz4mI3hhOwk8ZyBjbGFzcz0ic3QwIj4mI3hhOwkJPGNpcmNsZSBjeD0iMTYuMTMiIGN5PSI2LjIxIiByPSIxLjcyIi8+JiN4YTsJCTxjaXJjbGUgY3g9IjIuMTkiIGN5PSI2LjIxIiByPSIxLjcyIi8+JiN4YTsJCTxjaXJjbGUgY3g9IjkuMTYiIGN5PSIxOC4yOCIgcj0iMS43MiIvPiYjeGE7CTwvZz4mI3hhOwk8ZyBtYXNrPSJ1cmwoI0IpIiB0cmFuc2Zvcm09InRyYW5zbGF0ZSgtMi44NCAtMikiPiYjeGE7CQk8cGF0aCB0cmFuc2Zvcm09Im1hdHJpeCguNSAtLjg3IC44NyAuNSAtNC41OSAyMC41MykiIGQ9Ik0xNC42OSAxMC4yMmgxLjU5djguMDRoLTEuNTl6IiBjbGFzcz0ic3QxIi8+JiN4YTsJCTxwYXRoIHRyYW5zZm9ybT0icm90YXRlKDMzMCA4LjUyMyAxNC4yNDQpIiBkPSJNNC40OSAxMy40NWg4LjA0djEuNTlINC40OXoiIGNsYXNzPSJzdDEiLz4mI3hhOwkJPHBhdGggZD0iTTExLjIgNC4xOWgxLjU5djguMDRIMTEuMnoiIGNsYXNzPSJzdDEiLz4mI3hhOwk8L2c+JiN4YTsJPGcgY2xhc3M9InN0MiI+JiN4YTsJCTxjaXJjbGUgY3g9IjkuMTYiIGN5PSIxMC4yMyIgcj0iMi43OCIvPiYjeGE7CQk8Y2lyY2xlIGN4PSIyLjE5IiBjeT0iMTQuMjUiIHI9IjIuMTkiLz4mI3hhOwkJPGNpcmNsZSBjeD0iMTYuMTMiIGN5PSIxNC4yNSIgcj0iMi4xOSIvPiYjeGE7CQk8Y2lyY2xlIGN4PSI5LjE2IiBjeT0iMi4xOSIgcj0iMi4xOSIvPiYjeGE7CTwvZz4mI3hhOzwvc3ZnPg==;" parent="VxR14Vq80_6-qc9pXVwi-205" vertex="1">
          <mxGeometry width="27" height="30" relative="1" as="geometry">
            <mxPoint x="16" y="15" as="offset" />
          </mxGeometry>
        </mxCell>
        <mxCell id="VxR14Vq80_6-qc9pXVwi-223" value="" style="strokeColor=#dddddd;shadow=1;strokeWidth=1;rounded=1;absoluteArcSize=1;arcSize=2;" parent="2" vertex="1">
          <mxGeometry x="540.7" y="7.998387096774195" width="142.75" height="55.16129032258064" as="geometry" />
        </mxCell>
        <mxCell id="VxR14Vq80_6-qc9pXVwi-224" value="&lt;font color=&quot;#000000&quot;&gt;Event Sync&lt;/font&gt;&lt;br&gt;Pub/Sub" style="editableCssRules=.*;html=1;fontColor=#999999;shape=image;verticalLabelPosition=middle;labelBackgroundColor=#ffffff;verticalAlign=middle;labelPosition=right;align=left;spacingLeft=20;part=1;points=[];imageAspect=0;image=data:image/svg+xml,PHN2ZyB4bWxucz0iaHR0cDovL3d3dy53My5vcmcvMjAwMC9zdmciIHhtbG5zOnY9Imh0dHBzOi8vdmVjdGEuaW8vbmFubyIgd2lkdGg9IjE4LjMxOTk5OTY5NDgyNDIyIiBoZWlnaHQ9IjIwLjAwMDAwMTkwNzM0ODYzMyIgdmlld0JveD0iMCAwIDE4LjMxOTk5OTY5NDgyNDIyIDIwLjAwMDAwMTkwNzM0ODYzMyI+JiN4YTsJPHN0eWxlIHR5cGU9InRleHQvY3NzIj4mI3hhOwkuc3Qwe2ZpbGw6IzY2OWRmNjt9JiN4YTsJLnN0MXtmaWxsOiM0Mjg1ZjQ7fSYjeGE7CS5zdDJ7ZmlsbDojYWVjYmZhO30mI3hhOwk8L3N0eWxlPiYjeGE7CTxkZWZzPiYjeGE7CQk8ZmlsdGVyIGlkPSJBIiB4PSI0LjY0IiB5PSI0LjE5IiB3aWR0aD0iMTQuNzMiIGhlaWdodD0iMTIuNzYiIGZpbHRlclVuaXRzPSJ1c2VyU3BhY2VPblVzZSIgY29sb3ItaW50ZXJwb2xhdGlvbi1maWx0ZXJzPSJzUkdCIj4mI3hhOwkJCTxmZUZsb29kIGZsb29kLWNvbG9yPSIjZmZmIi8+JiN4YTsJCQk8ZmVCbGVuZCBpbj0iU291cmNlR3JhcGhpYyIvPiYjeGE7CQk8L2ZpbHRlcj4mI3hhOwkJPG1hc2sgaWQ9IkIiIHg9IjQuNjQiIHk9IjQuMTkiIHdpZHRoPSIxNC43MyIgaGVpZ2h0PSIxMi43NiIgbWFza1VuaXRzPSJ1c2VyU3BhY2VPblVzZSI+JiN4YTsJCQk8Y2lyY2xlIGN4PSIxMiIgY3k9IjEyLjIzIiByPSIzLjU4IiBmaWx0ZXI9InVybCgjQSkiLz4mI3hhOwkJPC9tYXNrPiYjeGE7CTwvZGVmcz4mI3hhOwk8ZyBjbGFzcz0ic3QwIj4mI3hhOwkJPGNpcmNsZSBjeD0iMTYuMTMiIGN5PSI2LjIxIiByPSIxLjcyIi8+JiN4YTsJCTxjaXJjbGUgY3g9IjIuMTkiIGN5PSI2LjIxIiByPSIxLjcyIi8+JiN4YTsJCTxjaXJjbGUgY3g9IjkuMTYiIGN5PSIxOC4yOCIgcj0iMS43MiIvPiYjeGE7CTwvZz4mI3hhOwk8ZyBtYXNrPSJ1cmwoI0IpIiB0cmFuc2Zvcm09InRyYW5zbGF0ZSgtMi44NCAtMikiPiYjeGE7CQk8cGF0aCB0cmFuc2Zvcm09Im1hdHJpeCguNSAtLjg3IC44NyAuNSAtNC41OSAyMC41MykiIGQ9Ik0xNC42OSAxMC4yMmgxLjU5djguMDRoLTEuNTl6IiBjbGFzcz0ic3QxIi8+JiN4YTsJCTxwYXRoIHRyYW5zZm9ybT0icm90YXRlKDMzMCA4LjUyMyAxNC4yNDQpIiBkPSJNNC40OSAxMy40NWg4LjA0djEuNTlINC40OXoiIGNsYXNzPSJzdDEiLz4mI3hhOwkJPHBhdGggZD0iTTExLjIgNC4xOWgxLjU5djguMDRIMTEuMnoiIGNsYXNzPSJzdDEiLz4mI3hhOwk8L2c+JiN4YTsJPGcgY2xhc3M9InN0MiI+JiN4YTsJCTxjaXJjbGUgY3g9IjkuMTYiIGN5PSIxMC4yMyIgcj0iMi43OCIvPiYjeGE7CQk8Y2lyY2xlIGN4PSIyLjE5IiBjeT0iMTQuMjUiIHI9IjIuMTkiLz4mI3hhOwkJPGNpcmNsZSBjeD0iMTYuMTMiIGN5PSIxNC4yNSIgcj0iMi4xOSIvPiYjeGE7CQk8Y2lyY2xlIGN4PSI5LjE2IiBjeT0iMi4xOSIgcj0iMi4xOSIvPiYjeGE7CTwvZz4mI3hhOzwvc3ZnPg==;" parent="VxR14Vq80_6-qc9pXVwi-223" vertex="1">
          <mxGeometry width="27" height="30" relative="1" as="geometry">
            <mxPoint x="16" y="15" as="offset" />
          </mxGeometry>
        </mxCell>
        <mxCell id="VxR14Vq80_6-qc9pXVwi-225" value="" style="shape=mxgraph.gcp2.doubleRect;strokeColor=#dddddd;shadow=1;strokeWidth=1;rounded=1;absoluteArcSize=1;arcSize=2;" parent="2" vertex="1">
          <mxGeometry x="260.7200000000001" y="209.61290322580643" width="154.00000000000003" height="62.516129032258064" as="geometry" />
        </mxCell>
        <mxCell id="VxR14Vq80_6-qc9pXVwi-226" value="&lt;font color=&quot;#000000&quot;&gt;Menu service&lt;/font&gt;&lt;br&gt;Cloud Run" style="editableCssRules=.*;html=1;fontColor=#999999;shape=image;verticalLabelPosition=middle;labelBackgroundColor=#ffffff;verticalAlign=middle;labelPosition=right;align=left;spacingLeft=20;part=1;points=[];imageAspect=0;image=data:image/svg+xml,PHN2ZyB4bWxucz0iaHR0cDovL3d3dy53My5vcmcvMjAwMC9zdmciIHhtbG5zOnY9Imh0dHBzOi8vdmVjdGEuaW8vbmFubyIgd2lkdGg9IjM2NS40NjQ5OTY3NzA0MjQ5MyIgaGVpZ2h0PSIzNzkuMjIyOTk0NDYzNTc3OTUiIHZpZXdCb3g9IjAgMCA5Ni42OTU5OTkxNDU1MDc4MSAxMDAuMzM1OTk4NTM1MTU2MjUiPiYjeGE7PHN0eWxlIHR5cGU9InRleHQvY3NzIj4mI3hhOwkuc3Qwe2ZpbGw6IzQyODVmNDt9JiN4YTsJLnN0MXtmaWxsOiNhZWNiZmE7fSYjeGE7PC9zdHlsZT4mI3hhOwk8cGF0aCBjbGFzcz0ic3QwIiBkPSJNMjkuNzk0IDEwMC4zMzZMNDYuOTIgNTAuMTY4aDQ5Ljc3NnpNMCA5OS42NzFsMTIuOTc2LTQ5LjUwMkgyOS4yMkwxNi44OTcgOTIuMDU0eiIvPiYjeGE7CTxwYXRoIGNsYXNzPSJzdDEiIGQ9Ik0yOS43OTQgMEw0Ni45MiA1MC4xNjhoNDkuNzc2ek0wIC42NjZsMTIuOTc2IDQ5LjUwMkgyOS4yMkwxNi44OTcgOC4yODN6Ii8+JiN4YTs8L3N2Zz4=;" parent="VxR14Vq80_6-qc9pXVwi-225" vertex="1">
          <mxGeometry width="30" height="30" relative="1" as="geometry">
            <mxPoint x="15" y="15" as="offset" />
          </mxGeometry>
        </mxCell>
        <mxCell id="VxR14Vq80_6-qc9pXVwi-227" value="" style="shape=mxgraph.gcp2.doubleRect;strokeColor=#dddddd;shadow=1;strokeWidth=1;rounded=1;absoluteArcSize=1;arcSize=2;" parent="2" vertex="1">
          <mxGeometry x="230.00463768115944" y="330.00354838709677" width="187.47826086956525" height="62.516129032258064" as="geometry" />
        </mxCell>
        <mxCell id="VxR14Vq80_6-qc9pXVwi-228" value="&lt;font color=&quot;#000000&quot;&gt;Order Service&lt;/font&gt;&lt;br&gt;Cloud Functions" style="editableCssRules=.*;html=1;fontColor=#999999;shape=image;verticalLabelPosition=middle;labelBackgroundColor=#ffffff;verticalAlign=middle;labelPosition=right;align=left;spacingLeft=20;part=1;points=[];imageAspect=0;image=data:image/svg+xml,PHN2ZyB4bWxucz0iaHR0cDovL3d3dy53My5vcmcvMjAwMC9zdmciIHhtbG5zOnY9Imh0dHBzOi8vdmVjdGEuaW8vbmFubyIgd2lkdGg9IjIwIiBoZWlnaHQ9IjE5Ljk4OTk5OTc3MTExODE2NCIgdmlld0JveD0iMCAwIDIwIDE5Ljk4OTk5OTc3MTExODE2NCI+JiN4YTsJPHN0eWxlIHR5cGU9InRleHQvY3NzIj4mI3hhOwkuc3Qwe2ZpbGw6IzQyODVmNDt9JiN4YTsJLnN0MXtmaWxsOiM2NjlkZjY7fSYjeGE7CS5zdDJ7ZmlsbDojYWVjYmZhO30mI3hhOwk8L3N0eWxlPiYjeGE7CTxwYXRoIGNsYXNzPSJzdDEiIGQ9Ik0zIDMuOTlMMCA2LjQydjcuMTNsMyAyLjQ0eiIvPiYjeGE7CTxwYXRoIGNsYXNzPSJzdDAiIGQ9Ik0zIDMuOTlsLTMgNCAzLTJ6bS0zIDhsMyA0di0yeiIvPiYjeGE7CTxwYXRoIGNsYXNzPSJzdDIiIGQ9Ik0wIDE1Ljk5bDQgNCAyLTItNi02em0uMDEtOEw1Ljk5IDJsLTItMkwwIDMuOTl6Ii8+JiN4YTsJPHBhdGggY2xhc3M9InN0MSIgZD0iTTE3IDE2bDMtMi40MlY2LjQ0TDE3IDR6Ii8+JiN4YTsJPHBhdGggY2xhc3M9InN0MCIgZD0iTTE3IDE2bDMtNC0zIDJ6bTMtOGwtMy00djJ6Ii8+JiN4YTsJPGcgY2xhc3M9InN0MiI+JiN4YTsJCTxwYXRoIGQ9Ik0yMCA0bC00LTQtMiAyIDYgNnptLS4wMSA4bC01Ljk4IDUuOTkgMiAyTDIwIDE2eiIvPiYjeGE7CQk8Y2lyY2xlIGN4PSI2IiBjeT0iOS45OSIgcj0iMSIvPiYjeGE7CQk8Y2lyY2xlIGN4PSIxMCIgY3k9IjkuOTkiIHI9IjEiLz4mI3hhOwkJPGNpcmNsZSBjeD0iMTMuOTkiIGN5PSI5Ljk5IiByPSIxIi8+JiN4YTsJPC9nPiYjeGE7PC9zdmc+;" parent="VxR14Vq80_6-qc9pXVwi-227" vertex="1">
          <mxGeometry width="30" height="24" relative="1" as="geometry">
            <mxPoint x="15" y="18" as="offset" />
          </mxGeometry>
        </mxCell>
        <mxCell id="VxR14Vq80_6-qc9pXVwi-230" value="" style="shape=mxgraph.gcp2.doubleRect;strokeColor=#dddddd;shadow=1;strokeWidth=1;rounded=1;absoluteArcSize=1;arcSize=2;" parent="2" vertex="1">
          <mxGeometry x="501.4778260869566" y="349.3548387096774" width="187.47826086956525" height="62.516129032258064" as="geometry" />
        </mxCell>
        <mxCell id="VxR14Vq80_6-qc9pXVwi-231" value="&lt;font color=&quot;#000000&quot;&gt;Mail Service&lt;/font&gt;&lt;br&gt;Cloud Functions" style="editableCssRules=.*;html=1;fontColor=#999999;shape=image;verticalLabelPosition=middle;labelBackgroundColor=#ffffff;verticalAlign=middle;labelPosition=right;align=left;spacingLeft=20;part=1;points=[];imageAspect=0;image=data:image/svg+xml,PHN2ZyB4bWxucz0iaHR0cDovL3d3dy53My5vcmcvMjAwMC9zdmciIHhtbG5zOnY9Imh0dHBzOi8vdmVjdGEuaW8vbmFubyIgd2lkdGg9IjIwIiBoZWlnaHQ9IjE5Ljk4OTk5OTc3MTExODE2NCIgdmlld0JveD0iMCAwIDIwIDE5Ljk4OTk5OTc3MTExODE2NCI+JiN4YTsJPHN0eWxlIHR5cGU9InRleHQvY3NzIj4mI3hhOwkuc3Qwe2ZpbGw6IzQyODVmNDt9JiN4YTsJLnN0MXtmaWxsOiM2NjlkZjY7fSYjeGE7CS5zdDJ7ZmlsbDojYWVjYmZhO30mI3hhOwk8L3N0eWxlPiYjeGE7CTxwYXRoIGNsYXNzPSJzdDEiIGQ9Ik0zIDMuOTlMMCA2LjQydjcuMTNsMyAyLjQ0eiIvPiYjeGE7CTxwYXRoIGNsYXNzPSJzdDAiIGQ9Ik0zIDMuOTlsLTMgNCAzLTJ6bS0zIDhsMyA0di0yeiIvPiYjeGE7CTxwYXRoIGNsYXNzPSJzdDIiIGQ9Ik0wIDE1Ljk5bDQgNCAyLTItNi02em0uMDEtOEw1Ljk5IDJsLTItMkwwIDMuOTl6Ii8+JiN4YTsJPHBhdGggY2xhc3M9InN0MSIgZD0iTTE3IDE2bDMtMi40MlY2LjQ0TDE3IDR6Ii8+JiN4YTsJPHBhdGggY2xhc3M9InN0MCIgZD0iTTE3IDE2bDMtNC0zIDJ6bTMtOGwtMy00djJ6Ii8+JiN4YTsJPGcgY2xhc3M9InN0MiI+JiN4YTsJCTxwYXRoIGQ9Ik0yMCA0bC00LTQtMiAyIDYgNnptLS4wMSA4bC01Ljk4IDUuOTkgMiAyTDIwIDE2eiIvPiYjeGE7CQk8Y2lyY2xlIGN4PSI2IiBjeT0iOS45OSIgcj0iMSIvPiYjeGE7CQk8Y2lyY2xlIGN4PSIxMCIgY3k9IjkuOTkiIHI9IjEiLz4mI3hhOwkJPGNpcmNsZSBjeD0iMTMuOTkiIGN5PSI5Ljk5IiByPSIxIi8+JiN4YTsJPC9nPiYjeGE7PC9zdmc+;" parent="VxR14Vq80_6-qc9pXVwi-230" vertex="1">
          <mxGeometry width="30" height="24" relative="1" as="geometry">
            <mxPoint x="15" y="18" as="offset" />
          </mxGeometry>
        </mxCell>
        <mxCell id="VxR14Vq80_6-qc9pXVwi-232" value="" style="shape=mxgraph.gcp2.doubleRect;strokeColor=#dddddd;shadow=1;strokeWidth=1;rounded=1;absoluteArcSize=1;arcSize=2;" parent="2" vertex="1">
          <mxGeometry x="9.998260869565218" y="330.00354838709677" width="179.56521739130437" height="62.516129032258064" as="geometry" />
        </mxCell>
        <mxCell id="VxR14Vq80_6-qc9pXVwi-233" value="&lt;font color=&quot;#000000&quot;&gt;Mock Payment&lt;/font&gt;&lt;br&gt;Cloud Run" style="editableCssRules=.*;html=1;fontColor=#999999;shape=image;verticalLabelPosition=middle;labelBackgroundColor=#ffffff;verticalAlign=middle;labelPosition=right;align=left;spacingLeft=20;part=1;points=[];imageAspect=0;image=data:image/svg+xml,PHN2ZyB4bWxucz0iaHR0cDovL3d3dy53My5vcmcvMjAwMC9zdmciIHhtbG5zOnY9Imh0dHBzOi8vdmVjdGEuaW8vbmFubyIgd2lkdGg9IjM2NS40NjQ5OTY3NzA0MjQ5MyIgaGVpZ2h0PSIzNzkuMjIyOTk0NDYzNTc3OTUiIHZpZXdCb3g9IjAgMCA5Ni42OTU5OTkxNDU1MDc4MSAxMDAuMzM1OTk4NTM1MTU2MjUiPiYjeGE7PHN0eWxlIHR5cGU9InRleHQvY3NzIj4mI3hhOwkuc3Qwe2ZpbGw6IzQyODVmNDt9JiN4YTsJLnN0MXtmaWxsOiNhZWNiZmE7fSYjeGE7PC9zdHlsZT4mI3hhOwk8cGF0aCBjbGFzcz0ic3QwIiBkPSJNMjkuNzk0IDEwMC4zMzZMNDYuOTIgNTAuMTY4aDQ5Ljc3NnpNMCA5OS42NzFsMTIuOTc2LTQ5LjUwMkgyOS4yMkwxNi44OTcgOTIuMDU0eiIvPiYjeGE7CTxwYXRoIGNsYXNzPSJzdDEiIGQ9Ik0yOS43OTQgMEw0Ni45MiA1MC4xNjhoNDkuNzc2ek0wIC42NjZsMTIuOTc2IDQ5LjUwMkgyOS4yMkwxNi44OTcgOC4yODN6Ii8+JiN4YTs8L3N2Zz4=;" parent="VxR14Vq80_6-qc9pXVwi-232" vertex="1">
          <mxGeometry width="30" height="30" relative="1" as="geometry">
            <mxPoint x="15" y="15" as="offset" />
          </mxGeometry>
        </mxCell>
        <mxCell id="VxR14Vq80_6-qc9pXVwi-239" value="" style="edgeStyle=orthogonalEdgeStyle;fontSize=12;html=1;endArrow=blockThin;endFill=1;rounded=0;strokeWidth=2;endSize=4;startSize=4;dashed=1;dashPattern=1 3;strokeColor=#4284F3;exitX=0;exitY=0.5;exitDx=0;exitDy=0;entryX=1;entryY=0.5;entryDx=0;entryDy=0;" parent="2" source="VxR14Vq80_6-qc9pXVwi-227" target="VxR14Vq80_6-qc9pXVwi-232" edge="1">
          <mxGeometry width="100" relative="1" as="geometry">
            <mxPoint x="294.2028985507247" y="248.2258064516129" as="sourcePoint" />
            <mxPoint x="395.6521739130435" y="248.2258064516129" as="targetPoint" />
          </mxGeometry>
        </mxCell>
        <mxCell id="VxR14Vq80_6-qc9pXVwi-240" value="" style="edgeStyle=orthogonalEdgeStyle;fontSize=12;html=1;endArrow=blockThin;endFill=1;rounded=0;strokeWidth=2;endSize=4;startSize=4;dashed=1;dashPattern=1 3;strokeColor=#4284F3;exitX=1;exitY=0.5;exitDx=0;exitDy=0;entryX=0;entryY=0.5;entryDx=0;entryDy=0;" parent="2" source="VxR14Vq80_6-qc9pXVwi-227" target="VxR14Vq80_6-qc9pXVwi-205" edge="1">
          <mxGeometry width="100" relative="1" as="geometry">
            <mxPoint x="294.2028985507247" y="248.2258064516129" as="sourcePoint" />
            <mxPoint x="395.6521739130435" y="248.2258064516129" as="targetPoint" />
          </mxGeometry>
        </mxCell>
        <mxCell id="VxR14Vq80_6-qc9pXVwi-241" value="" style="edgeStyle=orthogonalEdgeStyle;fontSize=12;html=1;endArrow=blockThin;endFill=1;rounded=0;strokeWidth=2;endSize=4;startSize=4;dashed=1;dashPattern=1 3;strokeColor=#4284F3;exitX=0.5;exitY=1;exitDx=0;exitDy=0;entryX=0.5;entryY=0;entryDx=0;entryDy=0;" parent="2" source="VxR14Vq80_6-qc9pXVwi-205" target="VxR14Vq80_6-qc9pXVwi-230" edge="1">
          <mxGeometry width="100" relative="1" as="geometry">
            <mxPoint x="294.2028985507247" y="248.2258064516129" as="sourcePoint" />
            <mxPoint x="395.6521739130435" y="248.2258064516129" as="targetPoint" />
          </mxGeometry>
        </mxCell>
        <mxCell id="VxR14Vq80_6-qc9pXVwi-242" value="" style="edgeStyle=orthogonalEdgeStyle;fontSize=12;html=1;endArrow=blockThin;endFill=1;rounded=0;strokeWidth=2;endSize=4;startSize=4;dashed=0;strokeColor=#9E9E9E;exitX=0.5;exitY=0;exitDx=0;exitDy=0;entryX=0;entryY=0.5;entryDx=0;entryDy=0;" parent="2" source="VxR14Vq80_6-qc9pXVwi-200" target="VxR14Vq80_6-qc9pXVwi-223" edge="1">
          <mxGeometry width="100" relative="1" as="geometry">
            <mxPoint x="294.2028985507247" y="248.2258064516129" as="sourcePoint" />
            <mxPoint x="395.6521739130435" y="248.2258064516129" as="targetPoint" />
          </mxGeometry>
        </mxCell>
        <mxCell id="VxR14Vq80_6-qc9pXVwi-248" value="" style="strokeColor=#dddddd;shadow=1;strokeWidth=1;rounded=1;absoluteArcSize=1;arcSize=2;" parent="2" vertex="1">
          <mxGeometry x="559.7111594202898" y="73.54806451612902" width="121.73913043478262" height="55.16129032258064" as="geometry" />
        </mxCell>
        <mxCell id="VxR14Vq80_6-qc9pXVwi-249" value="Firestore" style="editableCssRules=.*;html=1;fontColor=#999999;shape=image;verticalLabelPosition=middle;labelBackgroundColor=#ffffff;verticalAlign=middle;labelPosition=right;align=left;spacingLeft=20;part=1;points=[];imageAspect=0;image=data:image/svg+xml,PHN2ZyB4bWxucz0iaHR0cDovL3d3dy53My5vcmcvMjAwMC9zdmciIHhtbG5zOnY9Imh0dHBzOi8vdmVjdGEuaW8vbmFubyIgd2lkdGg9IjMyMy45MDU2MTAzOTg2NzUxNSIgaGVpZ2h0PSIzNzYuNDIyMjk0OTYzNjg0MDciIHZpZXdCb3g9Ii0wLjA5NzAwMDAwMjg2MTAyMjk1IDAuMjg3OTk5OTg3NjAyMjMzOSA4NS42OTk5OTY5NDgyNDIxOSA5OS41OTUwMDEyMjA3MDMxMiI+JiN4YTs8c3R5bGUgdHlwZT0idGV4dC9jc3MiPiYjeGE7CS5zdDB7ZmlsbDojYWVjYmZhO30mI3hhOwkuc3Qxe2ZpbGw6IzY2OWRmNjt9JiN4YTsJLnN0MntmaWxsOiM0Mjg1ZjQ7fSYjeGE7PC9zdHlsZT4mI3hhOwk8cGF0aCBjbGFzcz0ic3QwIiBkPSJNLS4wOTcgNzUuODE1VjU1Ljg3NGw0Mi44NS0yMC4xODN2MTkuMDd6bTAtMzUuNDAzVjIwLjQ3MUw0Mi43NTMuMjg4djE5LjA3eiIvPiYjeGE7CTxwYXRoIGNsYXNzPSJzdDEiIGQ9Ik04NS42MDMgNzUuODE1VjU1Ljg3NGwtNDIuODUtMjAuMTgzdjE5LjA3em0wLTM1LjQwM1YyMC40NzFMNDIuNzUzLjI4OHYxOS4wN3oiLz4mI3hhOwk8cGF0aCBjbGFzcz0ic3QyIiBkPSJNNDIuNzUzIDgwLjMxNGwxNi4yMTctNy41MjUgMjEuMDg0IDkuNzE3LTM3LjMwMSAxNy4zNzd6Ii8+JiN4YTs8L3N2Zz4=;" parent="VxR14Vq80_6-qc9pXVwi-248" vertex="1">
          <mxGeometry width="26" height="30" relative="1" as="geometry">
            <mxPoint x="17" y="15" as="offset" />
          </mxGeometry>
        </mxCell>
        <mxCell id="StyOjbkptv3va4ijd22D-139" value="" style="strokeColor=#dddddd;shadow=1;strokeWidth=1;rounded=1;absoluteArcSize=1;arcSize=2;" parent="2" vertex="1">
          <mxGeometry x="141" y="128.70967741935485" width="110" height="55.16129032258064" as="geometry" />
        </mxCell>
        <mxCell id="StyOjbkptv3va4ijd22D-140" value="Cloud&#xa;CDN" style="editableCssRules=.*;html=1;fontColor=#999999;shape=image;verticalLabelPosition=middle;labelBackgroundColor=#ffffff;verticalAlign=middle;labelPosition=right;align=left;spacingLeft=20;part=1;points=[];imageAspect=0;image=data:image/svg+xml,PHN2ZyB4bWxucz0iaHR0cDovL3d3dy53My5vcmcvMjAwMC9zdmciIHhtbG5zOnY9Imh0dHBzOi8vdmVjdGEuaW8vbmFubyIgd2lkdGg9IjIwIiBoZWlnaHQ9IjIwIiB2aWV3Qm94PSIwIDAgMjAgMjAiPiYjeGE7CTxzdHlsZSB0eXBlPSJ0ZXh0L2NzcyI+JiN4YTsJLnN0MHtmaWxsOiM0Mjg1ZjQ7fSYjeGE7CS5zdDF7ZmlsbDojNjY5ZGY2O30mI3hhOwkuc3Qye2ZpbGw6I2FlY2JmYTt9JiN4YTsJPC9zdHlsZT4mI3hhOwk8cGF0aCBjbGFzcz0ic3QxIiBkPSJNMTMuMTMgNS42M1YzLjIxTDEwIDB2Mi40MXptMy43NSA3LjVMMjAgMTBoLTIuNWwtMy4xMiAzLjEzem0tMTMuNzUgMEwwIDEwaDIuNWwzLjEzIDMuMTN6bTEwIDEuMjV2Mi40MUwxMCAyMHYtMi40MXoiIGZpbGwtcnVsZT0iZXZlbm9kZCIvPiYjeGE7CTxwYXRoIGNsYXNzPSJzdDIiIGQ9Ik02Ljg4IDUuNjNMMTAgMi40MVYwTDYuODggMy4yMXpNMTcuNSAxMEgyMGwtMy4xMi0zLjEyaC0yLjV6bS0xNSAwSDBsMy4xMy0zLjEyaDIuNXptNC4zOCA0LjM4TDEwIDE3LjU5VjIwbC0zLjEyLTMuMjF6bTAtNy41aDYuMjV2Ni4yNUg2Ljg4eiIgZmlsbC1ydWxlPSJldmVub2RkIi8+JiN4YTsJPHBhdGggY2xhc3M9InN0MSIgZD0iTTYuODggMTMuMTNsNi4yNS02LjI1djYuMjV6IiBmaWxsLXJ1bGU9ImV2ZW5vZGQiLz4mI3hhOwk8cGF0aCBjbGFzcz0ic3QwIiBkPSJNMTAgMTBsMy4xMy0zLjEydjYuMjV6IiBmaWxsLXJ1bGU9ImV2ZW5vZGQiLz4mI3hhOzwvc3ZnPg==;" parent="StyOjbkptv3va4ijd22D-139" vertex="1">
          <mxGeometry width="30" height="30" relative="1" as="geometry">
            <mxPoint x="15" y="15" as="offset" />
          </mxGeometry>
        </mxCell>
        <mxCell id="StyOjbkptv3va4ijd22D-141" value="" style="strokeColor=#dddddd;shadow=1;strokeWidth=1;rounded=1;absoluteArcSize=1;arcSize=2;" parent="2" vertex="1">
          <mxGeometry x="285" y="128.70967741935485" width="130" height="55.16129032258064" as="geometry" />
        </mxCell>
        <mxCell id="StyOjbkptv3va4ijd22D-142" value="&lt;font color=&quot;#000000&quot;&gt;Web&lt;/font&gt;&lt;br&gt;Cloud Run" style="editableCssRules=.*;html=1;fontColor=#999999;shape=image;verticalLabelPosition=middle;labelBackgroundColor=#ffffff;verticalAlign=middle;labelPosition=right;align=left;spacingLeft=20;part=1;points=[];imageAspect=0;image=data:image/svg+xml,PHN2ZyB4bWxucz0iaHR0cDovL3d3dy53My5vcmcvMjAwMC9zdmciIHhtbG5zOnY9Imh0dHBzOi8vdmVjdGEuaW8vbmFubyIgd2lkdGg9IjM2NS40NjQ5OTY3NzA0MjQ5MyIgaGVpZ2h0PSIzNzkuMjIyOTk0NDYzNTc3OTUiIHZpZXdCb3g9IjAgMCA5Ni42OTU5OTkxNDU1MDc4MSAxMDAuMzM1OTk4NTM1MTU2MjUiPiYjeGE7PHN0eWxlIHR5cGU9InRleHQvY3NzIj4mI3hhOwkuc3Qwe2ZpbGw6IzQyODVmNDt9JiN4YTsJLnN0MXtmaWxsOiNhZWNiZmE7fSYjeGE7PC9zdHlsZT4mI3hhOwk8cGF0aCBjbGFzcz0ic3QwIiBkPSJNMjkuNzk0IDEwMC4zMzZMNDYuOTIgNTAuMTY4aDQ5Ljc3NnpNMCA5OS42NzFsMTIuOTc2LTQ5LjUwMkgyOS4yMkwxNi44OTcgOTIuMDU0eiIvPiYjeGE7CTxwYXRoIGNsYXNzPSJzdDEiIGQ9Ik0yOS43OTQgMEw0Ni45MiA1MC4xNjhoNDkuNzc2ek0wIC42NjZsMTIuOTc2IDQ5LjUwMkgyOS4yMkwxNi44OTcgOC4yODN6Ii8+JiN4YTs8L3N2Zz4=;" parent="StyOjbkptv3va4ijd22D-141" vertex="1">
          <mxGeometry width="30" height="30" relative="1" as="geometry">
            <mxPoint x="15" y="15" as="offset" />
          </mxGeometry>
        </mxCell>
        <mxCell id="StyOjbkptv3va4ijd22D-145" value="" style="edgeStyle=orthogonalEdgeStyle;fontSize=12;html=1;endArrow=blockThin;endFill=1;rounded=0;strokeWidth=2;endSize=4;startSize=4;dashed=0;strokeColor=#4284F3;exitX=0.544;exitY=0.055;exitDx=0;exitDy=0;exitPerimeter=0;entryX=0;entryY=0.5;entryDx=0;entryDy=0;" parent="2" source="VxR14Vq80_6-qc9pXVwi-196" target="StyOjbkptv3va4ijd22D-139" edge="1">
          <mxGeometry width="100" relative="1" as="geometry">
            <mxPoint x="130" y="193.06451612903226" as="sourcePoint" />
            <mxPoint x="230" y="193.06451612903226" as="targetPoint" />
          </mxGeometry>
        </mxCell>
        <mxCell id="StyOjbkptv3va4ijd22D-146" value="" style="edgeStyle=orthogonalEdgeStyle;fontSize=12;html=1;endArrow=blockThin;endFill=1;rounded=0;strokeWidth=2;endSize=4;startSize=4;dashed=0;strokeColor=#4284F3;exitX=1;exitY=0.5;exitDx=0;exitDy=0;entryX=0;entryY=0.5;entryDx=0;entryDy=0;" parent="2" source="StyOjbkptv3va4ijd22D-139" target="StyOjbkptv3va4ijd22D-141" edge="1">
          <mxGeometry width="100" relative="1" as="geometry">
            <mxPoint x="130" y="193.06451612903226" as="sourcePoint" />
            <mxPoint x="230" y="193.06451612903226" as="targetPoint" />
          </mxGeometry>
        </mxCell>
        <mxCell id="StyOjbkptv3va4ijd22D-147" value="" style="edgeStyle=orthogonalEdgeStyle;fontSize=12;html=1;endArrow=blockThin;endFill=1;rounded=0;strokeWidth=2;endSize=4;startSize=4;dashed=0;strokeColor=#4284F3;exitX=0.5;exitY=0;exitDx=0;exitDy=0;entryX=0.482;entryY=1.004;entryDx=0;entryDy=0;entryPerimeter=0;" parent="2" source="VxR14Vq80_6-qc9pXVwi-196" target="VxR14Vq80_6-qc9pXVwi-200" edge="1">
          <mxGeometry width="100" relative="1" as="geometry">
            <mxPoint x="120" y="202.25806451612902" as="sourcePoint" />
            <mxPoint x="220" y="202.25806451612902" as="targetPoint" />
            <Array as="points">
              <mxPoint x="117" y="120" />
              <mxPoint x="351" y="120" />
            </Array>
          </mxGeometry>
        </mxCell>
        <mxCell id="StyOjbkptv3va4ijd22D-148" value="" style="edgeStyle=orthogonalEdgeStyle;fontSize=12;html=1;endArrow=blockThin;endFill=1;rounded=0;strokeWidth=2;endSize=4;startSize=4;dashed=0;strokeColor=#4284F3;entryX=0;entryY=0.5;entryDx=0;entryDy=0;exitX=1;exitY=0.5;exitDx=0;exitDy=0;" parent="2" source="VxR14Vq80_6-qc9pXVwi-196" target="VxR14Vq80_6-qc9pXVwi-225" edge="1">
          <mxGeometry width="100" relative="1" as="geometry">
            <mxPoint x="190" y="239.03225806451613" as="sourcePoint" />
            <mxPoint x="220" y="202.25806451612902" as="targetPoint" />
          </mxGeometry>
        </mxCell>
        <mxCell id="StyOjbkptv3va4ijd22D-149" value="" style="edgeStyle=orthogonalEdgeStyle;fontSize=12;html=1;endArrow=blockThin;endFill=1;rounded=0;strokeWidth=2;endSize=4;startSize=4;dashed=0;strokeColor=#4284F3;exitX=1;exitY=0.5;exitDx=0;exitDy=0;entryX=0.5;entryY=0;entryDx=0;entryDy=0;" parent="2" source="VxR14Vq80_6-qc9pXVwi-196" target="VxR14Vq80_6-qc9pXVwi-227" edge="1">
          <mxGeometry width="100" relative="1" as="geometry">
            <mxPoint x="280" y="266.61290322580646" as="sourcePoint" />
            <mxPoint x="380" y="266.61290322580646" as="targetPoint" />
            <Array as="points">
              <mxPoint x="200" y="261" />
              <mxPoint x="200" y="285" />
              <mxPoint x="324" y="285" />
              <mxPoint x="324" y="330" />
            </Array>
          </mxGeometry>
        </mxCell>
        <mxCell id="TAQKrd1XatsUBQl1oVbd-141" value="" style="strokeColor=#dddddd;shadow=1;strokeWidth=1;rounded=1;absoluteArcSize=1;arcSize=2;" parent="2" vertex="1">
          <mxGeometry x="559.71" y="137.90322580645162" width="120" height="55.16129032258064" as="geometry" />
        </mxCell>
        <mxCell id="TAQKrd1XatsUBQl1oVbd-142" value="Cloud&#xa;Storage" style="editableCssRules=.*;html=1;fontColor=#999999;shape=image;verticalLabelPosition=middle;labelBackgroundColor=#ffffff;verticalAlign=middle;labelPosition=right;align=left;spacingLeft=20;part=1;points=[];imageAspect=0;image=data:image/svg+xml,PHN2ZyB4bWxucz0iaHR0cDovL3d3dy53My5vcmcvMjAwMC9zdmciIHhtbG5zOnY9Imh0dHBzOi8vdmVjdGEuaW8vbmFubyIgd2lkdGg9IjIwIiBoZWlnaHQ9IjE2IiB2aWV3Qm94PSIwIDAgMjAgMTYiPiYjeGE7CTxzdHlsZSB0eXBlPSJ0ZXh0L2NzcyI+JiN4YTsJLnN0MHtmaWxsOiM0Mjg1ZjQ7fSYjeGE7CS5zdDF7ZmlsbDojNjY5ZGY2O30mI3hhOwkuc3Qye2ZpbGw6I2FlY2JmYTt9JiN4YTsJLnN0M3tmaWxsOiNmZmY7fSYjeGE7CTwvc3R5bGU+JiN4YTsJPHBhdGggY2xhc3M9InN0MiIgZD0iTTAgMGgyMHY3SDB6Ii8+JiN4YTsJPHBhdGggY2xhc3M9InN0MSIgZD0iTTE4IDBoMnY3aC0yeiIvPiYjeGE7CTxwYXRoIGNsYXNzPSJzdDAiIGQ9Ik0xOCA3bDItN2gtMnoiLz4mI3hhOwk8cGF0aCBjbGFzcz0ic3QxIiBkPSJNMCAwaDJ2N0gweiIvPiYjeGE7CTxnIGNsYXNzPSJzdDMiPiYjeGE7CQk8cGF0aCBkPSJNNCAzaDZ2MUg0eiIvPiYjeGE7CQk8cmVjdCB4PSIxMyIgeT0iMiIgd2lkdGg9IjMiIGhlaWdodD0iMyIgcng9IjEuNSIvPiYjeGE7CTwvZz4mI3hhOwk8cGF0aCBjbGFzcz0ic3QyIiBkPSJNMCA5aDIwdjdIMHoiLz4mI3hhOwk8cGF0aCBjbGFzcz0ic3QxIiBkPSJNMTggOWgydjdoLTJ6Ii8+JiN4YTsJPHBhdGggY2xhc3M9InN0MCIgZD0iTTE4IDE2bDItN2gtMnoiLz4mI3hhOwk8cGF0aCBjbGFzcz0ic3QxIiBkPSJNMCA5aDJ2N0gweiIvPiYjeGE7CTxnIGNsYXNzPSJzdDMiPiYjeGE7CQk8cGF0aCBkPSJNNCAxMmg2djFINHoiLz4mI3hhOwkJPHJlY3QgeD0iMTMiIHk9IjExIiB3aWR0aD0iMyIgaGVpZ2h0PSIzIiByeD0iMS41Ii8+JiN4YTsJPC9nPiYjeGE7PC9zdmc+;" parent="TAQKrd1XatsUBQl1oVbd-141" vertex="1">
          <mxGeometry width="30" height="24" relative="1" as="geometry">
            <mxPoint x="15" y="18" as="offset" />
          </mxGeometry>
        </mxCell>
        <mxCell id="ANfDOpSylxRKEM2ptjQJ-139" value="CICD" style="sketch=0;points=[[0,0,0],[0.25,0,0],[0.5,0,0],[0.75,0,0],[1,0,0],[1,0.25,0],[1,0.5,0],[1,0.75,0],[1,1,0],[0.75,1,0],[0.5,1,0],[0.25,1,0],[0,1,0],[0,0.75,0],[0,0.5,0],[0,0.25,0]];rounded=1;absoluteArcSize=1;arcSize=2;html=1;strokeColor=none;gradientColor=none;shadow=0;dashed=0;fontSize=12;fontColor=#9E9E9E;align=left;verticalAlign=top;spacing=10;spacingTop=-4;whiteSpace=wrap;fillColor=#F3E5F5;" vertex="1" parent="2">
          <mxGeometry x="499.71" y="431.45" width="180" height="117.1" as="geometry" />
        </mxCell>
        <mxCell id="ANfDOpSylxRKEM2ptjQJ-142" value="" style="strokeColor=#dddddd;shadow=1;strokeWidth=1;rounded=1;absoluteArcSize=1;arcSize=2;" vertex="1" parent="2">
          <mxGeometry x="537" y="460" width="110" height="60" as="geometry" />
        </mxCell>
        <mxCell id="ANfDOpSylxRKEM2ptjQJ-143" value="Cloud&#xa;Build" style="editableCssRules=.*;html=1;fontColor=#999999;shape=image;verticalLabelPosition=middle;labelBackgroundColor=#ffffff;verticalAlign=middle;labelPosition=right;align=left;spacingLeft=20;part=1;points=[];imageAspect=0;image=data:image/svg+xml,PHN2ZyB4bWxucz0iaHR0cDovL3d3dy53My5vcmcvMjAwMC9zdmciIHhtbG5zOnY9Imh0dHBzOi8vdmVjdGEuaW8vbmFubyIgd2lkdGg9IjE3LjMyOTk5OTkyMzcwNjA1NSIgaGVpZ2h0PSIxOS42MTAwMDA2MTAzNTE1NjIiIHZpZXdCb3g9IjAgMCAxNy4zMjk5OTk5MjM3MDYwNTUgMTkuNjEwMDAwNjEwMzUxNTYyIj4mI3hhOwk8c3R5bGUgdHlwZT0idGV4dC9jc3MiPiYjeGE7CS5zdDB7ZmlsbDojNDI4NWY0O30mI3hhOwkuc3Qxe2ZpbGw6IzY2OWRmNjt9JiN4YTsJLnN0MntmaWxsOiNhZWNiZmE7fSYjeGE7CTwvc3R5bGU+JiN4YTsJPHBhdGggY2xhc3M9InN0MCIgZD0iTTEyLjE4IDcuOThMMTEgNy4yOWwtMy41MiA2LjEgMS4xOC42OCAzLjUyLTIuMDN6IiBmaWxsPSIjNDI4NWY0Ii8+JiN4YTsJPHBhdGggY2xhc3M9InN0MSIgZD0iTTYuMzIgMTIuNzJsMy41My02LjA5LTEuMTktLjY5LTMuNTIgMi4wNHY0LjA2eiIgZmlsbD0iIzY2OWRmNiIvPiYjeGE7CTxwYXRoIGNsYXNzPSJzdDIiIGQ9Ik0zLjc1IDcuOThMMCA1LjgxdjkuMmw3Ljk3IDQuNnYtNC4zM2wtNC4yMi0yLjQ0em05LjEzLTEuMmwzLjc2LTIuMTdMOC42NiAwIC42OCA0LjYxbDMuNzYgMi4xNyA0LjIyLTIuNDR6TTkuMzUgMTkuNjFsNy45OC00LjZ2LTkuMmwtMy43NiAyLjE3djQuODZsLTQuMjIgMi40NHoiIGZpbGw9IiNhZWNiZmEiLz4mI3hhOzwvc3ZnPg==;" vertex="1" parent="ANfDOpSylxRKEM2ptjQJ-142">
          <mxGeometry width="26" height="30" relative="1" as="geometry">
            <mxPoint x="17" y="15" as="offset" />
          </mxGeometry>
        </mxCell>
        <mxCell id="ANfDOpSylxRKEM2ptjQJ-154" value="" style="shape=mxgraph.gcp2.doubleRect;strokeColor=#dddddd;shadow=1;strokeWidth=1;rounded=1;absoluteArcSize=1;arcSize=2;" vertex="1" parent="2">
          <mxGeometry x="50.22000000000003" y="497.00290322580645" width="154.00000000000003" height="62.516129032258064" as="geometry" />
        </mxCell>
        <mxCell id="ANfDOpSylxRKEM2ptjQJ-155" value="&lt;font color=&quot;#000000&quot;&gt;Batch service&lt;/font&gt;&lt;br&gt;Cloud Run" style="editableCssRules=.*;html=1;fontColor=#999999;shape=image;verticalLabelPosition=middle;labelBackgroundColor=#ffffff;verticalAlign=middle;labelPosition=right;align=left;spacingLeft=20;part=1;points=[];imageAspect=0;image=data:image/svg+xml,PHN2ZyB4bWxucz0iaHR0cDovL3d3dy53My5vcmcvMjAwMC9zdmciIHhtbG5zOnY9Imh0dHBzOi8vdmVjdGEuaW8vbmFubyIgd2lkdGg9IjM2NS40NjQ5OTY3NzA0MjQ5MyIgaGVpZ2h0PSIzNzkuMjIyOTk0NDYzNTc3OTUiIHZpZXdCb3g9IjAgMCA5Ni42OTU5OTkxNDU1MDc4MSAxMDAuMzM1OTk4NTM1MTU2MjUiPiYjeGE7PHN0eWxlIHR5cGU9InRleHQvY3NzIj4mI3hhOwkuc3Qwe2ZpbGw6IzQyODVmNDt9JiN4YTsJLnN0MXtmaWxsOiNhZWNiZmE7fSYjeGE7PC9zdHlsZT4mI3hhOwk8cGF0aCBjbGFzcz0ic3QwIiBkPSJNMjkuNzk0IDEwMC4zMzZMNDYuOTIgNTAuMTY4aDQ5Ljc3NnpNMCA5OS42NzFsMTIuOTc2LTQ5LjUwMkgyOS4yMkwxNi44OTcgOTIuMDU0eiIvPiYjeGE7CTxwYXRoIGNsYXNzPSJzdDEiIGQ9Ik0yOS43OTQgMEw0Ni45MiA1MC4xNjhoNDkuNzc2ek0wIC42NjZsMTIuOTc2IDQ5LjUwMkgyOS4yMkwxNi44OTcgOC4yODN6Ii8+JiN4YTs8L3N2Zz4=;" vertex="1" parent="ANfDOpSylxRKEM2ptjQJ-154">
          <mxGeometry width="30" height="30" relative="1" as="geometry">
            <mxPoint x="15" y="15" as="offset" />
          </mxGeometry>
        </mxCell>
        <mxCell id="ANfDOpSylxRKEM2ptjQJ-157" value="" style="edgeStyle=orthogonalEdgeStyle;fontSize=12;html=1;endArrow=blockThin;endFill=1;rounded=0;strokeWidth=2;endSize=4;startSize=4;dashed=0;strokeColor=#4284F3;exitX=0.5;exitY=1;exitDx=0;exitDy=0;entryX=0.25;entryY=1;entryDx=0;entryDy=0;" edge="1" parent="2" source="ANfDOpSylxRKEM2ptjQJ-154" target="2">
          <mxGeometry width="100" relative="1" as="geometry">
            <mxPoint y="330" as="sourcePoint" />
            <mxPoint x="100" y="330" as="targetPoint" />
            <Array as="points">
              <mxPoint x="127" y="590" />
              <mxPoint x="175" y="590" />
            </Array>
          </mxGeometry>
        </mxCell>
        <mxCell id="VxR14Vq80_6-qc9pXVwi-245" value="" style="strokeColor=#dddddd;shadow=1;strokeWidth=1;rounded=1;absoluteArcSize=1;arcSize=2;" parent="2" vertex="1">
          <mxGeometry x="578.2611594202899" y="205.6141935483871" width="101.44927536231884" height="55.16129032258064" as="geometry" />
        </mxCell>
        <mxCell id="VxR14Vq80_6-qc9pXVwi-246" value="Cloud&#xa;SQL" style="editableCssRules=.*;html=1;fontColor=#999999;shape=image;verticalLabelPosition=middle;labelBackgroundColor=#ffffff;verticalAlign=middle;labelPosition=right;align=left;spacingLeft=20;part=1;points=[];imageAspect=0;image=data:image/svg+xml,PHN2ZyB4bWxucz0iaHR0cDovL3d3dy53My5vcmcvMjAwMC9zdmciIHhtbG5zOnY9Imh0dHBzOi8vdmVjdGEuaW8vbmFubyIgd2lkdGg9IjE0LjY1OTk5OTg0NzQxMjExIiBoZWlnaHQ9IjIwIiB2aWV3Qm94PSIwIDAgMTQuNjU5OTk5ODQ3NDEyMTEgMjAiPiYjeGE7CTxzdHlsZSB0eXBlPSJ0ZXh0L2NzcyI+JiN4YTsJLnN0MHtmaWxsOiM0Mjg1ZjQ7fSYjeGE7CS5zdDF7ZmlsbDojNjY5ZGY2O30mI3hhOwkuc3Qye2ZpbGw6I2FlY2JmYTt9JiN4YTsJPC9zdHlsZT4mI3hhOwk8c3R5bGU+JiN4YTsJCS5Ee2ZpbGwtcnVsZTpldmVub2RkfSYjeGE7CTwvc3R5bGU+JiN4YTsJPHBhdGggZD0iTTcuMzMgMTUuMzV2LTMuMDFMMCA4LjQ0djMuMDF6bTAgNC42NXYtMy4wMUwwIDEzLjA5djMuMDF6IiBjbGFzcz0ic3QyIEQiLz4mI3hhOwk8cGF0aCBkPSJNMTQuNjYgOC40NGwtNy4zMyAzLjl2My4wMWw3LjMzLTMuOXptMCA0LjY1bC03LjMzIDMuOVYyMGw3LjMzLTMuOXoiIGNsYXNzPSJzdDEgRCIvPiYjeGE7CTxwYXRoIGQ9Ik03LjMzIDB2My4wMWw3LjMzIDMuOVYzLjl6IiBjbGFzcz0ic3QwIEQiLz4mI3hhOwk8cGF0aCBkPSJNMCA2LjkxbDcuMzMtMy45VjBMMCAzLjl6IiBjbGFzcz0iRCBzdDEiLz4mI3hhOwk8cGF0aCBkPSJNNy4zMyAxMC43OVY3Ljc3TDAgMy44N3YzLjAyeiIgY2xhc3M9IkQgc3QyIi8+JiN4YTsJPHBhdGggZD0iTTE0LjY2IDMuODdsLTcuMzMgMy45djMuMDJsNy4zMy0zLjl6IiBjbGFzcz0iRCBzdDEiLz4mI3hhOzwvc3ZnPg==;" parent="VxR14Vq80_6-qc9pXVwi-245" vertex="1">
          <mxGeometry width="22" height="30" relative="1" as="geometry">
            <mxPoint x="19" y="15" as="offset" />
          </mxGeometry>
        </mxCell>
        <mxCell id="ANfDOpSylxRKEM2ptjQJ-158" value="" style="edgeStyle=orthogonalEdgeStyle;fontSize=12;html=1;endArrow=blockThin;endFill=1;rounded=0;strokeWidth=2;endSize=4;startSize=4;dashed=0;strokeColor=#4284F3;exitX=1;exitY=0.5;exitDx=0;exitDy=0;entryX=0;entryY=0.5;entryDx=0;entryDy=0;" edge="1" parent="2" source="VxR14Vq80_6-qc9pXVwi-227" target="VxR14Vq80_6-qc9pXVwi-245">
          <mxGeometry width="100" relative="1" as="geometry">
            <mxPoint x="740" y="280" as="sourcePoint" />
            <mxPoint x="840" y="280" as="targetPoint" />
            <Array as="points">
              <mxPoint x="450" y="361" />
              <mxPoint x="450" y="233" />
            </Array>
          </mxGeometry>
        </mxCell>
        <mxCell id="ANfDOpSylxRKEM2ptjQJ-160" value="" style="edgeStyle=orthogonalEdgeStyle;fontSize=12;html=1;endArrow=blockThin;endFill=1;rounded=0;strokeWidth=2;endSize=4;startSize=4;dashed=0;strokeColor=#4284F3;exitX=1;exitY=0.5;exitDx=0;exitDy=0;entryX=0;entryY=0.5;entryDx=0;entryDy=0;" edge="1" parent="2" source="VxR14Vq80_6-qc9pXVwi-225" target="VxR14Vq80_6-qc9pXVwi-248">
          <mxGeometry width="100" relative="1" as="geometry">
            <mxPoint x="370" y="180" as="sourcePoint" />
            <mxPoint x="470" y="180" as="targetPoint" />
            <Array as="points">
              <mxPoint x="430" y="241" />
              <mxPoint x="430" y="180" />
              <mxPoint x="500" y="180" />
              <mxPoint x="500" y="101" />
            </Array>
          </mxGeometry>
        </mxCell>
        <mxCell id="ANfDOpSylxRKEM2ptjQJ-161" value="" style="edgeStyle=orthogonalEdgeStyle;fontSize=12;html=1;endArrow=blockThin;endFill=1;rounded=0;strokeWidth=2;endSize=4;startSize=4;dashed=0;strokeColor=#4284F3;exitX=1;exitY=0.5;exitDx=0;exitDy=0;entryX=0;entryY=0.5;entryDx=0;entryDy=0;" edge="1" parent="2" source="VxR14Vq80_6-qc9pXVwi-225" target="TAQKrd1XatsUBQl1oVbd-141">
          <mxGeometry width="100" relative="1" as="geometry">
            <mxPoint x="370" y="180" as="sourcePoint" />
            <mxPoint x="470" y="180" as="targetPoint" />
            <Array as="points">
              <mxPoint x="430" y="241" />
              <mxPoint x="430" y="180" />
              <mxPoint x="500" y="180" />
              <mxPoint x="500" y="165" />
            </Array>
          </mxGeometry>
        </mxCell>
        <mxCell id="ANfDOpSylxRKEM2ptjQJ-162" value="" style="edgeStyle=orthogonalEdgeStyle;fontSize=12;html=1;endArrow=blockThin;endFill=1;rounded=0;strokeWidth=2;endSize=4;startSize=4;dashed=0;strokeColor=#4284F3;exitX=0.962;exitY=0.438;exitDx=0;exitDy=0;exitPerimeter=0;entryX=0;entryY=0.5;entryDx=0;entryDy=0;" edge="1" parent="2" source="VxR14Vq80_6-qc9pXVwi-200" target="VxR14Vq80_6-qc9pXVwi-248">
          <mxGeometry width="100" relative="1" as="geometry">
            <mxPoint x="410" y="140" as="sourcePoint" />
            <mxPoint x="510" y="140" as="targetPoint" />
            <Array as="points">
              <mxPoint x="500" y="72" />
              <mxPoint x="500" y="101" />
            </Array>
          </mxGeometry>
        </mxCell>
        <mxCell id="9" value="Architecture:&amp;nbsp;Meal Order" style="fillColor=#4DA1F5;strokeColor=none;shadow=1;gradientColor=none;fontSize=14;align=left;spacingLeft=50;fontColor=#ffffff;html=1;" parent="1" vertex="1">
          <mxGeometry x="110" y="20" width="940" height="40" as="geometry" />
        </mxCell>
        <mxCell id="127" value="Line Bot&lt;br&gt;&lt;span style=&quot;font-size: 10px;&quot;&gt;User Message Callback&lt;/span&gt;" style="rounded=1;absoluteArcSize=1;arcSize=2;html=1;strokeColor=none;gradientColor=none;shadow=0;dashed=0;fontSize=12;fontColor=#9E9E9E;align=left;verticalAlign=top;spacing=10;spacingTop=-4;fillColor=#E1F5FE;" parent="1" vertex="1">
          <mxGeometry x="130" y="470" width="170" height="130" as="geometry" />
        </mxCell>
        <mxCell id="128" value="Desktop&lt;br&gt;&lt;span style=&quot;font-size: 10px;&quot;&gt;Store Manager&lt;/span&gt;" style="rounded=1;absoluteArcSize=1;arcSize=2;html=1;strokeColor=none;gradientColor=none;shadow=0;dashed=0;fontSize=12;fontColor=#9E9E9E;align=left;verticalAlign=top;spacing=10;spacingTop=-4;fillColor=#FFF8E1;" parent="1" vertex="1">
          <mxGeometry x="130" y="170" width="170" height="130" as="geometry" />
        </mxCell>
        <mxCell id="129" value="Mobile Devices&lt;br&gt;&lt;span style=&quot;font-size: 10px;&quot;&gt;Customers&lt;/span&gt;" style="rounded=1;absoluteArcSize=1;arcSize=2;html=1;strokeColor=none;gradientColor=none;shadow=0;dashed=0;fontSize=12;fontColor=#9E9E9E;align=left;verticalAlign=top;spacing=10;spacingTop=-4;fillColor=#F1F8E9;" parent="1" vertex="1">
          <mxGeometry x="130" y="310" width="170" height="140" as="geometry" />
        </mxCell>
        <mxCell id="130" value="" style="strokeColor=#dddddd;fillColor=#ffffff;shadow=1;strokeWidth=1;rounded=1;absoluteArcSize=1;arcSize=2;labelPosition=center;verticalLabelPosition=middle;align=center;verticalAlign=bottom;spacingLeft=0;fontColor=#999999;fontSize=12;whiteSpace=wrap;spacingBottom=2;html=1;" parent="1" vertex="1">
          <mxGeometry x="180" y="522" width="70" height="70" as="geometry" />
        </mxCell>
        <mxCell id="134" value="" style="strokeColor=#dddddd;fillColor=#ffffff;shadow=1;strokeWidth=1;rounded=1;absoluteArcSize=1;arcSize=2;labelPosition=center;verticalLabelPosition=middle;align=center;verticalAlign=bottom;spacingLeft=0;fontColor=#999999;fontSize=12;whiteSpace=wrap;spacingBottom=2;html=1;" parent="1" vertex="1">
          <mxGeometry x="180" y="220" width="70" height="70" as="geometry" />
        </mxCell>
        <mxCell id="138" value="" style="strokeColor=#dddddd;fillColor=#ffffff;shadow=1;strokeWidth=1;rounded=1;absoluteArcSize=1;arcSize=2;labelPosition=center;verticalLabelPosition=middle;align=center;verticalAlign=bottom;spacingLeft=0;fontColor=#999999;fontSize=12;whiteSpace=wrap;spacingBottom=2;html=1;" parent="1" vertex="1">
          <mxGeometry x="180" y="360" width="70" height="70" as="geometry" />
        </mxCell>
        <mxCell id="139" value="" style="dashed=0;connectable=0;html=1;fillColor=#757575;strokeColor=none;shape=mxgraph.gcp2.mobile_devices;part=1;" parent="138" vertex="1">
          <mxGeometry x="0.5" width="50" height="36.5" relative="1" as="geometry">
            <mxPoint x="-25" y="16.75" as="offset" />
          </mxGeometry>
        </mxCell>
        <mxCell id="VxR14Vq80_6-qc9pXVwi-163" value="" style="sketch=0;outlineConnect=0;fontColor=#232F3E;gradientColor=none;strokeColor=#232F3E;fillColor=#ffffff;dashed=0;verticalLabelPosition=bottom;verticalAlign=top;align=center;html=1;fontSize=12;fontStyle=0;aspect=fixed;shape=mxgraph.aws4.resourceIcon;resIcon=mxgraph.aws4.mobile_client;" parent="138" vertex="1">
          <mxGeometry x="5" y="5" width="60" height="60" as="geometry" />
        </mxCell>
        <mxCell id="VxR14Vq80_6-qc9pXVwi-173" value="" style="sketch=0;outlineConnect=0;gradientColor=none;fontColor=#545B64;strokeColor=none;fillColor=#879196;dashed=0;verticalLabelPosition=bottom;verticalAlign=top;align=center;html=1;fontSize=12;fontStyle=0;aspect=fixed;shape=mxgraph.aws4.illustration_desktop;pointerEvents=1" parent="1" vertex="1">
          <mxGeometry x="190" y="232.25" width="52.47" height="47.75" as="geometry" />
        </mxCell>
        <mxCell id="VxR14Vq80_6-qc9pXVwi-177" value="" style="shape=image;imageAspect=0;aspect=fixed;verticalLabelPosition=bottom;verticalAlign=top;image=data:image/jpeg,/9j/4AAQSkZJRgABAQAAAQABAAD/2wBDAAEBAQEBAQEBAQEBAQEBAQEBAQEBAQEBAQEBAQEBAQEBAQEBAQEBAQEBAQEBAQEBAQEBAQEBAQEBAQEBAQEBAQH/2wBDAQEBAQEBAQEBAQEBAQEBAQEBAQEBAQEBAQEBAQEBAQEBAQEBAQEBAQEBAQEBAQEBAQEBAQEBAQEBAQEBAQEBAQH/wAARCAQQBBADASIAAhEBAxEB/8QAHwABAAICAgMBAQAAAAAAAAAAAAkKCAsBBwIDBgUE/8QAURABAAEEAgADBAIMDAQEBAYDAAMBAgQFBgcIERIJEyExFLIKFSIyOEFRc3eBsbYjOWFxcniGkaG3wfAWNXXRFyW04SQmM1IYQkNGxfGCkuL/xAAeAQEAAgIDAQEBAAAAAAAAAAAACAkGBwQFCgECA//EAE4RAAEEAQMCAwMHBwoDBwMFAAABAgMEBQYHERIhCBMxCRRBIjZRdHa0tRUjMjQ4c7YWMzU3QkNhcYGyJFKDJVNydZGhsRdUYmSCpcHR/9oADAMBAAIRAxEAPwC/wAAAAAAAAAAAAAAAAAAAAAAAAAAAAAAAAAAAAAAAAAAAAAAAAAAAAAAAAAAAAAAAAAAAAAAAAAAAAAAAAAAAAAAAAAAAAAAAAAAAAAAAAAAAAAAAAAAAAAAAAAAAAAAAAAAAAAAAAAAAAAAAAAAAAAAAAAAAAAAAAAAAAAAAAAAAAAAAAAAAAAAAAAAAAAAAAAAAAAAAAAAAAAAAAAAAAAAAAAAAAAAAAAAAAAAAAAAAAAAAAAAAAAAAAAAAAAAAAAAAAAAAAAAAAAAAAAAAAAAAAAAAAAAAAAAAAAAAAAAAAAAAAAAAAAAAAAAAAAAAAAAAAAAAAAAAAAAAAAAAAAAAAAAAAAAAAAAAAAAAAAAAAAAAAAAAAAAAAAAAAAAAAAAAAAAAAAAAAAAAAAAAAAAAAAAAAAAAAAAAAAAAAAAAAAAAAAAAAAAAAAAAAAAAAAAAAAAAAAAAAAAAAAAAAAAAAAAAAAAAAAAAAAAAAAAAAAAAAAAAAAAAAAAAAAAAAAAAAAAAAAAAAAAAAAAAAAAAAAAAAAAAAAAAAAAAAAAAAAAAAAAAAAAAAAAAAAAAAAAAAAAAAAAAAAAAAAAAAAAAAAAAAAAAAAAAAAAAAAAAAAAAAAAAAAAAAAAAAAAAAAAAAAAAAAAAAAAAAAAAAAAAAAAAAAAAAAAAAAAAAAAAAAAAAAAAAAAAAAAAAAAAAAAAAAAAAAAAAAAAAAAAAAAAAAAAAAAAAAAAAAAAAAAAAAAAAAAAAAAAAAAAAAAAAAAAAAAAAAAAAAAAAAAAAAAAAAAAAAAAAAAAAAAAAAAAAAAAAAAAAAAAAAAAAAAAAAAAAAAAAAAAAAAAAAAAAAAAAAAAAAAAAAAAAAAAAAAAAAAAAAAAAAAAAAAAAAAAAAAAAAAAAAAAAAAAAAAAAAAAAAAAAAAAAAAAAAAAAAAAAAAAAAAAAAAAAAAAAAAAAAAAAAAAAAAAAAAAAAAAAAAAAAAAAAAAAAAAAAAAAAAAAAAAAAAAAAAAAAAAAAAAAAAAAAAAAAAAAAAAAAAAAAAAAAAAAAAAAAAAAAAAAAAAAAAAAAAAAAAAAAAAAAAAAAAAAAAAAAAAAAAAAAAAAAAAAAAAAAAAAAAAAAAAAAAAAAAAAAAAAAAAAAAAAAAAAAAAAAAAAAAAAAAAAAAAAAAAAAAAAAAAAAAAAAAAAAAAAAAAAAAAAAAAAAAAAAAAAAAAAAAAAAAAAAAAAAAAAAAAAAAAAAAAAAAAAAAAAAAAAAAAAAAAAAAAAAAAAAAAAAAAAAAAAAAAAAAAAAAAAAAAAAAAAAAAAAAAAAAAAAAAAAAAAAAAAAAAAAAAAAAAAAAAAAAAAAAAAAAAAAAAAAAAAAAAAAAAAAAAAAAAAAAAAAAAAAAAAAAAAAAAAAAAAAAAAAAAAAAAAAAAAAAAAAAAAAAAAAAAAAAAAAAAAAAAAAAAAAAAAAAAAAAAAAAAAAAAAAAAAAAAAAAAAAAAAAAAAAAAAAAAAAAAAAAAAAAAAAAAAAAAAAAAAAAAAAAAAAAAAAAAAAAAAAAAAAAAAAAAAAAAAAAAAAAAAAAAAAAAAAAAAAAAAAAAAAAAAAAAAAAAAAAAAAAAAAAAAAAAAAAAAAAAAAAAAAAAAAAAAAAAAAAAAAAAAAAAAAAAAAAAAAAAAAAAAAAAAAAAAAAAAAAAAAAAAAAAAAAAAAAAAAAAAAAAAAAAAAAAAAAAAAAAAAAAAAAByAAAAAAAAAAAAAAAAAAAAAAAAAAAAAAAAAAAAAAAAAAAAAAAAAAAAAAAAAAAAAAAAAAAAAAAAAAAAAAAAAAAAAAAAAAAAAAAAAAAAAAAAAAAAAAAAAAAAAAAAAAAAAAAAAAAAAAAAAAAAAAAAAAefl8a/CiNrx1+1X8IXgC0+TD21zqzkXZ8uFTJ0XSnAr8Pf9j7X38db8PI2Ou+lQYPEdNk+mt8e95ZnajCyYY8i3UV2mdHbgS5HpPR2q9eZ2jpjRmnstqfP5GRY6eKwtGe9cl446pFjgY/yoIkcjp7MzoYK8fMk0scaK44ORydDE1ZbuSuV6VWFOZJ7EjY2J9CJ1Ly5zl7NY1Fc5ezUVSSO++yO26+++2yy2la3XXVpbbbSlPOtbq1+FKUp8fOtaUQM+O/7II8HvhDztpwPraS/wAT/cWtvyMTN4113vcHE4DxvYwXVikweW9n/RtvrIc6GWyWLI1nFNXy3ZYOVBLh7rG08vouuqi+0B9uJ4vvHLXc8L1u4v6D6Fz6z41OqeuttmWZ/ItbLStnuOx+dWR6/c8utmjuvsytNhwcf4jkx1iplcby8rHszr4YVzHhv9lA+dlLVHiPyjomuSKeHbnTN7pkRFVj/L1HqOvy5q8KrJaOCc1WrwqZle8aRx1jvwvMlLR8CcIrmLl7kfKrx26qtR3onPdslj1T+5T1Wzhvfsp/xt5O8kyOOdFeGHU8drP6otTutN2lv9zbj+utfdSb/B7R41hSTe78rfpFvG4rPXSt9cb0193SRbwp/ZSPS3Ms3A414uOnN50xlz3xw3djdc5WX2Jwe26vlWTM3PGLsLE5voMOz7q2yLSR8/yr7qW1utjsuurFR5E39Vezg8JupMLNiKm3btK2lYiVs5prOZutlqsiJ0pMi38hkqVr/wDOO7RnhevdWco1zdZUN4NeUrSWX5lbrefl1rleCSB6du3DI4pGIvwWORqp/knC7dbpDxG9E+JTiUXOehu2ODdq8Xk91SXZcM5Bgbi7XTzWVktwd3gQS12Oh2dLaVrLqtziYOyg8rqT4sV1K0p3V5/7+Pl/f8moD6u7d7T6S5dhc96e7F5n1jzPW3U+i8l4NyTbcZ3FsfrslvxJMzU5WLJlYGRdZZTM12VWbAzIvOHLx5orro7rHvg++ydfEn1jXV8X8WvA9L4heKQ0hxpedcYs13AO18PHp9zfl5eLhYtnBOXXwx2WWwYNNTwzKyZLpJs/kM8lVYO93so929Ge95faHN0dzsHGj5mYa55GB1hBEiOd5bI5pVwuWVjWp+cgu46eZ7kbFQ59d3aa35wWQ6K+oasuGsr0otmLqtUHKvCdS9LfeIEVV9FZK1E9ZC9+I4vCD7V7wNeNaLWa3p/ufT67n+fHZ6+pOxPd8G7LhybrKSSYeFottNTE5VJj23W/ScrhGz5NrYbq0tvz/VS6lJHKXUup521pdT8tK0rT/BWLqjSGq9EZezgNZaczel83Ud02MXnsZbxdyP6H+Rbiic+J/rHNEskMrVR8cjmuRTduPyePytdlrG3at6u/9GarMyZnPHdFVirw5Pi13Dmr2ciL2OQGOnOAAAAAAAAAAAAAAAAAAAAAAAAAAAAAAAAAAAAAAAAAAAAAAAAAAAAAAAAAAAAAAAAAAAAAAAAAAAAAAAAAAAAAAAAAAAAAAAAAAAAAAAAAAAAAAAAAAAAAAAAAAAAAAAAAAAAAA4/H8/l86eX+v/Z8vzTm/DeuOL7rm3P+U8e4Tw/jeDLs9/yjlW41+g4/pdfD5e9zdpt9nPjYODjWedKXT5M8cdK3W0rd51o/pDDPZlir1oZbFieRkMEEEb5ZppZXNjjjiija98kj3ua1jGNc57lRrWqqoi/l72RsdJI9sbGIrnve5Gsa1E5VznOVEaiInKqqoiJ3U+pY7eJTxY+Hrwh8ByOyfEP2lxnrbjMdJ48Cm4y7pd5yPNgi99dquJ8ZwI8vkHKdvWPykrrdDrc/Kjh9WTNFHixyTWVs/aCfZMvCOG/bvrPwFcexexeSxVnwMnvnm+uzMbgGpntrWGWfg3D8imFuOY5MP8JXF3O/rpOPQ5UMOTj6zl2pnpW+np3h3/3T4lefbPs/vfsnlXaHOttddSfecp2N2XXFxqy3yx6zS66O2HU8f0uNfLJXC0OhwNdpsGl91uHgQWVras48NnsyN1N1Vx+pd132trNDzLFYbRs12O1zmKyuavTVxVhvlYKOVvPFrMsdaZy1zMRKxzXJpHWe9mEwfnUsAjM1kmcsWZruMbXcnZVdM3vac3/kgVGL35mTgsR+0F+yUO7O5vt31v4K9Vs+g+uJ6ZOvye1NzTCye5+S4l3nFdNpYseTN0nWmNkR3S22y6+be8rj8sfPwOR8cy6SYdlZDdbvd8l2+z5DyPb7TkG+3Wdk7PcbzdZ+XtdvttlmS3T5mw2ezz5cjNz87KnvvmycvKnlyJ5b7r5ZL7rrq1/LF8GzHh62m2DwbcJtrpKhh1fFEzI5qRiXNQ5mWNrfz+WzM7X3bTld1PbAkkVOur3Nq1YI/kkW9R6szuqrK2szfmsqiqsVdF6Ktdq/2YK7FSNnCcJz0ukdwnW9ygBuwxsAAAADzjkkhkjlikvikivtkjkjuuskjksupdZJHfbWl1l9l1KXW3W1pdS6lK0rStExXg/9ul4/fCT9q9D/AOJV3e/WmBWGGvX3d8mfy2/FwLLrbbsfj/OfpcHOtJWHGp7jWYkm82nHddSkVbeOTx2e5vhyGudxdpNtt2cQ/Cbi6L0/q3Hua9GMy+OgsWKrpERFmoXull7H2EREVtijarzNVEVH9k47fEZ7MYKwlrEZG3QmTjla8z2NfwvPTLGqrHK34dEjHt47cGwy8H32Rx4IPEL9q+N90T7Pwq9h5lIYJMfsHJs3PWGXmyUp6rdb2jrMTGwtdi2eV98uZzvScJw46UtjjyMiS6nnPlxzk3HeX6XW8j4pvdNyXj25xIs7Ubzj+zw9xp9phTU9UOXr9lr5sjDzMWW34xZGPNJFJT42X1o07bLTww+OnxZeDbd27jw6938z6/xb8q3L2HE4c2zc8A3kvnZSS7ecC38ey4lscmWKyuPTYzaim2xYpJPoOfiyXUlpVJvb7I3TmS98zGxGsp9OW1WSWLSGsnz5PCuVXKqVqOoII35fHxtThrPyhXzTnduudE5em9tMb/XoPLr6ooNuxJ0tW/RRsFpqcNRXy13L5Ey+qr5boPj29ENsYKfng9+yk9BsKarinja6cn49l19ziz9udKxzbPR3XVr7uubyDrXdZsu61kEdltJs7N41yTk0+TLJdTA4xixWWRLO/h38W/hs8WHGf+LvDx3LwXtPURxQy50XHNtH9vdHWelKxQcm4tn24fJuL5kltaVswuQ6nWZlba23UgrbdSqovd7w1b3bF23w7kaBzWIoJL5cOoa0P5V0zbVf5vyM9jksY9r5U7x1rUtS3xyrq6KioSA09rbTOqI2uxGVrzTKnK05XeRdZwiKqLWl6ZHcfF0aPZ2/S4MjAGjDKwAAAAAAAAAAAAAAAAAAAAAAAAAAAAAAAAAAAAAAAAAAAAAAAAAAAAAAAAAAAAAAAAAAAAAAAAAAAAAAAAAAAAAAAAAAAAAAAAAAAAAAAAAAAAAAAAAAAAAAAAAAAAHn5fGvwoAPC+SyO2t991tlttPOt11fK2lKfOta1+Hl/v8AHRHL45/an+ELwB6XIs7g57Fu+ypsGmXoOleB3YnIeytz76OsmHNmauzKgw+J6fKpS66Lfcuz9JrMqOOePWTbHOjswZKQftAvbl+L3xw3bvhOk20vh/6Dz65GL/4XdebfLt2/JdZL9xWHsbntkWv3HKLJ47pI8rSa3H49xLJgvsizuP7DIx7c++X/AIdPBHvb4i56uQwmGXSmhpJG+8a71PBYqYuSHq4kXCVOhlzUEyIj2s9ya2gkrPLs5Guq8prrWG52mtItkhnspfyiJwzGU3tfK168dPvMveOq3uiqki+Zx3bG4tV+0G9v/wCFDwf/AG64B1NkYniW72wa5ODNxzhe5gs674ds463Q3W837Dxos/AvzcKe2SzJ4zxWHebmLKxpdbu7+MySxZlKSfjQ9o14svHpyf7dd+9k5mbxjDzLszjPVfGKT8e6u4ldWl9sV2o4rDlZFufsYY5JIbeRclzN9ye+CS7Gl3V+LSPHjwZF/Xhy8DGynh3hqZPHYhNYa8iY1bGuNT161rIQzqxqSpgqSsdSwNdXdaR+5sffWJ3l2clYIo6w3N1Lq974p7C0MYq/IxlJzo4Vai9veJEVJLT+OOfMVI+eVZEz4AEzzXQAAAAAAAAAAAAAAfXcG7A531fybW82625pyrr/AJhppffanlXC+QbbjHItbLWtPO/B3Oly8LYY1b/KlL6Q5FtL7fub6XW/B8iOFkMdQy1Oxj8nRqZGjbifBap3q8NupYhlarJYpq9iOWKWN7FVr2SRua5qqioqKf0immgkZLBJJFJG5HMkje6N7XNXlHNcxWua5FROFaqKnqi8lknwffZLni86Wrq+MeJTj+i8T3B8asONJvci7F4L21gYltbYqX2cj0+vk41yX6Lj+cnud9xezc7Wey36by6C6STJWpfB97ZbwF+Mz7VaTg/bmH1/2Vs/cRWdT9w0xOB8zlzZ/hZr9JNl5uTxbmGZfWl9bMTh3I99mWxWVkycbG+TWIivTe72Zvh93T97ymlKFnajVE/mSJd0lHEun7FhyoqOvaVnVMc2NF5V35Ikw8rlVVc9/CIba0zvPqzBeXBclbnKLelFivuVbLWpwnEdxv57nj087z07enqpuPrbqXU86VtupX40rbXzpWn8/wAq/qrV5NYt4QPbO+PjwbV1el4h23ldl9a6+sMVOq+5/pvO+LQ4MXotswtDssrNx+YcSxooqSUxcLjPJdbp45ZPf5OqzK20sra68GX2SL4O+/pNVxLxBYWf4Vew8v3ONXO5Tm05F1Ds827ys88XsPCwcKbjlsvpvyJrub6Hj+m10V0ePTkexm/hLqft8PZ2+InZtLeTpYFu5Wk6/mSfl7REVi7dgrs618zJaaez8sVXNY3zJnU4spThbwrrnrxITTG8OkdRLHBPZXC338N92yLmshc9eE6YbicQu5VeGpJ5Ll+DSxePxOO8k49y7SazknFd7qOSce3WHDsNPvdBssPb6faYE9tL4M3W7LAlyMPNxJ7K0vhyMaWWGWyvqjvup8X7aCUkcsMj4po3xSxOdHLFKx0cscjHK17JGPRrmPY5HNcxzUcjkVqoioqG1Gva9qPY5r2uRFa5qo5rkVOUVFTlFRU7oqLwqAB+T9AAAAAAAAAAAAAAAAAAAAAAAAAAAAAAAAAAAAAAAAAAAAAAAAAAAAAAAAAAAAAAAAAAAAAAAAAAAAAAAAAAAAAAAAAAAAAAAAAAAAAAAAAAAAAAAAAAA8vnX8vz/UVp5/Cr5jmXNOI9e8Z3XM+d8o4/wziXHcGXZ77k/KNvgaLQaXXQUpWbO2m22c+NgYGLFStPXPlTxRW+dKVu+Kq17QX7Jj4Dwau86z8B2gxOzeUxVnwMrvXmmBm43XWnnsrWCWXhPFZvoG65rlQ3e9rjbjcXaLjceRFBl4uJzDVZFaV3Bs9sJutvxn2YDbPSWQzsjJI2ZHKujdU0/hmSLyk2XzUzW0qaIxXSMgWWS5Ya1yVas7+EXG9R6twOlaq2s1fircoqxVmqkluwqf2YKzV8x/K8IruEjbzy97U7lkfxIeKvw++EfgOV2X4hu0eMdacVg9/HhSbrLuk3G/zoIffXanivG8GPK5Bync3R+clNVx/W7DOpDS7Ivhtx45JbKaPtA/slTuXt/wC3XW/gm0+x6K68n+k6/J7a31mDldxcjxLvOK+bQYcd+do+t8XJjrLbZkY0u/5Xbb9FzsDdcYzrJMWyuv3r4he7fE1z7Y9n99dl8q7R5xsq3Wybrk+wuybcHFrJfNbq9Fq4LcfT8b0kEkkl+Lo+P6/WafErffXGwovXd59NL2/DX7MDbLbJMfqfd+WrujrWLy7DMVNA5uhsPYRY3o2HGTok2fmhejm+9ZjipJwj2YeJ6I8i3rPezN5zzaWBR+ExruWLKx/ORsMXty+dvCVmuT+7g+WnKoszk9P1d7v95ync7PkfJt1teRch3mbkbLc77e7HM2+52+xzJLpsvP2m02E2RnbDNypbrpcjLy55p55Lrr5JLrq1q/KBaLVq1qVaGpTrw1a1eJkMFevEyCCGKNqMjiiijYyOONjWo1rGMa1rURGoiIiGkpHvke6SRznve5XOe9Vc9zlXlXOcqq5yqvqqqq/4gByD8AAAAAAAAAAAAAAAAAAAAAAB8VEVFRURUXsqKnKL/mg5M2fCH7RLxeeBzeR7Hw+9vbzQ8fkzKZm3603l93Jer+Q3XX21ya7Thezlk1mPl5dttIZt7oq6XktkPnZibvHr91S4Z4Evsk3w197Xabgfiw1MHhl7LyqQYdvML8vI23SO/wA6/wBNnvbuQzW37fr2s8nrkrj8vjyuPa7Ht88nnM819kVaDQiFv94ItiPEFFbvZ/TUWm9YzMd5Gt9JxwYrN+d08RvycccPuOcjReEdHlK1iZGIrYLNdyo9NgaV3K1RpN0cdO661Qa5OvG3lfPW6eUVyQ8r5lZV794Htbz3cx3ou4r0m80vJdTrt9x3ba3e6Pb4WPsdVuNPm42y1eywMyK2fFztfn4ck2JmYmTDfZNBk48skM0d9skd91t1K1/VatbwOe1M8X/gE2+NH092BNuetL836Vu+led1y+Q9abW2Was2dJgau/KhzeIbXLuvrJNuuH52lzcvIsgrtvtriRVwr7wfs9PbjeEvx0003Btpsbeh/EBnUx8X/wAKOfbbE+g8n2V9lvvI+tea1iwNXzCskl3px9NlY2i5fL6J5I+NS4WPdnyUO+JHwA71eH733O1qT9w9va7nyJq3TdSZ9nG1kVyo/UWCati7i0YxOqa5At7FRtRHSXYFcjElLo3dnTmq/LqzSJiMu5ET3G3I3y5nrxylS1w2OXlV4bG/y5l9EY7jkmmHFK0rSlaVpWlflWnxpX+atHKC5tPkAAAAAAAAAAAAAAAAAAAAAAAAAAAAAAAAAAAAAAAAAAAAAAAAAAAAAAAAAAAAAAAAAAAAAAAAAAAAAAAAAAAAAAAAAAAAAAAAAAAAAAAAAAAOPOnw/l8/L9Xzc/Hy/l/L5OK18vj5+VPx/wD9/iR1eOX2pHhE8AWknu7k59FtexZ8L6Xx7pjg1cXkPZm995HdfizTaa3Kx8XjGoyvTdWLf8uztHqJ6RTRYGVm51lmHfkOltI6p1znKOmdHafy2pc/kpPLpYnC0Z792ZeU6neTXjerIYkVHz2JFjggjRZJpY40VxwshkqGKqyXclbr0qsScvnsytiYn+CK5U6nL6NY3lzl7IiqSK3XW2087q0tpT51r8KU/nqgb9oJ7ffwneDz7ecC6vy8XxK97YH0jBk4pwfc49vAuIbSKt8V9nOew8ePP11mXhZFklmVxvi8G/30GXjya7cx8dulszbKqvtA/bp+Lvxu13XCON7Sbw9dCbCuRiV616+3GXTf8o1cvnZ7rsTn8UWv2/IIp4qyRZei1EHHeKZOPLbj7LSbabHszr4TlzHhr9lFYmWhqvxHZNYYuYbMO22nbv55/dr0h1NqGsqoxqpyybH4J6O+P5ZT5caxw1nvx/PUdHxcfpMdmLcfrz26qdVyduF7tlsev/ceimdvjU9pF4tPHvyW7bd9dj5c/FMTNuzON9TcUpk8d6t4rWlbqQ367i8eVkV2myx7JJI7ORcozN/yT3U0mP8Abe3E93jR4JAuj0ZofSG3mBpaY0RpzEaXwOOibFVxeGowUarE6Wosj2wsas08it6pbE75bE8iukllkernEccjk7+WtSXcjbsXbUq8yTWJHyvVe/CIrlVGtRP0WNRrWp2a1E4ADLDggAAAAAAAAAAAAAAAAAAAAAAAAAAAAAAeVl98V9kkd90ckd1t8clla2X2SWVpdZfZdbWl1t9t1KXW3W1pW2tPOlaVpR4j8SRslY+KVjJI5GqySORqPY9jk4c17HIrXNci8K1UVFTsqH1FVqorVVFReUVFVFRU9FRU7opY19m/9kOd/wDheu0PV3ijrvfEX0Vi+41+LyDKzbMnujgGuspZHHXU7/Z5MUPPtRh2UvpboeYZsW2strDDreX4GvwYdRPeK8Nvil6G8XPW2s7Y8PnY+h7F4dsPRDkT6ua+Ha6HZ1hsnl0fKdBm2Y+74zvsaySy+bUbvBws2kMkOVHFJiZGNPNqQGSHhd8W/iB8GvZmD2t4eexNxwTkuPdjx7bCx5K5fGOX6qGW6S7Qcz41k1u1XJNNL6pfTj58F2RgTSfbDT5Wu2sONnwVd+Kj2aO3+7DMjrDaFuP253Ck8y1PjYofJ0XqawqK5zbdCsxfyFfsP7rksXD7s+Rz5LmNnkkWwzduhd5stp9YcfnVly+ITpjSV7urIU2Jw3mOZy/8RG1P7mZetEbwyVETpNtgIJ/Zf+3K6H8d0Ol6t7Lpquj/ABPSQRY//BGx2NbeHdk5cVn8Pl9W77PvpJPmTei7Kl4LuZaclwor5LdXkcqwtfn7mOdelaVp50r50/LR5+dxtstd7Sapv6M3D03kdM6hx7l66l6L81Zg6lbHdx1yPqqZGhP0qsN2lNNXk4VqPR7XMbLTC53FahoxZHEXIrlWVP0o3fLjfwiuimjXh8UreflMe1rvj3RUVeQGCHbAAAAAAAAAAAAAAAAAAAAAAAAAAAAAAAAAAAAAAAAAAAAAAAAAAAAAAAAAAAAAAAAAAAAAAAAAAAAAAAAAAAAAAAAAAAAAAAAAAAAAdG+IPxI9IeFbrbbdt9/di6DrfgenrSGTa7ueW7I2OwksllxtNx/UYcOVueSb7Msgmvw9Ho8HYbTKshnkgxL4oJr4+6MvKiw8bIy577I4ceGSaSSS6ltlscdvrvuuur8LbaW0rWta18vh51+HxUCvbAYPiK8evfOz7M43znB5N1lw2uTx3qTqDJlk4tDxrRUyosbJ3Gsk2GdNoNryDllcenIuTb3c5vHthbB9reN4kWbr9Fq4rNsbHaU2y11ujpnSW7G6GG2o0nlJJX29QZaRIpLXu7oeMVjJ5oZMfUv3XSsjjvZaSDH1Gdc0izysiqT6U3l3x0ds3Tw0eocvjKGZ1RNaq6dq5Ox7rXsS1GRPszzzqiMiggSaFvMskLZZZY4WyNc5VTtb2gn2St2/2z9uutvBFptj0fwCb6Tr8rt7kcOBl9vcixa+qK+fjettvz9F1zh5UdZbYsu2Tf8ALPdXYufg7LimxjkxY6wHIORb/lu72vJuVbzccm5Jvc6fZ7vkHINnm7nd7nY5V9ZcnYbTbbGfJz9hm5Ml10mRl5c8s819a3ySXXV8393KuF8u4NtZNJzHjW64xtrIrMiuButdl6/Ivxpa30hy4rMuGKs2Jkei+7Hy4feY+RbSt0MsltPU+Zeq7w/7H7G7QaUpx7NYbArQyFSCSfVlOzVzeW1E3oY5lu9qNr7MtxkiosscMFhlCDrVKtaJnCJFPO60zOs5W5DI5Rb8MieZVZXlauPZG9EVvuscLnQdCpxxIiyOend0r/iASCMeAAAAAAAAAAAAAAAAAAAAAAAAAAAAAAAAAAAAAAAA9+Nk5OFk4+Zh5E+JmYk8WTi5WNLJBk42TBJbLBkY88V1ksE8MtlkkUsd1skcltt9l1t1tKravsoPsiHecJk4z4fPH3vM7kvD61xdJxDxJZFs+fybjNtPRj4Wv7chhsly+TaS230Q289xo5uSYF1ls3KYOQQ5OZv9TUjGit+vDrtl4itJy6X3CwsdiWJkrsJqKm2KvqHTtyRqIlvE5Hy3yRormsWxTmSajdYxsdqtKiNVmT6W1dmtI323sRacxFc1LNR6udVtxp3WOeHqRHdlXpkTpkZzyxzfjuJ+O8i0HLdFqOT8V3Wq5HxvkGuw9vot9o8/F2um3Gq2EFmVgbLV7LBlnws/BzMaWPIxcvFmlgyIZLJopLo77bq/sVp5/wA346fla272VXtnO5PZ7b/X9e8xu3Ha3hX2uz95vOt58y2be8Avzp635/Jeqc3Pmjh12RWWW/P2fDsvIg41yKeuTfZfodznz8gpsK+gPEJ0/wCKHqzjPc3RvN9Rz7r7leL7/XbnVSXUkxsmOltudp9xrsi2LYaTfaqe6uLttJtcbE2WuybbocrGju8vPzL+KHwj7keGDUvumoIH53RWTsSN0zrqhVlZjMixOpzKORZzKmJzccSdU1CeV7Jka+ajYtQtkWKaehtwcPrakjqzkq5SFjVu4yV6ebGvCI6WBVRvn11cvZ7U5ZyjZGtVU57nARUM+AAAAAAAAAAAAAAAAAAAAAAAAAAAAAAAAAAAAAAAAAAAAAAAAAAAAAAAAAAAAAAAAAAAAAAAAAAAAAAAAAAAAAAAAAAAAAAAAAAOg/E/ssvT+Hbu7Z4Mt0GZgdUc+zMWay6tt8WRjcYzpYZba0+NLrL7aXW1/FXyqp33fCtf6Edf11tsrWv+Nf71wLxZ/gzd9/oe7G/dPYft+Sn7f86/m4/qRtDbyKvvmB4Vf1a52T6feKvfj159O6L9CFIntXpX/wAtNpY1c7y26X1BIjefkpIuYosV7W/Byta1qu4+Cd+OyfOco4jxfnGnl0HL+Pafk2nlrJf9r91gYuxxoMiTHlxfpuJbkxSVwthHBNLHjbLCvgz8Wt9b8bJhv8rqYBdqezp4Nv7snZdTcgyeD7G+kskXHd5XL3vFrpLvo0eNjY2zu9/yXTYsVtuTPk5OZXl+RkTSRxwwY0VvlSRxz+Tz+P8AN8K/s/7st2N8XfiH8Ot+GztbuXqDD4+OZJZtNXbUmX0td7or2WcDkn2KKJIjel8lRtCx3VfeFdwqVu6J3d3A2/lYunNQ3IajXI6TFW3LdxUvdFcjqVlXxMV3HCyV/Il7r0yJ6lb/ALS8OfcHT1883MeH51mjiltjj5VqfLc8amtmyZ8fDrJtsCksGunz6wXS4ut3NNbuKw1jkl10PqpR0d/f/wD5UrbX+6v+/L4rWXnT03Ur8rrb47raU8vVZJbWOSy6vl91ZfZddZfbXzpfbdW27zpWtGI/angq6O7LsyszD0NOv+Ry2X1h3HC7Idfg1yLcW3GxPp/F6x/aCfDhvt+k5Mepx9Ds9hNdJdkbj1SVuXl+Hf25Glst7jgvEfoaxpi67yYJNbaJZNksI96+Wx1nIaesyflSixV5klXH2MlG3l3TF0oiEztB+MjA5DyKevsRLhLK9LHZfEI+5jXO4RFkmpPVbtVOe6+TJcThezU4IBRm12p4Du6OBXZWdxbEh7Q0Fl9/uZuMR32cjihrk2Y+LTM4jNWTZTZmVSSk92NxyXk0GJDbJflZsVtvmwsycXKwp5cXMx5sXJx5ZIJ4MmKSGaGeK6tksUsUltl8ckd9t1t9l1tt9t1K0utpWnkuv2q302j3uw0ee2s3A0zrTHvjjfImHydea7TWTu2LIY1748jQmTuixXKkD+UVE6uOVlzp7VOm9V0WZHTWax2ZqO4VZKNmKZYlVEcjJ4Uck9eTv8qKxDE9Pi1UPQA20d8AAAAAAAAAAAAAAAAAAAAAAAAAAAAAAAAAAAAABId7O72k3ffs6O1o+ZdabCTkXXXIMzDs7S6c3GdPFxPnmqgupHdkQ+mzIpx3mGBjVvpoOXYOLLlYMnlibLF3GimztNmx4jENdaE0luXpbL6L1vg6OodN5yq+pkMbfhSSN7XJyyaF/aWtbrSoyepcrSQ2atiOOevNHIxrk5+Myl7DXq+RxtmSpcrSJJFPE5WuRUVFVqp+i9j0RWvY5Fa9qq1zXNU2xvgz8aXRXjq6Z03dHRfJbdpqsr3eDyfi+w9xi8v4Bya2CybO4pzHTxz5FddtMSl9L4J4psjWbfCuh2mlz9hq8nHy5cs2qH8D3jl7z8A3dOr7i6V3l1lt9cbX874Hs58i7h/ZPFo5/e5HHeTYMV3l67KXzS6Xd49lNrx7Pkrma+alkuZi5myi8CPjw6P9oB0lrO4OnNrWHLg9xrewOvtrkY3/ABd1vyq6GsuRoeQYsNaWyY81LZMnRb3Gt+1u/wBdT6XiXRzxZ2FheZXxn+CbVHhlzrtQYJL2o9oszdWPD590fm3NP2JnKsOC1I6JiMZL36KGTRsdfJNb0ObBcRYJJqbb7mUtZ1Up3Fip6grRos9blGx3GNREWzURzlVeV7ywcq6JV5Tqj7pmsAggbVAAAAAAAAAAAAAAAAAAAAAAAAAAAAAAAAAAAAAAAAAAAAAAAAAAAAAAAAAAAAAAAAAAAAAAAAAAAAAAAAAAAAAAAAAAAAAAAAx08Wf4M3ff6Huxf3T2Cn9f86/m4/qRrgPiz/Bm77/Q92L+6ewU/r/nX83H9SNoTeb9d0/9UvfeapSD7V358bS/ZXUP41SPWA00VKgAAdXdldJ9Wdu43u+fcM1O6y6Q2wY+9rZfg8ixLIYMiLEjg3+tuxNvdh4V2RfkQavIysjT1yKWX5Gvn9Ppr2i58/l5f7/w/wC7LtF6/wBb7c5qpqLQWrNQaQzlKRH18np/K3cVajVHNXhX07EKSxuVqJJBOyeCRqdMkL29k7nB6hzmm7seRwGXyGIuxqitsY+1NVk9UXpcsT2pIxeEVzJGvY7jhzFIkO1fZw7nD+k7Pp3ldm7xbLZZIeK8vuxtdufTHHj2w4mDyTGgg0Wzy8qe7Kluv2mFxPCw4bIo78vJkrdfWPHm/XPOettrdpedcW3PGNh/DXQR7PBmhizoYMiTFvzNZl0tuw9rr7siGWOPY6zIy8Gatl10GRJb5XVs+1r8fj8a/D4/i/u8n5e70ek5NrZ9LyTTajkWnyr4ZMjU7vW4W11k8sF110Es2BsMfIxJJse66t+NLdDWTHkr7yK6y/yupcL4d/bXb3aBShg97sFQ3b0/D5cEmcqrBp/WkEKdDPMfYhi/I+Xlaz5a+906M0rk72OVVVlpoPxiaoxKwUtcYyDUtJvQx2SppHj8wxqcIrnta33G4qJ34dFWe9UXql5d1JVi+P8Av/seaartP2eXWfJ7cjY9abTP683NY7pItVPdk8i4rkyRYt1sUFLc7IrvtTfmZvplzNjbtN1j40d18eFoaW0sspG52t4Wu5+n/peZyPis2045iXS1/wCMeM3X7vj30eyeHFty8yfHhszdFDlTzxxYkfJMDS5WVdd5QQSUXr+H32hPhe8RsVOrpDcKhg9U2Uja7ResnRac1Ck71YiwVY7szaWUXqXpauMu2nP45SL4JM/Q+9O3O4LImYLUFaLIyIirhsorMflGv47sjhnejLSt4Xlak1hOEV3CcGPA5rStK+VaVpX8laeVXCbjXte1r2Oa9jkRWuaqOa5F9Fa5OUVF+CovBtQAP0AAAAAAAAAAAAAAAAAAAAAAAAAAAAAAAAADL/wReNrurwF95aLu3pjb+mbHui1vNeFbDIybeK9jcRvnslz+LcmxIL6eqKSlK5Gq2kcd2foNrZjbTX3UkivhnxAGO6s0np3XOnMvpPVmIpZ3T2dpTY/KYvIQtmrWqs7VY9jmuRel7eUfFKxWywytZLE9kjGvTl0b9vG3K9+jYkq26srZYJ4nKx0b2L1IqKnHKKicOb3a5vLVRU5Q2vvgf8bXS/j16L0Hd3TW3pfBk0s1nNOHZ8sP/FHXXMYcaKXacT5PiRV/gsrF97ZPr9hFb9r95qpsPbaySXDy460zDarD2efj/wC4PZ498avtrrfJl3HFNrdh6jtfrHKzJcbQdkcPjnuvlwMrypNHr+Ramk+Tm8R5LHjzZWi2UkkckWdpNjvNPtdmh4YfEz1H4vOluGd8dJ8ji5FwjmeBSeKl9I4dvodtB5Rbji/JddZLNdqeR6DNpJgbXAvllstlstyMSfM1+Rh5uT5ePGr4O8/4YtZrfxMdzL7T6mtyrpXPvY6aTFzu6pX6YzkzU6WZGrH1Oo2ZOlmVpMWeLmzXvQwzd213Eq61xyQWXRwZ6lG1LtZFRqWWpw1LlZq8cxvVU81jefJkXj9BzFXv8BCA2gAAAAAAAAAAAAAAAAAAAAAAAAAAAAAAAAAAAAAAAAAAAAAAAAAAAAAAAAAAAAAAAAAAAAAAAAAAAAAAAAAAAAAAAAAAAAAGOniz/Bm77/Q92L+6ewU/r/nX83H9SNcB8Wf4M3ff6Huxf3T2Cn9f86/m4/qRtCbzfrun/ql77zVKQfau/PjaX7K6h/GqR6wGmipUAAAAAAAPK266y62+yt1l9tba23W1rbdbdSvnS626nxpWlfuqVpWnlWvnR4j+sM81eVk0EssEsbkcyWGR8UrHNVFRzJGOa9rkVEVFa5FRURUVFTk/pHJJE9skT3xyMcjmvjc5r2qioqKjmqioqKnKKiovP/tjJ2l4Quje1K5Gbm8Ws4nyCWlbq8g4V9H0WVNJSmTJ6thrLcSfj2xvycvIpk7HOyNPTeZtIrIqbmC37qka3a/gC7d4NTI2PCL4e0NFHS6SlNPjXa7lUcdlmLbS6bik+RlTZ00+TkSQ4mLxvZcizJIceTJycfDtupZScXz/ACU8qf3/AOPl5nw8/wAlP5fuv9Fg/h39pv4qPD5JRx1bWcu4mjaqxMfpLcCWxm4GVmdCeRjczJK7OY3hnLYui9cgZw3it0t6Df8AoLxKblaIWGtLk11Lh41a12Nz7pLTmxIqfJrZBXe/11RqcMb500LeefJdwVWM7BzdZl5Ov2OHk4GfhTzYuXh5mPNj5GLk48l0U+PkQzW2SQzxSWXxywyW23xSW1sutpdStH8qyx2j0d1f3JhXY3POKYOyzrMb6NhcjxqV1/J9ZbbDkxYv0Pd4ltmXLj4V+XPkYup2X2w0V2XW2bJ1WTWyiLjub2fHOuJ/TN31Pm3c/wBBH7/I/wCHsm2DA5lgY1lMyekUMFvu9fyj3GNDjQ0k1V2FudnsMqkGv4rWy2t9fQD4Y/a4eHXfVcfp7W1p2zevLXkwfk/VVqJ2mMhberWdGL1SiRVGebIv5uDLsx0vykb5j3d1nFtz4mtvddeRRv2V0nnZelnuOYljbSnlXpTpp5VOiu/ly8MZZbUlVVRqNcvHMdw/t2Ot2OmzszV7bAy9Xstdkz4edr87Gnw8zCzMaW+HIxcrGnsingyceWy+KaCaO2WKS26ySy2+3yp/EtSqW6t6vBbpWILdWzEyaCzWmjngmikaj2SRSxOfHJG9jmuY9j3Nc1UVFVFRVkU1zXtR7FRzHIitc1UVrkVOUVFTlFRUVFRUVU4UAOSfQAAAAAAAAAAAAAAAAAAAAAAAAAAAAAAJc/ZFe1E5n7Obu+Km7yNryHw2dlbLX4XcnBYLr8mTW+n0YeJ2TxHErdW2HlvG8e6n03Eh9EfLtDDJo8+tM3H49tdJEYMA3P200ju9ojPbf63xcWV09qCnJVswyIiTVpeOqrkKM3Cvq5CjYSO1TtRK2SGeJjkVW9THdphczkMBkquVxs7oLdSRsjHp6PanZ8Uiej4pW8skYvZzVXtyiKm4T4HzviHZ3DOL9h8A5Dq+WcK5potbyTi/JNLk2Zmq3Wk2+LHma7Y4OTHX0y4+Tjy2SW/K+3z9Eltklt1tPrVDT7H79rJJ4dec6nwYd/cjrH0R2Tv6xdU8q3OZWmH1L2Jvcrzposmee+tmDwPnuznpSW6t9mDxvmGVbuJYsbX8g5Js8S+VStLqUutr50rSlaVp8q0r8qvJ14mfDxqvw17m5PQuoWy3MVKsmQ0jqNInR1dRYCSVza1ljkRI2X63arlabXKtS4xelX1pq00s9NE6woazwsOSqq2OyxGw5Cn1cvqWkanW3j1WKTu+B6/pRqiLw9rkTkBHszAAAAAAAAAAAAAAAAAAAAAAAAAAAAAAAAAAAAAAAAAAAAAAAAAAAAAAAAAAAAAAAAAAAAAAAAAAAAAAAAAAAAAAAAAAAAx08Wf4M3ff6Huxf3T2Cn9f86/m4/qRrgPiz/Bm77/Q92L+6ewU/r/nX83H9SNoTeb9d0/9UvfeapSD7V358bS/ZXUP41SPWA00VKgAAAAAAAAAAAAH1FVFRUVUVF5RU5RUX6UX4L/iEVU7p2VO6KnwOne2ug+ru68KmPzrjkU+yigjx8HlWrus1vKtdFHX7iLF29uPN9KxYbL57cfWbrF22ngvyJsmPXUyq2T2RDd5+CLszqiPM3/GbZOxOFY0cuTPs9RhyRb7TY0GN9JyJd7x2y/KyLMPGsjzJJNtqp9nroMLE+m7aXT35EeHbO55/wC/90c0urStK0rWlaeVaVp99S6nyrbXy+Hl51/7p/eFT2jniG8LdujjMbn5tc7cxSxtt6A1bbs3qEVVHIsiYDISPmvYGwjFd5basklDr6fMx3Tyq772x8Q+u9uHwVPenag06xzWvwmVmllbDEitRUx1tyunovRqL0Ma6Ssi8dVZU9ap1aVpWtK0rStPnStK0r/dVwnq778GHW/cFuw3+hjh4F2BNTJyftzrMWyml3mdfbZJ58m0sNscVZsmaOT3+81X0XZ0mz8vZ7WHkc0cGIhq7W6X7C6Y31dFzrRTYFJZMi3VbrG9WXoeQQY/ubrsvTbSyy2DKsthysSWfFupDstdXKhx9tg4GZddjW+oXwneP7YjxZYyvX0tmmaZ1/HAx+V271JYr1c5BI2NqzyYmRZG189RY/q6bOPV0rGdLrNWuqqhY5tpvRordCo38i3kqZhkfVbwGQfHDkoFREV7oW9XRdgb3/PVVk6W8LNHCruDqoBOQ2yAAAAAAAAAAAAAAAAAAAAAAAAAAAAAABf0+x+/an3eKnq+zwo938irleIXpnj0NeJ8g2+X73Y9t9W633GFi58+VPfWbYc04RbJi6rklZK3Zu508mo5LfLsc67lGVh0C3aXSXc/Yfh37Z4D3Z1Pv5+M9hdb8iweS8a20Prujsy8W6tk+Bscel8dmw025wZcrT73VTXVxttps7O1uXbdjZctl0VfF54acH4mNqslpmZlanrHDMny+hM/JGnXjc5HCvFOxK1jpvyTmGMbRyULUciNdDcZE6zSrqmc6A1na0XnYbzFfJj51ZBlKrV7TVXOTl7Wr8nz4P5yF3ZeUczlGyO529x8fh8P/ZhX4AfGp1749fDNwXv7gl8GDm7OCuj7C4dTKplZ3AexdTj49OTcVzb/ACskkiglng2ejzpooJNvxrZafb1xsf6f7iPNR5OtR6ezOks/mdL6ix9jFZ7AZK5ictjrTOienfozPgsQyJ+ivTIxel7HOjkYrJI3vjex7p60btbI061+nKyerbhjsQSsXlr45Wo9q8p6LwvDkXu1UVqoioqAB0xygAAAAAAAAAAAAAAAAAAAAAAAAAAAAAAAAAAAAAAAAAAAAAAAAAAAAAAAAAAAAAAAAAAAAAAAAAAAAAAAAAAAAAAAAMdPFn+DN33+h7sX909gp/X/ADr+bj+pGuA+LP8ABm77/Q92L+6ewU/r/nX83H9SNoTeb9d0/wDVL33mqUg+1d+fG0v2V1D+NUj1gNNFSoAAAAAAAAAAAAAAAAHz/KuI8Y5zoc7jHMdFr+R8f2NPTmavZxVkx7rvdyw2ZEN8d0eVg58Fk830LZ67IxNlr5L7p8DLx56Wy2/QDt8Fns3pjL0M9pzLZHB5rF2YbmOyuKuWKF+nZge2SKevarSwzRSMc1FRzZE+KKjmqrXczH5G9irlfIY23Yo3qsrJq1qrNJBPDKxUcx8csbmva5qoipwv+fKERPe3s1e2ePcP5x3X0XxvknZXUHX9ddP2FDgY9mz5V1ri7OLPkg221wcC2zM3XEbbdXmz5fJMDXW28dhsrbyPHxcPHj3mwjFbHf2N1lkkXf0d9lsll93X1t9l1tK2X21s5hStLra+dK0rStaVpWny+DDn2q/2PVwTvWHkffPgi1Wi6z7ovplbnkvTcd2Ppetez8utLp8mfjPqrDreu+Z5lfX6bY6Y3Ct5mVirsoeOZeTs+SZHpn8CPtS7OU05pXRHiauotixA2jjd1mxtax74rEtWCPWlaJjUi6mRRsXP1IkiRzvMydSFiTXkvs2H0XqfcTw86B3G9+dmM/kqGSXL1XxRRT2Vx2YyGPinqrE1jJJlq1Ilmie1sksqPka5z3+WtE4fXc94BzfqzmXIuveyOJ77g/OeJbOfT8k4pybWZWo3ml2MHldJjZ2BmRxTw3XWXRzQ3+msWTjSw5WPJLjzRS3/ACK9+hfpZSlVyONt1r9C7BDaqXac0dmrarzxtlhnrzwvfFLFLG5r45I3uY5rkc1VRT+csUkMj4Zo3xSxPVkkcjXMexzV4c1zHIjmuaqKitVEXnsvAAcs/mAAAAAAAAAAAAAAAAAAAAAAAAAAAATNexO9o7meAfxRYOs5vuZoPDl3fl6nh/bmLPLd9A4rnUnvg4p2jFHWvphv4lmZs0HIr46XVyeH7Hc3fRs3Y67S2QbJ/FycfMxoMvEmiycXLijyMfIgksmgngmspfDNDLHW6OSKSO62+y+y66262tLqVrSvnXTjL9H2OZ7RSviK6FyfCR2fvPpXcXhz0uFbw3M2GTS/Y816Rsmg1ukktrff77Jz+tsubC4hsbqWW22aDM4VNdJl5s+0mtpD9qn4Xmy16/iQ0Zjvz9b3PEbm1KkX87WVY6uF1U+NjeVfVesWIysq9TlryYyd3SyrPIslti9cLHI/R+Rm/Nydc+Ge93Zkv6U9JFcvZJER00LeyI9JGoiq9qFlgBRmSiAAAAAAAAAAAAAAAAAAAAAAAAAAAAAAAAAAAAAAAAAAAAAAAAAAAAAAAAAAAAAAAAAAAAAAAAAAAAAAAAAAAAAAAAAx08Wf4M3ff6Huxf3T2Cn9f86/m4/qRrgPiz/Bm77/AEPdi/unsFP6/wCdfzcf1I2hN5v13T/1S995qlIPtXfnxtL9ldQ/jVI9YDTRUqAAAAAAAAAAAAAAAAAABOT7Gr73vv8Ap9e/V5enHQcexq+977/p9e/V5enHSt29+Z2E/dWvv9o9NXgO/ZV2s+q5/wDijMkU3tMfZM9A+0b4VJk7zGxuvO/OPauXF6/7t0mtil2uLbFSSbF43zXBjvxv+MeGSZV919NblZEOx0ks2Tl8c2esky9nDs9dz4uPB1314Iu3Nr033/w6fjfIMT3mXot3iXS5vEec6D318WLyjhe+rDDDudLleVPXSsWPs9Vk1v1e812q22Pk4EO2fYieNDwR9CeO/p/Z9P8Ae/Fo9phXUnzOJ8u1vuMPmnXvI74Pc4/JeG7uTHyL9fnxUpZZl4k0WTqNziUu12712x18kmNfZ14OPHlrPw6ZClpDV0l/Vuz9mx0z4d0nvGV0l58iLJkNMSTyJ/w6OV0trBPkZTsL5k1R1S2+V1ncO4u1eO1dFLkca2KhqBjVVsyIjK9/pTtFca1P5xUThllE60XhJOtnHTqehIh7Rb2bPevs5u2b+F9kYd/JeuuRZWbL1Z3FqdfPj8X55qoLveXY01l0mTTj/MNbBfF/xBxTMy58jDkupma7L22kycDb5cd70paE15pLcvSuH1pojN0tQ6bzlVlvHZKhKkkb2OTiSGWPtLVt1pOuvcp2GRWqliOWvPFHKxzEhnlMZfw16fHZKtJVuVnrHNDK1Ucip6K1fR8bk4cyRiqx7VRzVVF5ADLzgAAAAAAAAAAAAAAAAAAAAAAAAAAGSnhA8T/PfBv4jOrfEV11PJXedd8igzthqPpF+Ph8s4tmW3a/lnD9ndbbfT6ByTQZOw1d8tYpZMDInxtpiW2Z+Biyx41jo9Tabw2r9PZvS2oaMOSweocXdw+Wo2G9UNuhkK8lWzDI3t2fFI5EVFRzXdLmqjmtVOTTuWKFutdqyOhs1J4rEErOzmSxPa9rmr/gre/r25RUXlUXb1dHdy8F8QvUPXXdnWe1t3XBezeKajlvHM+nptmrhbXFsmuw8+C26+uFttZkVn1u410t3v8AW7TEy8DIpbPBJbb2spofYw/jxuhzOZ+AXsHcecGTbue0egL83IpSkc9nnmdl9f4Fsl3nWk9l1ewdRg49nlbWLn+fkX/dwWLl1fP8VPP+R5BvEhsrlvD/ALxav21yLZpKeNuuu6byEzePytpfIufYwt9HojWySLWVal1WJ0MyNO5En6BYLovUsGrNO4/MRK1JZIkiuxNXnyLsSI2xGqeqIruJI+e6xSMX4nIDRhlQAAAAAAAAAAAAAAAAAAAAAAAAAAAAAAAAAAAAAAAAAAAAAAAAAAAAAAAAAAAAAAAAAAAAAAAAAAAAAAAAAAAAAAY6eLP8Gbvv9D3Yv7p7BT+v+dfzcf1I1wHxZ/gzd9/oe7F/dPYKf1/zr+bj+pG0JvN+u6f+qXvvNUpB9q78+NpfsrqH8apHrAaaKlQAAAAAAAAAAAAAAAAAAJyfY1fe99/0+vfq8vTjoOPY1fe99/0+vfq8vTjpW7e/M7CfurX3+0emrwHfsq7WfVc//FGZADMyXx0Z4jPDh074rupeUdJ96cM13NuBcrxqx5WDmW1izdZsIrL/ALXcg4/tIvTnaLkWnmkrkarca6WLMxZPVbSS6CbIhm1wvtR/ZY9uezc7Stxc+ufznoHmmyy6dT9vR4VLIsyltsmVXhvNY8aOmLpee6vEsvvvgpSLXcn1+PLveP22Ww7nUaHZ2uoO+Oh+q/Et1Vy/pfujiGs5t17zbWS63daXZxedba1/hMPZ6zMs9OXqN5qMy2LY6Xda6XH2Op2OPj5uDPDkQxyUmH4RvF/rTwv6uYsT7We22zVuP+VujXz/AJt7XdEbszg/NcsdHOVomovU3y4MjDE2pd7JXs1ddbgbeY3W1BV6Y6uarxu9xyCN4VVTulayre8ld6/Ty6Fy9cfZXsfqHhKh7U72XXaPs3O3vtblV2fM+guc5+bL1B2xfiW2250MdL8mThfMK4sduHq+eaPF/wDrx22Y2DybXw15Bo4IYrdrqdFFe9Rm3G42kN19HYXXehsxXzenM9VZZp24HIj43cIk9O5Aq+bUv05uuvcqTNZNXnjfG9vKIroP5fEX8Ffs4vJV31rlWTy5InJ2VE/Rkjd6Pjkbw+N7OWvY5FReF4ADOTrAAAAAAAAAAAAAAAAAAAAAAAAAAO1Oje4+b+HruDrfu/rjY3avm3V/L9LzHj+RS6S2CbK1OZHPLrc+yK6y7I1O4xKZOo3OFdd7rYanOzcKel0ORJbXa7eGTv7hXik6D6p8QPXs/vuKdp8O1XKMGC+aOfK1GZkxXQ7vjuxvh/gvtxxneQbLj25sj/g4tprcyKytbY6VrqNVyX7Fz8aN0sPangY5ntbrq4lMvubpazLm8/TjTTYeu7N4ph1kupSyyLLn0nL9Zrcel18l+dzbZ320shlvVOe1W2FZrba3Gby4Okj9R7Yy+RnHQxos93RWVnjjsulVjeuVMHkn1r8Sucra9O1lXoiI5eN77F6r/Jeel0/ak4p5tvNdHLwyLIwt5j6eeyLZiR0TvTqe2HlVVC42A87RMEAAAAAAAAAAAAAAAAAAAAAAAAAAAAAAAAAAAAAAAAAAAAAAAAAAAAAAAAAAAAAAAAAAAAAAAAAAAAAAAAAAAAAAMdPFn+DN33+h7sX909gp/X/Ov5uP6ka4D4s/wZu+/wBD3Yv7p7BT+v8AnX83H9SNoTeb9d0/9UvfeapSD7V358bS/ZXUP41SPWA00VKgAAAAAAAAAAAAAAAAAATk+xq+977/AKfXv1eXpx0HHsavve+/6fXv1eXpx0rdvfmdhP3Vr7/aPTV4Dv2VdrPquf8A4ozIAZmS+AADonxJ+HDqTxY9N8z6L7s4xj8o4HzXXX4mZBdSyHZanYRecmq5Fx7Y3RyS6jkWizaR7DT7OC267GyobaSWT4smRjT6zv2j3s8e2/Z098Z/WHO4sjf8C392fuOn+0oMK+DTdgcThyLLPu/TW+HW8t0NMjFw+Xcdulvm1mZNi5uLdl6LbaXaZ+06YdeObwUdRePToHlHRfbWBSyPOsu2vCeY4eNDLyHrvm+Jjzx6Xl3H5Za2VpPiXTSY2z11Zosfe6XK2Olzb7cXOkutm14K/GBqHwx62ZTyk1vKbUamuwR6v0+1z5nY2R3RC3U+Eh6l8rJUo+n3yvEiMytFi1pWrZhoWK+sdytvKutcas1dscGepRudRsrw3z2oiqtKw74xyL/NPXvDIvUi9DpGu1QgyV8XHhR7d8Fne3M+ge59N9ruU8VyaTa7aYts12h5nxbMkm+0PNOK5ksdlc7Qb7GhvkgvrZblYGbBnaTa4+FutXssHGxqepLTWpMHrDA4jVGmsnUzOBztCtk8Tk6MrZ6t2lbibNBNDIxVRUcxyI5q8Pjejo5GtexzUg9cqWcfanpXIZK9mtK+GeGVqtfHIxytc1zV788+i+ipwqdlTkA7w4wAAAAAAAAAAAAAAAAAAAAAAAGRvhE8RfJ/CV4l+mfEVxK7Iv2fVnN9Xv8AN1+PLSG/fcaluv1fMeMXy3XW22Q8n4ln7rj819brfdxbK6S26y6O26mOQ6LU2ncVq7Tuc0vnKzLuH1DichhsnUk58uxRyVSanZifwvPD4Znp1N4c1eHNVHNRU5NK3PQt1rlZ6xz1J4rEL29lZLDI2Rjk+HZzUXj4onHobhHgHOOM9mcG4b2LwzawbziPPOL6HmHF9zi1rdjbXj/JNXi7jT7GCvz91mYGXBkWeryupbfSlaUr5vr1cz7Gr8Wl/d/gs2nQvI9nTL5t4W+S28axLJ5ve5mR1bzS/Yb/AIHlSXX1tvrZrNjj8s4liwWW3R4ep45qLPeec1LLbGbxv7y7b5PaDdTXW2uVSRbGkdRX8ZDPLGsbruNSTz8RkOnhERuRxVijdbwnTxOvC8IWJaZzUOocDi8zCrem9Uile1q8+XOjeixEq/TFO2Rnfv27gBrQ70AAAAAAAAAAAAAAAAAAAAAAAAAAAAAAAAAAAAAAAAAAAAAAAAAAAAAAAAAAAAAAAAAAAAAAAAAAAAAAAAAAAAx08Wf4M3ff6Huxf3T2Cn9f86/m4/qRrgPiz/Bm77/Q92L+6ewU/r/nX83H9SNoTeb9d0/9UvfeapSD7V358bS/ZXUP41SPWA00VKgAAAAAAAAAAAAAAAAAATk+xq+977/p9e/V5enHQcexq+977/p9e/V5enHSt29+Z2E/dWvv9o9NXgO/ZV2s+q5/+KMyAGZkvgAAAAIj/a6+zF4l7RjoSXD08Or4/wCInrPF2O46X5vk22QRZOVJHbNseveUZdtl013EeXXY8EVcitJJeObqPX7/ABY5oMfaazb61XmnDeVddcu5NwHnOh2XFuZcM3u041ynje4x7sXaaTfabMmwNnrM7Hu+MeRiZcEsV/lW+y/0eqK++O62+u4a+aqV9kQ+ypj7V4lt/Hh0Lx2lezeA6aO/v3i2pxv4fnvX+lxbIYewcTGgt/8AiOUcA1sVI97dfZWXbcIxbZff2ZHE8HC2lsHs3PGNJtlqSnsfuJlnf/T7Vd9ItJZO7Mqw6Q1LelRGUXSSKqQYLPWHtY9OpsFDLSMtK2OG7emZoPeXbtMzUk1Ph4E/KtKLqyEETeHXqcTVVZkRqfKs1mJyq/pSwp08qsbGrR0AeidFRyI5qorXIioqd0VFTlFRfiip3RSIYAfQAAAAAAAAAAAAAAAAAAAAAAAE13sB/FLXw1+0S620m42VcHgviHw8rozlFks3oxLdxyafGzOuM33N3lDfnf8AH2v0ehgyb62X4uv5Lt62SemaWKXZI0r5086fGn5fytOppN3tuNbrT8j0OdkareaDaa/daXaYl/u8vW7bV5cOdrs/Fk8q+7yMPMx4MmC/yr6ZY7bvL4Nsv4Ou/tZ4pfC50T4gdV7iyPtLrbjPJtniY11L4tTyWbAjx+W6L1UuupW/QcnxtvpZq0uu/hcG/wCNfm8/vtdNpW4XX2g94cdV6KmscZNpTPyxwqjPy5p9PesXPPIidK2L2GszV29ao5Y8MnHUjVRsrvD9n1sY3K6dmfy+jM2/Uaq9/d7PEc7WpzzwydrXrx6LPyvHKc5KgKeSRQAAAAAAAAAAAAAAAAAAAAAAAAAAAAAAAAAAAAAAAAAAAAAAAAAAAAAAAAAAAAAAAAAAAAAAAAAAAAAAAAAAABjp4s/wZu+/0Pdi/unsFP6/51/Nx/UjXAfFn+DN33+h7sX909gp/X/Ov5uP6kbQm8367p/6pe+81SkH2rvz42l+yuofxqkesBpoqVAAAAAAAAAAAAAAAAAAAnJ9jV9733/T69+ry9OOg49jV9733/T69+ry9OOlbt78zsJ+6tff7R6avAd+yrtZ9Vz/APFGZADMyXwAAAAB6MnHgy8efFyYYsjHyYr4J4JrLZIpopLa2SRyx30usvsvsrW26y62tt1ta23UrSvk94+oqtVHIqorVRUVOUVFReUVFTuiovdFTui90CpyioqcovZUVOUVF9UVDXLe3R9mNf4FO/7ezerdJfj+GXvfbbLZcMhw4LvoHW3OK0k2PIesZb47fc4us93dNvOBWSe4ul49TYaSCzJv4hnZ+TBQ20PjH8KfW/jT8PHYnh57QxKXaLm2ovs1e8gx4p9tw7leF55PGeZaK6WttI9rx7a2QZkdnrtg2GJTM1GfSXWbHNx59WZ4j/D/ANi+FnvDsjoHtbV/avnHWnI8rQbSllsn0HaYtLbMrTcj08k1kcmTouTaXJwN/pMq+OOTI1exxZJooZqyQx+lb2cHitXevb5dttZ5L3jczbujBD7zak5tao0nGsdXHZhXPXrs5DHL5WNzL/lve/3K/K5ZL8nTC3eLQv8AJnMflfHw9OFzEr3taxq9FK6vy5q/CJ0sik7ywJ2ThXxonEaHSICzE0yAAAAAAAAAAAAAAAAAAAAAAABfA+xc/EXfz3wndreHTb7Cs236C7Ht3vHsSS/yrjcB7ahztzi42NHdWvvLcfnWl55nZUkX3Eddzh2SRx3SWXz0P09/2OJ37d0/7RrjvA8/Nux+O+IfgHMOssqKSSlmFZyLWYkfYHFc6W3zp6sy/K4jn8d191PV/C8nli9NPf8AvI4P+0N20TcnwtbgNhqrYyuioquvcSrU6nsk03J52V8tvq5ZMBPmIuhO7l44armtauy9pc0uF1viHOf0QZF7sXOnojktojIuV9E4stgdyv8An2TubFEB5VydoAAAAAAAAAAAAAAAAAAAAAAAAAAAAAAAAAAAAAAAAAAAAAAAAAAAAAAAAAAAAAAAAAAAAAAAAAAAAAAAAAAABjp4s/wZu+/0Pdi/unsFP6/51/Nx/UjXAfFn+DN33+h7sX909gp/X/Ov5uP6kbQm8367p/6pe+81SkH2rvz42l+yuofxqkesBpoqVAAAAAAAAAAAAAAAAAAAnJ9jV9733/T69+ry9OOg49jV9733/T69+ry9OOlbt78zsJ+6tff7R6avAd+yrtZ9Vz/8UZkAMzJfAAAAAAAHFKfP8n4v21/x/wC3yVh/sj32c0XeXS0XjQ6u0dJe1+g9HfjdmYevx/PL5p0rDPJmZeymtjsrdkbLrHKyszkEct1Y/PiWbyr6RLkSa3TYsdnn/R/Fstdg7fX52q2mHi7DW7PDycDYYGbjxZWHm4WZDfj5WJl409kkORjZEMl8U8E1l8UsV10cll1t1aV2lsruxqXZDc3Sm5elp3R39O5GKazUR6xw5fEyqkOWw1vhFR1bJUXTV3K5rlhlWGzEiTQRuTodTafp6nwl7DXmosduJUjk4RXV7DflV7EfPo+KRGu7fpN6mL2cppzBKb7X7wE5fgC8YPK+CaLByremOxaZPY3SGyvtlkgi4ltM2a3Y8Nvyr6XUl2XX+59/oJI5MifOn0X/AA3u8+scm9ssRZPX7truDp7dTQmltwdK2kt4LVeHp5alJyzzIveI0WenZYx7vKuUbKTU7kCr1Q2a80T05b3r3zOKt4PJ3cVejWO1RsSQSovPDuhfkyM5ROpkrFbIxyJ8pj0cnqAGcnWgAAAAAAAAAAAAAAAAAAAAB3B4e+2dn0N3v013Zp6zfbDqfs/g3YUEWPd6b8unE+S63eT6+vndZbJDscfDnwMmCS6kWRj5MsEvnFJfR0+Om1DhqWosFmcDkoGWqGaxWQxV2tInMc9XIU56diJ6d+WSQzyMci+qO+ByKliSpZr2YndEleeGeNyf2Xwyska5Po4ViL/pwbirRbjXcg0uo3uoy4c/V7nWYG11udj3euDMwNhixZeHlQ3eVPVDkY80csd3lTzsvtr5fHyp+sjP9jz3H/46ezX8JXM58y7N2Wq6vwetd1LLf68u/a9SZ+x6yyps2ta+uuTnU4rZsrpL/u8izMsyvurZrb6yX0+FPJ4tda6bt6M1nqzSF5rm29LakzenbPUqc+dhspbxz3LwiNVXrXR/LU6VR6K3twWQYq6zJYzHZCPjou0qtpvHftPAyXj/AEVyp/p379jkBjR2AAAAAAAAAAAAAAAAAAAAAAAAAAAAAAAAAAAAAAAAAAAAAAAAAAAAAAAAAAAAAAAAAAAAAAAAAAAAAAAAAAGOniz/AAZu+/0Pdi/unsFP6/51/Nx/UjXAfFn+DN33+h7sX909gp/X/Ov5uP6kbQm8367p/wCqXvvNUpB9q78+NpfsrqH8apHrAaaKlQAAAAAAAAAAAAAAAAAAJyfY1fe99/0+vfq8vTjoOPY1fe99/wBPr36vL046Vu3vzOwn7q19/tHpq8B37Ku1n1XP/wAUZkAMzJfAAAAAAAAABD17bTwFReObwa8oxuK6emf3j0pZsezunZceCkmy2uZrsGt3K+v8e62nvZLOeaHGuwsLEpJFDLyzX8Uy8q+kGvupXWi1pW2tbbqVtutrWl1taVpWlaV8q0rSvxp5V+FaV+NK/wCG49rbS6laV8/KtK0rT+Svl50/w/xr+Vrffb2eBm3weeNfecs4jqPoHTfiUptu1eCW48HutfpOUS50X/idw3HpStI7Kankewg5Hr8XHhhxNdx7mGj1WNS77XzVpdT7JvxDOo5bO+HjUd5y1Mr71qnb73iRVbDkImI/UmCrq7npbbrtbmq0LeGpLWyr0RXzrzGnfrSKPiq6upxfLj6KOV6U9WOXinZdx/yu5rvc7+y6FP7JCGAvfIugAAAAAAAAAAAAAAAAAAAAAABfF+xaO17+UeDnufqXLyqz5vVHeU+3wIa3UurhcY7G4rpszBgti87rrbZOS8e5hlev4W335N9vp9UV111ntRi+xU+zrtL4mPEx1Dfke7i5/wBLcf57HDddW2OfL6v5lFpI6W0r9zdNZi9p5d9LfOl9Yo5r6UrZHfW28586fD9VXlA9oDpCPR3i13ZqQMVlbNZLF6qrJ37/AMosLj79x3CoicOyXvvSjVVGtVE9epCeG0mQXI6Bwb3O6n1Y56D/APD3Wd7I0+ntCsfr/wDByAhsbIAAAAAAAAAAAAAAAAAAAAAAAAAAAAAAAAAAAAAAAAAAAAAAAAAAAAAAAAAAAAAAAAAAAAAAAAAAAAAAAAAAx08Wf4M3ff6Huxf3T2Cn9f8AOv5uP6ka4D4s/wAGbvv9D3Yv7p7BT+v+dfzcf1I2hN5v13T/ANUvfeapSD7V358bS/ZXUP41SPWA00VKgAAAAAAAAAAAAAAAAAATk+xq+977/p9e/V5enHQcexq+977/AKfXv1eXpx0rdvfmdhP3Vr7/AGj01eA79lXaz6rn/wCKMyAGZkvgAAAAAAAAA4pTy+FKIgvbceCinjR8DPP9Zx3U12HbnTds3cPVH0eGkmwz9rxjAyq8l4jjVspSab/jHic231eFr6S2Y0/JbeN5uTS/7Ww+mX75fB43W0vtutr8rqVtr/NWnky7QGtc5tvrfSuvdOWFrZvSecx+boO6nNZJLRsMlfVm6eHOrXIUmqWo+6SV7ErFRUXg63MYutmsXfxVxvVXv1pa8nZFVvW1UbI3nsj439MjF+D2ovwNOCJV/bN+Dn/8GHjz7W4do9X9rusuy8j/AMZOqKQw+6wcfi3N83OyNnx3DtsspDBBw/l2LyPjWFh0kkmj0ev02Xken6fHSsVD2O7Ya/w26W32j9wdPytmxOrcBjczV4exz4FuV432ac/Qqoy1RtJYp2ov0orFaWNyIreErtzWKs4TK38TaarZ6Fqau/lqp1eW9Ua9vPqyRnTIxfRWvRQAz06sAAAAAAAAAAAAAAAAAAAAAms+x7+wa8F9qZ0Vr5Jvo+D2Loe0+AZ9/q8rK25XXe/5PrYb6edPVTI33FNRjWW0pX+FliurSlLa1t2SdPh/N+Knx+H9/wCz8TVPezS5tf177QXwZcotl9xDD4kOptNnT+qttIdVyvmGr4nuJbq0+NbY9Xu8y+S3yr67LbrK/fNq/ZXzttr86VpWvn+v4f3vOb7XPAx4/wAQGjM9FGrU1BtrRhld0cNfYw2ezNdz+vj5UnkW4GORVVUYyL0RU5l/4fray6WydRy8rUy7non0Ms1YHJ2+jqjcv+aqeYCqk3yAAAAAAAAAAAAAAAAAAAAAAAAAAAAAAAAAAAAAAAAAAAAAAAAAAAAAAAAAAAAAAAAAAAAAAAAAAAAAAAAABjp4s/wZu+/0Pdi/unsFP6/51/Nx/UjXAfFn+DN33+h7sX909gp/X/Ov5uP6kbQm8367p/6pe+81SkH2rvz42l+yuofxqkesBpoqVAAAAAAAAAAAAAAAAAAAnJ9jV9733/T69+ry9OOg49jV9733/T69+ry9OOlbt78zsJ+6tff7R6avAd+yrtZ9Vz/8UZkAMzJfAAAAAAAAAAAAVsfsmHwj17k8H3HfEfxvV0yeZ+GHkv03cy48Vb8vL6p59PrdDyqOtkVKSZH2k5HDxDkPvJaSRavTYfJcq22KyfJlUDW4B7V654v3B1pz/qjm2DTZ8Q7J4ZyXg3JsCvp/+L0XKtRl6TaQW3XW30jkvw82W2KX01rHJW2+2nqttalnvvp3k/h77r7W6O5nHdZybqnn3J+CbWWsN+PFny8d22VroNtiR31urXX7nFhg22slpdfZPgZuNNHJfZJbdX0AeyP3jfndA6y2Xytvru6HyLdSabjklVXrpzUMrkyFWGNe/lY7OxyTvVvZv5ajZ0t45fEvf3TiU8vQ1HBHxFlIlq21aiIiXKiN6HuX/mmrq1qfSsDl79zqQBcQR7AAAAAAAAAAAAAAAAAAAAAPvuqeUV4P2l1tzW2SsN3EOfcP5RbN6q2+5roOQ67bUlpd509NY64dL/V508q2+fm2/sFfOGGv5Y7K/wB9tPNpxG376h33/FPVPWnJvXWSvIeA8P3lZK186yV23H9fneuvz+N3vqXVr/L5qLfbIYpEyGxObaxE6quu8XK/juqtl0xcrtVfobzZXj6XKvxXmT3h1nVW6nrKvo7GztT6O1qNy/7E/wBDsUBSSSaAAAAAAAAAAAAAAAAAAAAAAAAAAAAAAAAAAAAAAAAAAAAAAAAAAAAAAAAAAAAAAAAAAAAAAAAAAAAAAAAAAx08Wf4M3ff6Huxf3T2Cn9f86/m4/qRrgPiz/Bm77/Q92L+6ewU/r/nX83H9SNoTeb9d0/8AVL33mqUg+1d+fG0v2V1D+NUj1gNNFSoAAAAAAAAAAAAAAAAAAE5Psavve+/6fXv1eXpx0HHsavve+/6fXv1eXpx0rdvfmdhP3Vr7/aPTV4Dv2VdrPquf/ijMgBmZL4AAAAAAAAAAAAoLfZOnhmr1f4yeD+IXT66mPx3xIcBht3WTDFWkcnZPVsev41urpbo7aQxVy+FZ3X98Ft/plysjD2s9Ky+6krbfpQQfZE/hyt7x9nNzTmmtwKZfKvDvynjncOpvhspXLroYJpOKc6x6TeVbrcDH4ryTO5LnRVr7uW/jeJJWlZYIfKX/AIEN05Np/E/txlJbCw4jVGR/kHnUWTojfQ1U+GjUfKvZvl1c43E3XK5OlEhcqq39JNdbqYNM9orLxNYjrFCNMpV7cuSSly+RrU4Xu+uszO3qqp2X0XXPAPWQioqIqd0VOUVPii+ikDAA+gAAAAAAAAAAAAAAAAAABX/Wn7f9fk20fgo2l278HfhT3N93rv2/hx6R2V1/z9d2d1rxvKuu+Hw+6rLWvw+H5Ph5NS3X5frp+2ja6+znnkyvZ/8AgeyZq+cs/hF8N88lfO6vnJL09xC++vndW66vnddWvnddW6vzrWtfNSr7Y2NP5MbHS/H+UWsIk+npXE4R/wD8tT/3JHeHdy/lLUjPpo0Xf+liRP8A14X1MzAFEJKoAAAAAAAAAAAAAAAAAAAAAAAAAAAAAAAAAAAAAAAAAAAAAAAAAAAAAAAAAAAAAAAAAAAAAAAAAAAAAAAAADHTxZ/gzd9/oe7F/dPYKf1/zr+bj+pGuA+LP8Gbvv8AQ92L+6ewU/r/AJ1/Nx/UjaE3m/XdP/VL33mqUg+1d+fG0v2V1D+NUj1gNNFSoAAAAAAAAAAAAAAAAAAE5Psavve+/wCn179Xl6cdBx7Gr73vv+n179Xl6cdK3b35nYT91a+/2j01eA79lXaz6rn/AOKMyAGZkvgAAAAAAAAAAAD4PtDr3jvbHWvYHV/LsSmdxbsbhfKODckw60tuplaPlelzNHtcelL7brf4XBzZo6edvl51860q+8cV+Vfh5/yflf2q2JqdmvcrSPgs1LENmvPGvTJDPXlZNDLG71R8csbHsX4Oa1fgh+JY2zRSRPajmSsfG9rk5a5r2q1zVT4oqKqKn0Gn67Q6/wB51N2X2H1ZyiL3PJuteccs4DyGKll0dI93w/fZ/HtrbSy/zvttpn66eltt3xpbSlK1rX4vhU1n2QP0XH0n7TTt3PwMSmHo+7NDw/uzTRWR+iysvJNfNx3lc9L6UpbLfnc74lyvZyXUpStLs2ll/qrb7y+FN7LNjtex7obQ7b6/ikhe7VWjsDlrTYf0IchPQgbk63Zzul1XJRXa72K5zmOiVjlVWqVzalxT8Ln8xinIqe45C1AxXJ3WJsq+S74co+J0bkXtyjgA2sdGAAAAAAAAAAAAAAAAAABxX5frp+2ja3+zf/i9/Ax/U/8ADZ/k5w5qkK/L9dP20bW/2b/8Xv4GP6n/AIbP8nOHKWfbG/NLY77Tav8AwbDEjfDt/SmpPqFL7xKZpAKHSVYAAAAAAAAAAAAAAAAAAAAAAAAAAAAAAAAAAAAAAAAAAAAAAAAAAAAAAAAAAAAAAAAAAAAAAAAAAAAAAAAAGOniz/Bm77/Q92L+6ewU/r/nX83H9SNcB8Wf4M3ff6Huxf3T2Cn9f86/m4/qRtCbzfrun/ql77zVKQfau/PjaX7K6h/GqR6wGmipUAAAAAAAAAAAAAAAAAACcn2NX3vff9Pr36vL046Dj2NX3vff9Pr36vL046Vu3vzOwn7q19/tHpq8B37Ku1n1XP8A8UZkAMzJfAAAAAAAAAAAAAAFO77K56Wtv1HhP8RGDiW2XYe05z0zybN9H3U321w8Lm/CMWslKU9NuNTSdgS0surdS76VW6ylnok9dNBshPshbqCnanswe4tnj4n0vbdRck697Y1MdLfVdHTUcnw+MchyrK/H0fQ+Gcs5NlX3eXxiivj8qUvrdTW9vTB7K/W0mqPDBWwM8ySWNA6x1DpxrXKqyso3H1tSUWu6lVVa1M1ZhiVvyEjhSNPlRv4hXvjjEoa3ltNZ0sytCrb5ROEdJG11WTjjt612Od8eXc/FAAsoNNgAAAAAAAAAAAAAAAAAAcV+X66fto2t/s3/AOL38DH9T/w2f5OcOapCvy/XT9tG1v8AZv8A8Xv4GP6n/hs/yc4cpZ9sb80tjvtNq/8ABsMSN8O39Kak+oUvvEpmkAodJVgAAAAAAAAAAAAAAAAAAAAAAAAAAAAAAAAAAAAAAAAAAAAAAAAAAAAAAAAAAAAAAAAAAAAAAAAAAAAAAAAAY6eLP8Gbvv8AQ92L+6ewU/r/AJ1/Nx/UjXAfFn+DN33+h7sX909gp/X/ADr+bj+pG0JvN+u6f+qXvvNUpB9q78+NpfsrqH8apHrAaaKlQAAAAAAAAAAAAAAAAAAJyfY1fe99/wBPr36vL046Dj2NX3vff9Pr36vL046Vu3vzOwn7q19/tHpq8B37Ku1n1XP/AMUZkAMzJfAAAAAAAAAAAAAAGN3jD6v/APGrwo+JDqSzH+kT9jdHdo8OwLKW1vvs2m/4Zt9dqciG34+eRi7KbFycavlXynhjr5V+VdSh/wC7ceS09UUlvl5+qy63/wD2p5f6tRz4o+A06p8TPiH6wsx6YkXXfePa/CIMalnoshxuLc732kxrYqeVKe59xhR1hrbT0XRVsvsrWy62tbtPY5apRmQ3r0VLL8qWtpLVFOFXO5VYZMtiMhKjFVW8Ik2NaqtRHOV7erlEbxGXxEUfk6bySInrepPXj6fJnjTn/SX/AEOiQF6hGEAAAAAAAAAAAAAAAAAADivy/XT9tG1v9m//ABe/gY/qf+Gz/JzhzVIV+X66fto2t/s3/wCL38DH9T/w2f5OcOUs+2N+aWx32m1f+DYYkb4dv6U1J9QpfeJTNIBQ6SrAAAAAAAAAAAAAAAAAAAAAAAAAAAAAAAAAAAAAAAAAAAAAAAAAAAAAAAAAAAAAAAAAAAAAAAAAAAAAAAAAAx08Wf4M3ff6Huxf3T2Cn9f86/m4/qRrgPiz/Bm77/Q92L+6ewU/r/nX83H9SNoTeb9d0/8AVL33mqUg+1d+fG0v2V1D+NUj1gNNFSoAAAAAAAAAAAAAAAAAAE5Psavve+/6fXv1eXpx0HHsavve+/6fXv1eXpx0rdvfmdhP3Vr7/aPTV4Dv2VdrPquf/ijMgBmZL4AAAAAAAAAAAAAA4rTz+fn+Knl+L50/x/l/I1hntr+ERdf+1I8YGkgx/cRbDn2h5lbSlvptlk7C6/4fzvLmtrSnlfWTN5Fk3SXU8/4estt13rtvpTZ6f+zXdfZKfE4+Oe0z3W3sjpHdz3pPqrlst3p8ve34tm/4RS+v/wB9aRcNji9VfPypH6flb5LPPZM59Mb4l8viHydMWottNQVmRr/eWsdlMBk4f8uivFccqf6/A0fv5V87R1WwicuqZms705+RNDYid/l8pWf/AB8SAQB6TCG4AAAAAAAAAAAAAAAAAAHFfl+un7aNrf7N/wDi9/Ax/U/8Nn+TnDmqQr8v10/bRtb/AGb/APF7+Bj+p/4bP8nOHKWfbG/NLY77Tav/AAbDEjfDt/SmpPqFL7xKZpAKHSVYAAAAAAAAAAAAAAAAAAAAAAAAAAAAAAAAAAAAAAAAAAAAAAAAAAAAAAAAAAAAAAAAAAAAAAAAAAAAAAAAAGOniz/Bm77/AEPdi/unsFP6/wCdfzcf1I1wHxZ/gzd9/oe7F/dPYKf1/wA6/m4/qRtCbzfrun/ql77zVKQfau/PjaX7K6h/GqR6wGmipUAAAAAAAAAAAAAAAAAACcn2NX3vff8AT69+ry9OOg49jV9733/T69+ry9OOlbt78zsJ+6tff7R6avAd+yrtZ9Vz/wDFGZADMyXwAAAAAAAAAAAAABx8vh/v/fyUP/sqPjf0Txk9A8upH6ft94b8TQVk8vhJXi/ZPO9h6f5brKctt861p5+mtlPvfJfBUnvssHVe47Q8Gm68v+YcF7i1nq8vhX7T73r/ACa20r5fGttd151p+L1Ur+NO/wBmpbbU8YG3bFd0rex2saSJz+mr9LZCwrf8eW1eeF59OTVO9MfXt/lHcc+TZx0v+XFyNnPov/Px/qVIAHqZIOgAAAAAAAAAAAAAAAAAAcV+X66fto2t/s3/AOL38DH9T/w2f5OcOapCvy/XT9tG1v8AZv8A8Xv4GP6n/hs/yc4cpZ9sb80tjvtNq/8ABsMSN8O39Kak+oUvvEpmkAodJVgAAAAAAAAAAAAAAAAAAAAAAAAAAAAAAAAAAAAAAAAAAAAAAAAAAAAAAAAAAAAAAAAAAAAAAAAAAAAAAAAAY6eLP8Gbvv8AQ92L+6ewU/r/AJ1/Nx/UjXAfFn+DN33+h7sX909gp/X/ADr+bj+pG0JvN+u6f+qXvvNUpB9q78+NpfsrqH8apHrAaaKlQAAAAAAAAAAAAAAAAAAJyfY1fe99/wBPr36vL046Dj2NVaeXfdPOnn6uvK1p+OlK28w8q+X5K+VfKv4/Kv5E46Vu3vzOwn7q19/tHpq8B37Ku1n1XP8A8UZoAMzJfAAAAAAAAAAAAAABTV+y0YPLM8BeVS27zux/E5Bff5fc0pZJ4fpIrfPy++rW+atPOvxpbXypTyu87lSnb9lnRWV1ngUyK+frjzvEbDb8fufRNj9JX3+dPx184LPKv4qedPxpoezzesfjF2Ycn9rIapYvw569DamT/wDw1ru8nO3uf5+DaK//AMjU/wD65QpogPVwQRAAAAAAAAAAAAAAAAAAA4r8v10/bRtb/Zv/AMXv4GP6n/hs/wAnOHNUhX5frp+2ja3+zf8A4vfwMf1P/DZ/k5w5Sz7Y35pbHfabV/4NhiRvh2/pTUn1Cl94lM0gFDpKsAAAAAAAAAAAAAAAAAAAAAAAAAAAAAAAAAAAAAAAAAAAAAAAAAAAAAAAAAAAAAAAAAAAAAAAAAAAAAAAAADHTxZ/gzd9/oe7F/dPYKf1/wA6/m4/qRrgPiz/AAZu+/0Pdi/unsFP6/51/Nx/UjaE3m/XdP8A1S995qlIPtXfnxtL9ldQ/jVI9YDTRUqAAAAAAAAAAAAAAAAAABLH7JTs/W8U7h5p15sciLGv7L47gT6eSaW2OmRt+HSbTJprYrbrqeqfJ1e52efTy/8A0dXL5186W0WKvOv3XnTzp+L8nl/OpE6Dfbji+61XI+PbHJ1O80efi7XU7PDv93k4WfhTWz4uRDdWl1vqjlsturZfbdFJb5xy2X2XXW1sS+Fn2l3W/ZGp1/Fu5thruuuwYIYMa/a58lcXh3Jprba21zMPZzeqDR5ElbPObXbaaO33ssUevzNhfdJZDvjbPV9BmPZp/ITx1Z4JXrRllejIrEU0nmLB1vVGMlZK56taqokjXojflpw66j2d/io0VitFwbI68zNPTmTxWQuz6QyOUsMq4zKUspYW3LinXJ3tgrZCvemnfXZM+OO1FYRkbvPjVkkqlPl8inn+P4/yv4MHZYGxxocvAzMbMxciKyWCfGnjniljvp6rJI7461pfbdb5XUup8K2+V1POlX93n8fh8fy/yfk/vbnRUVEVFRUVOUVPRU+lP8C3yKWKeNksMkc0UjUfHJE9skb2uRFa5j2KrXNcioqKiqioqKi8HID6f0AAAAAAAAAAAAKeX2Wb/wAm8C//AFPxEf8Apel1w1Ty+yzf+TeBf/qfiI/9L0umb7Pf9sPZf/zPU38D6mNb7uf1fag/d0/xCqUzAHq7IHgAAAAAAAAAAAAAAAAAAcV+X66fto2t/s3/AOL38DH9T/w2f5OcOapCvy/XT9tG1v8AZv8A8Xv4GP6n/hs/yc4cpZ9sb80tjvtNq/8ABsMSN8O39Kak+oUvvEpmkAodJVgAAAAAAAAAAAAAAAAAAAAAAAAAAAAAAAAAAAAAAAAAAAAAAAAAAAAAAAAAAAAAAAAAAAAAAAAAAAAAAAAAY6eLP8Gbvv8AQ92L+6ewU/r/AJ1/Nx/UjXAfFn+DN33+h7sX909gp/X/ADr+bj+pG0JvN+u6f+qXvvNUpB9q78+NpfsrqH8apHrAaaKlQAAAAAAAAAAAAAAAAAAAByfUVUVFRVRUXlFTlFRfpRU9FO/OnvE33d0Vkwydc883Gr1tktL5uN583234rk21k97LZdos+2bFxL8mvwnzNZ9C2N1la0szLPhdSXPpD2t/F9nTB0/enEcni+XWscU/MOIx5O44/JdW2tb8nM0l/vd7q4qV8rbIcK7kct1a+q66O34UgQGVYXWeocCrW1L8ktVvHNO3zYrqnbs1r164ufTmGSPtx2VE4JK7ReLTfHZh9eHS2srt7BwKzq0zqJz81gnRN4V0UNe1I6egjuOFdjrVN3p27cF0nr3tnrjtbT277rzmOg5Xq76223z6fY42VfjyXW0vrj5sFla5GFl20up73DyoosmKvwkisr50di+f8/l5fP8A3T5/78lJbivMuV8G3GPv+G8j3fFt1jeVItpx/Z5WpzKWUvsvrDJNhyRXTY8l1lvvsab3mPPbT0TR32edtZPekvau9r8Quw9V3Bo8LsvTWe7hk3etsxtBy6CKl1fXNLFBDZodvdZH6bIsa3G0d1/lW+fPkurWtdvYTdfE3EZFmK78XN2RZ4+qxTcvZOV6eZ4UVV9Fjkaiesnrxahs97TrbfVCVMZutg7egctJ5cT8zj/NzGmZZV6WukkbGz8q45jnLz0vguxsT9Kzx6WLPhd5fjp+X/f5f1U+Dyr5/ip5/wCDE3pPxo+H/va3CxOJ82w9fybItp6uH8l8tHyOyX0UkvggxMr0w7WsNP8A602lydli2fKuRW7zZXUvslt87L7L7a+VaX23W3W/P8ttfL/Fs+pcqXoW2KVmC3A/u2WvK2Vi8pzwqtVeFTnu1eFRe3HYsc0rrPSmuMXDmtIaiw2pMVYajor2GyFa/AvLUd0PdXkesUjUXh8UzY5WKio9jVTg9gDkmTAAAAAAABTy+yzf+TeBf/qfiI/9L0uuGqeX2Wb/AMm8C/8A1PxEf+l6XTN9nv8Ath7L/wDmepv4H1Ma33c/q+1B+7p/iFUpmAPV2QPAAAAAAAAAAAAAAAAAAA4r8v10/bRtb/Zv/wAXv4GP6n/hs/yc4c1SFfl+un7aNrf7N/8Ai9/Ax/U/8Nn+TnDlLPtjfmlsd9ptX/g2GJG+Hb+lNSfUKX3iUzSAUOkqwAAAAAAAAAAAAAAAAAAAAAAAAAAAAAAAAAAAAAAAAAAAAAAAAAAAAAAAAAAAAAAAAAAAAAAAAAAAAAAAAAMdPFn+DN33+h7sX909gp/X/Ov5uP6ka4D4s/wZu+/0Pdi/unsFP6/51/Nx/UjaE3m/XdP/AFS995qlIPtXfnxtL9ldQ/jVI9YDTRUqAAAAAAAAAAAAAAAAAAAAAAAAABzbddZdbfbddbdbWl1t1ta23W3W186XW3U+NLqV8q0rT40rTzozY6W8fniM6Yri6+DlknOeLY91nnxvnt+RuvRD67fVHr957yPe4VbYraw4sN+dla3EpXzt1t9LfSwmc0/u/n//AKq7DH5XJ4mdtjG3rFOVFTlYZHI13Cpwj2d43s7d2SMe1UVU7Iqmc6G3L17ttlI8zobVuc0xkI3MVZcVfnrxTox3Ukduqj1qXIV9Hw2q88bkVUVvdSyr0l7UfovsT6Hq+wrM3qXkE9tkd1d7fTP4pPPWlfVTH5RjQxxY0NlKUuln3uFpILa3Utsvkur91JFpd9puQ6/D2ui2uBt9ZnQWZGHna3KgzcTJgltpdFNBkY10kUsUltaXWX2X1supWlba1p86RH+/y/4eTt7qrvrt3pTYW7DrPnW94z/De+yNbBkW5egzL7vK2+/O0GfHlajJkvjtpHTJkxK5cVta+4niu8rqbWwm7lqLohz1NtpicNdcpI2Gf4J1vruVIZFX4pG+H4qjV4RFsw2d9qLqnE+6YreTTFfU1NvlxSal022LGZpjURqLNaxUjkxl53qrvdZMaq91SNV7LcurXypT4eVPP8X4v77fj+P5f6vKn46eXlSny/xQcdJe1yjr9F03e/Cfc1uvjjk5nwa2+bGp6r/T77YcZz5L8uCKKP8AhMifXbHZTTX+qmPrI7aUtrLT1X3r1L3PrK7jrbnWh5Rj22RX5EGHl+62evrPb6rI9nqcqyDY6ye6nygzsbHmrSnn6KNuYfU2DzzEdjchFLJxy6s9fJtM9PWCTpe7jnu5iPZz/a9C0zanxI7M7zV4n6F1ti7mRfGj5dP35W4vUFdeEVzX4q6sViZGKvDpaaWYEX0lXsdvjil1K+XlWlfP5eVfPz/mcu+N58gAAU8vss3/AJN4F/8AqfiI/wDS9Lrhqnl9lm/8m8C//U/ER/6XpdM32e/7Yey//mepv4H1Ma33c/q+1B+7p/iFUpmAPV2QPAAAAAAAAAAAAAAAAAAA4r8v10/bRtb/AGb/APF7+Bj+p/4bP8nOHNUhX5frp+2ja3+zf/i9/Ax/U/8ADZ/k5w5Sz7Y35pbHfabV/wCDYYkb4dv6U1J9QpfeJTNIBQ6SrAAAAAAAAAAAAAAAAAAAAAAAAAAAAAAAAAAAAAAAAAAAAAAAAAAAAAAAAAAAAAAAAAAAAAAAAAAAAAAAAAAx08Wf4M3ff6Huxf3T2Cn9f86/m4/qRrgPiz/Bm77/AEPdi/unsFP6/wCdfzcf1I2hN5v13T/1S995qlIPtXfnxtL9ldQ/jVI9YDTRUqAAAAAAAAAAAAAAAAAAAAAAAAAAAAAADzfsaHf7zjG0xd3xzcbfQbjCvrfh7XR7HL1Wzxb609NbsfOwpIcmGtba1pd7uS31W1rbXzpXyfjj9xyPie2SJ7o5Gqjmvjc5r2uReyo5rkcipwnCorV7Jx9Jyqd25j7MNyhas0rVeRksNmrPLWnhkjcj2PjmhfHJG9jkRzXse1zVRFRUXuSe9Je1K7w6+rhazsfFwO1+PQ1sirPm3WaTl0EFK2WW+jb4WLdrtj7iOl1/oz9XXNzJa/w+3j9VZKS/9I+PXw8d21wtdruWWcT5Zl3RR28S5rSLR7WTIlrdSzG1+RJLLqdvPJW31WQajZZuRSz03TRRVrW2lUPzc+fz8vL9dPOv6q+Xw/wbAwm5eosT0RWpUy1VO3RdVVsNanCcR22p5vbtx5qTIicJ2TsTj2e9oNvttj7rj83kotx9OQ9Ea47VT5JcpDA3hFbT1BF/2g1yNREj9+TIRtREajETkvExzRy2+uK+2WytKVpdZd6ra/L5VpTyr8/j8a/qez1fHyrT8XnX+T4ef5FSTpbxseIXo67HxONc2yd5xyClln/CXM6zch0dII7bY48fCummj2uohijpX3WPqdlhYnrr65seX5JfekvatdRc1rh6jtjUZ/Vu6kpZDdtfOTfcRyJrrqR23fbHDxI9jrayVrWST7Ya2LAw4/P3u0l9N0ldvYXcbTuX6I5p1xVt3CeTeVrYVcqJy2O2nELk5/7xYXr2+SnwtU2e9oHsRuglTH5nKS7cakn6GOxuqnxRYuSd3Sitp6gj4oOZ1O4Yt78nyO7J5fJK/Stfx2+X66VU8/ss3/k3gX/6n4iP/S9Lrc3FOYcW5ppsPf8AE+Q6bkWn2FnvcLZ6bY42xwsqPzrSl8GTjSSRS2/irWy6tKXUrT5+dFRn7LNr/wCTeBj/AKn4iP8A0vS6wv2ermv8YWyzmORzXZLUqte1Uc1UXQ+puHNc3lFRfXlOUVOOCSu6Vypf21zdulZr3Kk8GPlhs1ZorFeaN+QpuY+KaF74pGOaqK17Hq1yKioqp3KZgD1eEGQAAAAAAAAAAAAAAAAAAOK/L9dP20bW/wBm/wDxe/gY/qf+Gz/JzhzVIV+X66fto2t/s3/4vfwMf1P/AA2f5OcOUs+2N+aWx32m1f8Ag2GJG+Hb+lNSfUKX3iUzSAUOkqwAAAAAAAAAAAAAAAAAAAAAAAAAAAAAAAAAAAAAAAAAAAAAAAAAAAAAAAAAAAAAAAAAAAAAAAAAAAAAAAAAMdPFn+DN33+h7sX909gp/X/Ov5uP6ka4D4s/wZu+/wBD3Yv7p7BT+v8AnX83H9SNoTeb9d0/9UvfeapSD7V358bS/ZXUP41SPWA00VKgAAAAAAAAAAAAAAAAAAAAAAAAAAAAAAAAAAAAHJ2R1v252Z1FtabvrbmvIeI5/vLJZvtTnXW6/NujpWllNrqJ7Z9Vto7KXXemHZYeTFbWvqpZ5+VafPe0J0XeXtU+uur9fmbzg2k5z4dsvluTrp8nB2etwed43ZOPxqHIj2GRjSbGPR7PU3cCpLHNi62fX7OTa+6rBpo8L32T8wyg8N3/AO8/7O//AM6lz4JtxtXaA8RO3Wa01k31rePu5WSvHZjbdptdNg8nWk/4Wz1xfLhmlYqx+U9WPd8rnuu7Nud+d1dvIJMTp3V+Vbp+w3qt6avWpb+As+VI2dOcdZkfFA9ZGNVZaa1Ze384qctWpN3N4Zu8+gNhdhdq9db/AI1j3Te4xd57i3Y8Z2F91ZPd26/kuruy9LkTSWR3TUw6ZtudDF6a5GNFWvpp0R/p+X4V/uX4NpqdZu8DL1W51+FtdXnw34+brdjiQZuDmY8lK0kx8rFyY5IMiGWnwvilsusu/wDzU8kZffPsoPDh2t9N23BMfL6X5XkWySRz8Uijy+JTZN0dttl2Zw3LlixcaGL00pSDjedx6OvqkvlpNfd6nqm268dOMtrXobl6fkxUqq2N+e0+2S3QVVVqLNZxcz3Xq7U7uctWa+vr0xfBJf6G8XenMokNPXGLm0/bVWMXJY/zL+Ke7hEV8sPa7Vaq8qvS22xOf0kRCqmJBO+PZo+J/pG7N2WNxWnaHEMasl9vJOvbcnb5EGLSS6kcmz4x7mzkeDJbDS2XLkgwNhqsSnrpXayWx1krH9JFLDffZLHfFJZddbfHJbWy62+ytbbrbqXUpW26laVtrStKVpWnlWlK0qm3pPXej9c0W5DSeosXm6qtYrlo2opJ4FfyrY7NVyts1ZOEVPLsQRvRWuTjlCVmE1FgtSU2ZDAZfH5inJwqTULUdhrVVEVGyNY7zIX8LyrJo4pE+LDwAZcdyAAAAAAAAAAAAAAcV+X66fto2t/s3/4vfwMf1P8Aw2f5OcOapCvy/XT9tG1v9m//ABe/gY/qf+Gz/Jzhyln2xvzS2O+02r/wbDEjfDt/SmpPqFL7xKZpAKHSVYAAAAAAAAAAAAAAAAAAAAAAAAAAAAAAAAAAAAAAAAAAAAAAAAAAAAAAAAAAAAAAAAAAAAAAAAAAAAAAAAAGOniz/Bm77/Q92N+6ewU/r/n/ADRx/Usp/quZ95cQzOe9O9n8KwK0tzeV8A5Zx3GrXypSk+30eXgw1rdX4UpSSWlfOvy8vNTPyI5oJpcfIilgngurjzwzWXRywzQeUcsUsd9Lb7JI77LrL7L6UusupWl1KVpWjRO8bH+84KRGr0e73mK7jt1pNVcrUX6ejuqJ8O/0c0l+1fpWm6q2jyKwyJSfp/UdJtnpXy1sx5THWHwo/jjzEhka/p554XnjsegBpUqLAAAAAAAAAAAAAAAAAAAAAAAAAAAAAAAAAAAAAAyi8OH33NP7O/s3jF1lF4cfvuaf2c/ZvEgvC1/Xlon6xf8AwnIHMo/z/wD05f8AYpk8AuuOYcVpSvwrSlf56MVO9fBZ4c/ENHl5PYHXmti5Jk2XUs5vxulvH+Xwy1jvjinm2mBHbZt649JK1hxt/jbbBsvpS6uLd5U8srHHl86/jr/P+x2eIzma09ehyeByuRw+RgXmK7jLk9Kwz6W+bBJG5zHcfLY7rY9vKOYqLwd7gdS5/TNxt/T+YyGIts44mo2pq/UiOR3RIxjvLmYqp3jljlYvxaVr++vY4do8U+m7vonlWD2Zp7PeTRcX39cTjXMoIqej3cGLmyyWcb3kltvvb5ciXI45fd5WR4+BPJd5Ikucdec6603uRxnsDiPIeHb7G9V0ms5Fqc3VZV0Vsl8VMmC3LhiplYct8d/uMzGrLi5FlPXDNJZWl1b3taUrX4083wfP+r+u+1tJLxzsfhfHOa6WWtbrcHkGqxNjFBLW2ttMnDvniunwcu2la0jy8OSHKir8YprKpibdeNrXmnvIo64oVtZ41nQx16Py8Zno2IjW9SyxsWjdVqJ+jNWryvdyrrPcldobxe5/G+TT11ios9Ub0MdlMd5dHJsb2RXywcLStKiLz8hKj3qi9S8u6iiYLHffPsaevuRUzd10DzLM4Bs7qSSxcQ5Xflch4nJJSPyjxcPc097yTTRXSUpfJkZtOUyfG6kcFlvptpC73l4P/EL4eZ8i7sjrrb4mhimuji5jp7Pt7xHJsrLSCCT7eayk2Nr78q+62uPhbj7W7O+l1KVwrbrbqUnft34idrNyWwQYfUMGOy8vS38g53oxeT8xyonlwMnf7teXlURPcLNlfTlqL2Jh6K3c2/17HH/J/P1luyNRXYq+5tHKMcjUVWe62HIs6t7orqr7DV4VUXpRVMZhzWlafOlafz0cN4oqKiKioqL3RU7oqfSip2U2UAH0AAAAAAAHFfl+un7aNrf7N/8Ai9/Ax/U/8Nn+TnDmqQr8v10/bRtb/Zv/AMXv4GP6n/hs/wAnOHKWfbG/NLY77Tav/BsMSN8O39Kak+oUvvEpmkAodJVgAAAAAAAAAAAAAAAAAAAAAAAAAAAAAAAAAAAAAAAAAAAAAAAAAAAAAAAAAAAAAAAAAAAAAAAAAAAAAAAAAeN1lt1LqXU86XU8rv5afk/m8vn+VX59oL4EOT6LlW/7u6g0WVveKcgyp9vzTi+pgvytpx3c5clZNhvddgw21nz9RtJ635uygx7JsvV5suTmei/Uy311Ngh432W321tvtpfbX4VtupStK0/lpX4Vp/JWlafyOi1Fp6jqTHrQvI5qNf5teePjza8yIqJIzqRUVFRVbJGvyXt7LwqNc3SG/mwujPEJoiXRurmzVpIJ/f8ABZykkf5QweTax0bbVfzEVk0MjHLFbqScR2YV6VWORsUsdHOtK218q08vKtaV8/vqVp86XW+fwrT4fz/Nx/L+Lz8v90Wyu7/A14e+8vp2fveHw8f5XmVkkrzHiHu9Fva5MtLaVys6sEd+v3E3lbS2l28wNj6LPOkVLK+V1Ige7fZWdz8EuzNp1ZscHtPQxVvmtwP4LQ8vxofVddSz6Jl5P2n2nuIqU9c+NssPLypfucbUUrdbY0Dm9stQ4vqlqRty9Vqrw+oipZan0vqOXzOeF9YXTJ2Xnj0WjreL2em+e2i28jp6hFuTpyHre27plj1zEMDe7Vt6flct3rRqcv8Aye/IMThV7JwRZD9zknGeRcQ22ToeVaLc8b3eH5fStTv9ZmanZY9LvvLpcLNjhnsskpStY762+iS2nrsuut+L8Nr2SOWJzo5WPikY5Wujka6N7XNXhyOa9qORU44VFRF5TjhFILXqF3GWpqWRp2qNyvI+GepcrzVbMMka9L45YJ2Ryxva5Fa5r2NcjkVFRFAD8HEAAAAAAAAAAAAAAAAAAAAAAAAAAAAAAAAAMovDj99zT+zn7N4xdZReHH77mn9nP2bxILwtf15aJ+sX/wAJyBzKP8//ANOX/Ypk8AuuOYAAAAAejIxsbLglx8rHhyceeO+KeCeKOaKaOS2tkkUsclK2X2X0rW2+26l1K21rStKvePqKqKioqoqKioqKqKip3RUVO6Ki90VO6KfuKWWCRs0Mj4pY1RzJInujka5qoqOa9jmuRUVEVFRUVFRFReURUjl749mD4Y+5qZm00/HpOpOXZNL77d319Hj4Ornya0krZdsuIyR10E0V0stZsi7VwabY5V1LaSbKlKUohX759lf4luoPpu14rq8fuLiWNSWWmz4TFJ/xHDj2Us8rs/heRfJtbsi+vrrbBoJuR2WR2euaeLz9C2D8f5v5/j/r/wBzypSlf9fj+2rf23fiY3Z278itVzr9QYaHob+RtSLLkYGxNajfLq3HSJkaaNb2jZFadAzhv5lzU6Tf2hfEluRo5YqtjIJqfFR9LVo510k8zY29PLa+Sb/xsXyeUakr7Ube35vt2oN52DnavMytfssPK1+fhzy4uZhZuPLi5eLkwX3Rz4+Rjz2RzQTRSW3RyRSWWSR3UrZfSl3nR/Iu091+FToPxBYskXaPXOj3WxrDSHH5NixXajlmFZZX1RW43JNVdibasMN/8JbhZOTPr5Lq3UnxJY777LoX++vYyct09ubu/D1ziHluHZS+WLhXOLsXT8h9Nkd11sGv5Nixw6HaZE19LbI7dng8bx4ra/wudLWnndO/brxo7c6o93o6tis6HysnSxZbjlu4GSRVY1EZlIY2vrMVVVVdfq14mNT5U69lWZGhfE9t3qxIamXml0llZOlqw5ZWuxr5OET8xlIm+SiK5fS3HWcnKfKXuQbDsnsvp7tDp3d3cc7O4JyPhe1pWX3MW71uRjY+fZDW22XI1ew9N+u22JbddbT6ZrMrLxLvVSls1fPydbJdY3K43MU4chichTydGwxJILdCzDbrTMX0cyeu+WNyf4td/wDCokia1mvbgjsVJ4LVeVjZIrFeVk8MsbkRWvZLG98b2u9Uc17kXnsqgB2B/YAAOK/L9dP20bW/2b/8Xv4GP6n/AIbP8nOHNUhX5frp+2ja3+zf/i9/Ax/U/wDDZ/k5w5Sz7Y35pbHfabV/4NhiRvh2/pTUn1Cl94lM0gFDpKsAAAAAAAAAAAAAAAAAAAAAAAAAAAAAAAAAAAAAAAAAAAAAAAAAAAAAAAAAAAAAAAAAAAAAAAAAAAAAAAAAAAAOK0pX50pXz+FfOnn8PyOQB1V2b0r1b3Bq6aXsfhHH+VYVKSUg+2ODHXMwbprPd3z63YRe7ztblVtrW2mXgzwZFtPvJKVRN92+yN1mT9N3PRPM79XLW6WWHhnNbps3V+d91tbcfX8kxbZdrhQxWer0W7HD3k80laUkzIrfOqbevxrT4/l+H5f8af7q49Pzp8vOv8v/AH+P6/8As6LL6bwmdYrclj4Jn8KjbLW+VaZ27cWI+iVUTlelrnPYiqvKd1Q0jup4dNnN5a0kevNE4rIXns6Is7ThTGagrqicMdFl6SQ2pEj9WxWXWIEX+64VUWm52z4eO5OkM6TE7K4FvNBBSakEG6pj0z+N5l1919sNMbkGBfk6u6aaltb7MOXJiz7LK09/ixXedtOlq/78vjT+/wA6/wCq75tNPq93hZOu2+uw9ngZcMkGViZ2NDlY2RBLb6ZYZYZ6XxyRyW1utvsvt9N1ta21pWlUc3dvswOhOyqZey4PDk9S8kmtkktn4zFbNxmaetlKWUy+KzyW4UWPZX7r3Oin0V199a3SzSV9TUec2jsR9U2AupYYndKd1WxTJ8elllqJDIqr6eayDhPV/wASrXeH2XGo8b73ldmdVQ6hqN65Y9MandFj8u1qcqkFTMQtbjrr/wCyz3uDHc9uqZV5UrOfz/z/AA+P+rhnR3V7PXxGdO3ZWwh4zd2HxXHuvrbyDgceRtMqyGl9aR37DjV1tu8xpa2U97kVwcbZ6/FspX3ux+HnXBqSOSGSSKWO+KSK+6OSOSy6ySOSy6tt8cll1KXWX2XUrbdbdSl1t1K0rSlaNU5HEZPETLBkqVmpJ8Elic1jkTs50cvCxyNX16o5Ht7+qIVma72w3A2yyb8PrvSOc0zeY96NblKE0NewjFRFkp3Ua6pch79patmaNUVF6kPAB1xgQAAAAAAAAAAAAAAAAAAAAAAAAAAAAZReHH77mn9nP2bxi6yi8OP33NP7Ofs3iQXha/ry0T9Yv/hOQOZR/n/+nL/sUyeAXXHMAAAAAAAAAAAA+W5hwjh/YGjyuN834toeXaDNpS3K03IdVhbbXTVt+6tvvxc6GaGksVfK+Ka22k0V9Lb477LrbbqRPd8+x46a5vXN3PS3INj1NvZKyTW6LMpkcn4XkS3Vllujshy8m3fab38l9ttZMbZ7HBxIbLI8XS0pb5VmKcV/v/k/3Vm2jNx9c7fXEu6Q1Lk8K7ra+WtBOsmPsq3/AO6x0/m0rPxTmSBXtRXdD2qvJnujtztdaEnSTTeob1ODrR8mPlkW1jZu6KqSUbCyV16uOHPY2GTj+89FKZ3e/gW8Snh7uzMzmnAMzbcVxPVfXm/Dfecl4vXHjstvvysvJxILNho4La1rbS/ket09191laxWyW+m+7EKtK0rWlaVpWn4q08v5F+u+y2+2sd9tt1l1K0usutpdStK0+NPK7ztr50+FaV+FafjYK98ezo8MPe9czZZ3DLOBcuy63yV5b19XG49mz5Ul9JpJ9nqLMebju3kyJfjlZWbqZNnLbdfSPYQSXUltnBt146pGpBQ3M071p8lj9QabTuvZrfMtYexJxyvd8j6Vzp5VUjqIiIhMLQ3jAxtvyKWvcK/HSqrGOzOFR1imqqqJ5k+OketmFFVUc5YJrPCdXTEvZpT9Eq/fPskvEL1jTL2/Wk2B3RxjHpfLbHpYqaXmWPBZbfJfWfi+dlTR511vlZFHFodttc/Kvu9VmtitpVF9u9DveM7TN0fJNNtNDutdN9H2Gp3OBl6zZYU1Lbb6w5eFmwwZOPLSy626lk0Vl/prbWtvl5VrOTRW5+g9w6iXNIalxmXTpR0tWKwkWQrc8cNt42x5N6s7lePztdqO/suVOOZbac1fpfV9Nt7TWcx2YgVrHu90sMdPD1InCWKyq2zXdyqtVs8Ma8oqIrl5PyK/L9dP20bW/wBm/wDxe/gY/qf+Gz/JzhzVI/8At/7f4trx7O3Cytb4BPBHrs2GTGzcDwk+HPDy8eW26ySDJxuoeIwTwyWXUpdbfFJZdZdbdSlaXW+VaUrRUt7Y1U/kpse3n5X8ptXrwq9+PyNhk549eOe3Ppz/AIksPDtz+U9SLwvHuFLv8P1iXt/mvf8A9FMyAFDxKsAAAAAAAAAAAAAAAAAAAAAAAAAAAAAAAAAAAAAAAAAAAAAAAAAAAAAAAAAAAAAAAAAAAAAAAAAAAAAAAAAAAAAAAAAAA8LrLLqVpdZbdbX523W0ut/ur50/wYvd1eD3oPve3LyOa8G18fIZo6Wx8u0XnpOSw30sujhvv2OFdFdsLMf11uhxNrZm4Ft3lddi3V+DKOlKV+6p/f8AH+YrT5/Dz8/xf7r5U/1cezUq3YX17laG1A9PlRWImSxr/wDteioip34cnDmr6Khjup9I6X1pi58Lq3T+I1FirDVbLQzGPrZCs7lFRHIyzFJ5cjeeWSxKyVjuHMe1U5K8PdvsnOy+K/S9t0zyTE7F1VlJJrOPb27H0XK4o7aW+iCDOrfHodvN9/dJPPfx6ylKW2xwyXfGsXXMeC8y6+3EvH+b8X3vFNzF663a/f6zJ1k8llkl0dZ8X6TZZZmYt19l1IszEvmxp6U9UMsllaVrdi8vl+Knl8afGvz/AF/3PhOedYcA7O00nH+f8R0PLNRLf67sPd63Gz7LJKUrS3IguyLZL8fJj861iyobrMiG77qK+y6lKtYZvajEXeubETyYuwvdIXdVik5foRrnedDz9LXyNT0SMrl3h9mRtlqv3rKbWZi3t7l5FfKzE2/NzGmJZF+V5bGSP/KeNa5yqnVDYtRRt4RlZEREKVvz/ncJ/e7vZJ8K3VM3cdIcqy+F538JLBxPkt+VvOMy3+itbMfF2d0l++1Vl8nxmyciXf8AlT7mHDsp8oiu5PCt3r0RNkV7B4HtMXTx33Ui5Vp47t3xTIjpJSOOW7cYVJLdb766tPo+NuotbnS/P6LS3401Fm9E6jwXW+1SfPWbyqXKfNiv0pxyr1YxZIvkr6TxR90X5XxKrt3fCLvpsy+zPqXR1vJYKBXq3U+m0kzeFdE1P52xLViWzjkVPldORq1eP+deOVx3AYn3TsqcKRlcjmqrXIrXIvCtcioqL9CovdFAAfAAAAAAAAAAAAAAAAAAAAAAyi8OP33NP7Ofs3jF1lF4cfvuaf2c/ZvEgvC1/Xlon6xf/Ccgcyj/AD//AE5f9imTwC645gAAAAAAAAAAAAAAAAK08/hWnnR0v2/4eOl++NXXV9rdecd5dbZDJj4exy8WuLvtZZLWl1/2p5Dr78Teaz1XWWXSW4OfBZLWy2k1t9tPJ3Qyj6h8KPYfZt2Ls9nBLw/ist1t1dntca/7YZ0NaVu89bq5KxTXW30pb6cvMuxoK2S2z49M2226N19/WlTQqRZ6fPSafmqP8ytcq25qt9JWKjkSmtWRlp8vKJw2FHL8V4bybR2n0RunrjVFTGbU4vUN7PI9jksYV9itFRY5yNWe/kWPhqUqqL+nJcnZEvCt6JV4jK5+t9gfh9v9z8M0vTHZWfq+D7HlOnyOf6bl2JXLz+O8Et20F/Kc/j3JdXjUjy9ljaW+fG47qt1qYrcvafQ8fP5FS2eTIivi8f0Wq4xotNxvR4MGt03H9XgaXUa7Gtrbj4Gs1mLFhYGHj0rWtbYcbFhihitrddW2y22la1fA9VdO8N6h0v2q4tg1tnyPd3bPbZV1s2z2s0Nt1tk2Zkem34W+q+sWPBZDiwe8k9zjxe8vpXtavn+L4fyom+IbxIa53+u6bramzd7KYPRVa9U062+yu249cjJXddvXpIIo3WLM7adaGN9h000VeFGrJ5ksyu9HPht2v1jtloGvU3Ez1bUet8i5k+XuVIYmV6cLG/8ADYuOeOKBbz6vVIs910MXnzSO6GeWyNzgCOJIYAAAAAAAAAAAAAAAAAAAAAAAAAAAAAAAAAAAAAAAAAAAAAAAAAAAAAAAAAAAAAAAAAAAAAAAAAAAAAAAAAAAAAAAAAAAAAAADitKV+dPk/ly8PEzIJIMvGgyYJY6xSRTx2y2Xx3U9N1t1t1K0rbdbXyrTy+NPOlfOlfJ/WV8/wAXw/lPVFRfReyp8FT6FPxJHHMx0csbJY3orXxyMa9j2qnCtc1yK1yKiqioqKip2I9+6/Zu+Hjtv6TstNpJOseU5F0kldzwmkWFgTT3eu71Z/HJaX6aeySaT3uVJiY2FscmtPK7YW/CqIHu32a3iF6opm7Pjuux+1OLYtb76bLiMV9vIIseylK0kzOJzyy5t8t91a0sx9Hlb6T02+uT3dK1pS0JWlfh86/H41/3Wn+Hn5eXy/E4rb6ra0u+6pX8X/t50p+z9bDM3oLTmcV8ktT3K07lfeqCMgerlXlXSRI1YZeVVVcro+ty8/LTnkiHu/4H9hN3Us3LGmmaO1HP1v8A5Q6PbDipZJ3cu827jWxOxV5XPVXyufUjnk5X8+1y9RR8zcHN1uXk4OxxMnAzcOaTGy8LNgkxMzFyIrq2ywZOLPbZPBNHdStskcllt9l1K23UpWlX8v8Ap8Vw7uHwv9Id6Y0kfYnA9PttjSH3OLvsaO7V8jwraXVvstxd5r78bZWQ2X1pJXFuyK4c11KUnglsrdbWIfuz2SXLNP8AStx0dzCLlWJS2+WzinMro9du7Lbbb76RYHIMKKPV580l/pighz8DTwxWfdz7KSvnc1Bm9rc7juqXGujy9dOVRsSeVca1O/C13u4kXv8A3Mj3Kvoz4FVe8Ps3t5tA+95LQ76m5uAh8yRrcUxKGpIYW8qnnYWzKrbT0bwnTjblqR7u7a6ehDV/v5OHYPYfVfY3VG3u0PY3DuQcR2dt8kcUW518kOLmUh8qSSavZR1l1u2x7K1tpXJ1mVlY3nWlKS1dfNbzQTVpHQ2IZoJWKrXxzRujka5PVHMe1jk+Hqnp3TlFQr/zGEzGn78+LzuLyGHyVSRYbNDKU7FC3BI1O7Ja9qOGVi/+Jic+vdFRVAP4nVAAAAAAAAAAAAAAAAAZReHH77mn9nP2bxi6yi8OP33NP7Ofs3iQXha/ry0T9Yv/AITkDmUf5/8A6cv+xTJ4BdccwAAAAAAAAAAAAD6fiXC+U8720Wj4lo87d7GX0+cOHF5xwWXVrT32ZkyVjxcKD4eXv8qaGL1eVnqrfWlLuPat1qMEtq5Yhq1oWq+aexIyGKNqernySK1rURPiq/RwdliMNl9QZGricHjL2Xyl2ZkFPH42rPcuWZpHdLI4a9dkssjnLx2axeE5VelOVT5h211j0l2D2zmWw8X099Nbbf6cvkGwpfiabF9Na+un0m6O67Klsrb6bsfCjyZo7rraz0hju95bnd0/4ItPqK4m87Tyo99n2Vtlt41h3Sx6TFktvpdbTNnr7rI2t1PTbW+K6zGwq0rJBNjZcflJdnvrNXr9PhY+u1eFja/BxIbMfGxsSGOCCCGOlLY4ooYqW2WWWW0pbZbbSlLaW0pSlKUojlrff6jSWaho+JmQsp1Ruy1hrkpRO9FdWhcjZLSoqcte/wAuHlEVElavJaH4f/Zs6j1D7jqXe65NpfDu8qxHo3Gyxv1DcjXpekeUup5tbERvTs+GFbV7hXMc+rInKYudQeEvgHW30bbbmO3mHKYqxy27PZ49tMLAmt9N9LtXq/XLDj32X2W3x5U1+TmR3er3WVbHfWOmWNkdkdtLI7LbLbaUpS2y2ltKeVPL4Up/I8vx/krX/Hy/JTz/ACOUW81nsxqG4+/mb9i/Zeq/LneqtYirz0QxN4ihiRfSOJjGN49PiXB6B220Pthgq+nNCabxmncVA1qLFQrtbNZka1Ge8Xrbuu1esvRPl2LU0srvTqRvDUAOoM4AAAAAAAAAAAAAAAAAAAAAAAAAAAAAAAAAAAAAAAAAAAAAAAAAAAAAAAAAAAAAAAAAAAAAAAAAAAAAAAAAAAAAAAAAAAAAAAAAAAAAAAH6gAfJcv4RxDnWmyuP8w41pOS6bOtpZl6zdazF2OHkW0r52+8gyo747q2V+6srWla2XeV1vlWlEX3dvsoOquXfTdv1Bvc/rPb30unt0mV77kHEsiW666S6OzHy8qzbaus191ttL8XZS4OFFSlsGqupbSOstnlX5/e1r8/x+f5Pj8P8Cvwr5+Xz/H8aeX4vy/H/AA8nU5TB4nNReVk6Ne0nCo172Ik7P3c7OmZnC8Lw16JyndFNU7lbIbV7u0XUdwNF4XP/AJtY4L8tVlfL0+f7VPL1fJyNdUX5XSyz5aqnymOTlFqM90+DPxBdFXZOVy7g+XsuO4/rupy7iPveQ8d9zHZ7yTIy5ceKzZafHsp9zWfd67WxXX09MN8vwuuxY+XlX5fzeVa/3efw/WvEywRT2e7mismsupW262SlLrK0r/8AdZd50uYTd2+z+8O3dP0vZT8WpwnleTfJLfyjhFYNJlzTyXUvkm2Gvtim0u0lmu8vf5Ow1uRm3WedsWTBW6tzU2b2jb8ubAXfpX3K+v8A7RWmN/0Rs0S9vWTn0q/3h9lq9Pesrsrq5Ht+XKzSmr3Ix/HdyQUc/Wi6XL6MjZfpt4RE8y4qqqlU4SY91+y87364rmbTgF+F2zxzHrfN/wCU2W6nlkEFtL5L/e6DNypMTOrFZbbHHTVbTLzsyWvnHrIvOltI4tzptxx/ZZen32q2ek22DJ7rN1W4wMrWbHDm8qXe6y8DNiiyceSlt1K+iWO2703W18vKrUuVwOYwkvlZOhYq916ZXM6oJOF/u52dUT0/8Mir9LUVF4q/3I2W3Q2lyDsduBozN6ef5ixw3LNR8uKudP8AapZWt5+PtNVPlfmrTnonZ0bV5RPywHUGrQAAAAAAAAAAADKLw4/fc0/s5+zeMXWUXhx++5p/Zz9m8SC8LX9eWifrF/8ACcgcyj/P/wDTl/2KZPALrjmAAAAAAAAB8VURFVVRETuqr2RE+lVXsh+mtc9zWMa573KjWtaiuc5V7IjWpyqqq+iInKh/VhYWbssqDA12HlbDOypLYcXDw4JsrKyZrq/cxQQQWSTTSXfH02R2XXXfipX4sluofCp2H2dXG2efjycQ4rLW2+u32uPf9NzIq+df/LdXfdDNJZf5W+nKy7sXGrZJbPjVzKW1irKL1X0L151LiW049qbJ9xfF7rM5BsvRlbjN+FvqpXJrbbbjQ33WW3VxcOPHxaX20kpBSStb66c1tvRpvS3nU6D25zMM5b7tVkatSvJwna1cb1MRWrz1RQ+bIiorX+Xyik49gPAhurvE6lnNQQTbe6HmWKVctmqr0y+SrO6XK7DYaXyp5EkYv5q3dSpUVFR8aWE7Lgb1B4JuQ8g+jbrs3Jk45qrvdzR8ewr4pd1lx+da0szsq26/H1kclKW+cUVcjKvskusukwJ4/JJTwvgHEev9XFpeJaLB0+FFS3ztx4fOaaWkdtlcjKyb7r58rJvtstpJkZEl88nlT3kl1X2dPKnyp5eXw8vyOUSNW6/1NrKd0mXvPSqjldDjqyuhowJz8niFq/nXtT+9ndLIvK8KicIXXbLeGnafYnHsg0Zp6GTMuhbHe1Vlmx3tQ3l4b5nN18ae5wPc3n3SgytX9OqN7k6lAMKN+gAAAAAAAAAAAAAAAAAAAAAAAAAAAAAAAAAAAAAAAAAAAAAAAAAAAAAAAAAAAAAAAAAAAAAAAAAAAAAAAAAAAAAAAAAAAAAAAAAAAAAAAAAAAAAAAAABxWlK0rStKVpX50rTzpX+elXTHa3h/wCn+6tfTW9lcE0XJLbYZYsbNnxa4+419Jfndrd3h34+011911Keu7CyoLr/AJXXeXn590OK+f4v7vy/r/E/lNBDZjdDYhinhe3pfFNGyWNyL6o5kiOa5F/xQ6nNYLCajx9jE6gxGNzeMtsWOzj8rRrX6c8a+rZK9qOWJyfRy3lF7oqL3IK+7fZG5Ef0rc9D8297bW6SSPhvOq18rfO66+sWv5NgQVvtsjs9MOLi7DVZUklaUuytvb8bqxNdn9H9sdMbOur7M4NvuKzVlrDBmZmLSfSZ1/l6vTrt/hSZOnz7/RT1yR4mdLLDbXymsju86Uub+n4eX8vn5eX/AP1+L+f/AN/xt9xvRco1mbpuR6bW7vU58V0Gbrtrh4+fhZcF/wB/DkY2VZLDLHd+OOSytlfx0+NaNb5va7A5Hrlxyvw9l3KokKJNUVyryqLXe7qjRV558iVjUT0YqIiFfe8Ps2dnNd+95PQM9vbTPS9crYaLXZLTM87vlcS4mzKk9Njndv8As+7DFE1fk1nI1GLSMr8K/wDb40/v+P7XCyV3b7LHpLsCuZtutsvO6l5BNSSb3Ors+2vE5577qXVrLxzKyYrsOP02+7hg0ex1GJD6q31xZq08qxBd0+A/xF9KVys/Y8Om5fxjHrdWnJ+CW5G+xbYaVkr73YauyOPea62OK2kmVkTa67W49bq227GX01uahzegdRYTqkfUW9Vb396odUzEanxliRvnwpx8XxKxF7LJ8Sqzd/wS787QLZuXtLyar05X63fyj0g2bL1GQt5d5tylFEmUoNRveR9imsDPT3heOTDIc1pW2taVpWlaVrStK08q0rT50rT4+VaebhhaoqKqKioqdlRU4VP80IjPY+NzmSMdG9q8OY9qtc1U9Uc1yIqKn0KgAfD8gAAAAGUXhx++5p/Zz9m8YusovDj99zT+zn7N4kF4Wv68tE/WL/4TkDmUf5//AKcv+xTJ4BdccwAAAAAPpuKcN5RznbQ6Pielzt5spfL+Aw4vVZBZWvl77Lyb7rMbCx6XfCuRlSww0u8rK3+u62lZH+nvBDqtXXE3namTHvM+2tJbeM4V0lmnxr7bvVbbnZNaR5G0up6bK3RUtxsLz95BPDmxVpJXBdX7iaZ0XC52UvNfcVquhxlVWzXZV4Tp5iR3EDF/72d0bPXjrXsSD2U8Mm7O+9+KLR+n5q+DbM2O9qzMMlo6fpNRydfFt8aresMb8pKuPjtTKvCP8lF6kwR6y6V7A7YzKQcV00ldfHf6MvfZ9L8XS4np+/pdl3WXVyZrPKlLsbCjyciz1WXSxxRXe9pKF1B4R+A9cfRtvvLLeY8phrFNZsdjBbbga+e2tt9tdZrPeSww32X223x5WRdk5kd9K1hyY7L6x0ym1ep1ulwcbW6rCxdfgYcNmPi4uHDZj48EMdvpsjiiipbZZZZbSltlttKW220pSnlTypT9H/f5URta7yam1Z5tStI7C4dyq33OnI5s87P/ANXbajJJEci8Oii8qFUXhUfxyt1+wXgV2n2bbSzWarR6/wBbwpHKuZzVaN2Lx1lvS7qw2Gf5kEKxyJzFbtrZuIrUkZJCvyW+FkdkdtLI7LbLaeXlbbbS2lPL5fClKUeYNRcqvde6k3WojURrURrWoiI1qcIiJ2REROyInwRAAH0AAAAAAAAAAAAAAAAAAAAAAAAAAAAAAAAAAAAAAAAAAAAAAAAAAAAAAAAAAAAAAAAAAAAAAAAAAAAAAAAAAAAAAAAAAAAAAAAAAAAAAAAAAAAAAAAAAAAAAAAAD13xRyW1skjsvtrTyrbfZbdb/dWnk9gHxURyK1yI5F7Kipyip9CovZTEHu3wR+HzvW3OzeScMxdLyjKpdfTmPE/RouQUnut9H0jKlgtrh7eSynppHbu8PYw2U+NsNLqUrSITu/2U/cHCbsva9TbfA7Q0Ufrls1WRXH4/y7Hi9fnbFbHlZP2l2/uYfjNk2Z2qmmkpW3G1VfVZasb+Vfj5/Hz8vxfk/XT9p5fGvx86eXl6f91+df2MVzWjNPZ1HOt0GRWXc8XKfFexyvHynqxvRKvZOfOZJ/n68xg3e8HuxO8rLNnUGkK2Gz86PVNT6WbFhcv5zuV86ykES0si7qVFVb9Sw9eOPMTlSklyXinJ+GbfI0HLuP7rjO7xf/r6rf63L1GfHbWt1LJK4udFDLdFf6a1imttrFNbT1RXXW1pV8//AL/J/j5roPY/TvWXbmoro+xuF6DlWvrST3Vu118E2RhySWVjuyNfm1pTM1+X6K+mzMwZocmz4Vslt+dIoO7vZHaPNtzNz0VzKbRZHnfLBw3mV+Rs9LdWvp9GNg8hgpLuddDHbS6tbthj8hnmvupSs0NlPNqDN7UZamr5cPOzKV05VIXcV7rU+hEc7yJlRF9WyRuVUXiNF4Qqu3h9mZujpBbWU2wylTcTDR9crMZL5WI1PDEi9XQleaX8nZB7W8N6qtuCWVyfIqoqowgcHefbvhw7p6MypYOyeB7rSYVs3uod9BBTZ8Yy/XJWyD3G/wBffka+yXI8vXFhZkuNsLbK097iR31rbToxrC1Tt0ZX17laerNGvDop4nxPT/NsjWqqLx6pyi+qOX1K6dS6U1Lo7Jz4XVOBy+nsrVd0WKGYx9rH2o3Iqp3itRROVq8KrXs6mPT5TXuTuAHHMeDKLw4/fc0/s5+zeMXWUXhx++5p/Zz9m8SC8LX9eWifrF/8JyBzKP8AP/8ATl/2KZPALrjmAGTnUXhX7E7Pri7PLx7+JcVmrbdXcbTHv+lZkN1K3Uu1erurFPkW30pb6MrJvxcW+OSk2PJlei6OvS5zUWG03TdezWQr0K7eeFmenmSuTv0QQt5lnkd/ZZExzl+KInKpnm3+2Wu90s5Dp3QemcnqPJyub1to13OrVI3ORq2L91yNqUq7OeXT2rEMaIi8dbuGrjZh4WZsMqDCwMXJzczKkthxsTEglycnJmvr5WRQQQ2XyyyXV86WWWW3XXfGlKVrRnN0/wCCjkfI/o267LyJOM6i6kc8WgxbopN5mx1rWvpy5/O/H1cd9Lba1jspk5d0d98d9cDIj82efVfQXXnUuLZTQamzJ3N0Xu8zkGy93lbjLpd6fXT391ttmLBddZZdXFw48fF9dlJKw1l87692eVPjTy86fD7n8n+P+/5UVtbb+5LI+dj9JRPxdNepjsnO1rshM305gj5dHUaqejlWSbvyjonJ2uG8P/s2tMaZ9x1JvXch1XmmeVZj0jjpJI9OUZU6ZGx5K0iRWMxJG5ER8MaVaCuRWubajXqX4zhXX3EOvdVFpeJaLB1GFHS2t1II/OfImpZbZWfLyb7pJ8vIutttpfkZF8k19KW+qS/ypV9qCPFizYtzSWLU8tmxK5XyzTSPllle7urnySOc5zl+KucpZ9i8Ti8HQq4rDY6lisZShZXp0MdVhp060MadLIoK9dkcUbGp6I1qJ8fVVAD+J2AAAAAAAAAAAAAAAAAAAAAAAAAAAAAAAAAAAAAAAAAAAAAAAAAAAAAAAAAAAAAAAAAAAAAAAAAAAAAAAAAAAAAAAAAAAAAAAAAAAAAAAAAAAAAAAAAAAAAAAAAAAAAAAAAAAAAB+dstVrdth5GDs8DEz8PJhvgyMbMx48mCeGW2tkkUsUtt1skclta2X23UrS62taVp5Vqjt7s9mV0B2fTI2fD8Ofqbk01Jb6ZnE47P+H5562VpH9O4rPfTXWQW3V95JZprtNkT3edZsuvx8pIvj8fxfkr8/wDBxSny+Pq8vx/H/v8A93XZHFY3LReRkqVe5GqKiJNG1zmc+qxydpIncc/Kje1yeqdzANfbV7d7oYx+J19pDB6mqOY9jFyVGJ9ut1pw59LIMSO9Sl+iSpYhei9+VKsPdfs7fEX1BXL2ODx6nZXFce+Stm84PFNnbGzHtvpSO/YcXu/84hnut85JLNXHucTGjpWs2fSnl54KzQzY8suPkRXwTwSyQzQzWXRTwyx3Vskiliv9Mkckd9K232X20usupW2tKVpWi8NdbS+2ttfK+la/GlaedPKv4vL1eVafyfz0/Kxq7o8I3Q3e0WTJzngmsk3skdLIeVae2ul5Lj3W23WQV+2+uugycuLH9VbosPYVy9f6qUrfiSUp6a6qze0dWbrmwV11Z/dyU7irJA5VX9FlliebEnHPCSMmT05c1OVKyd4fZb4O+lrK7Marlw1lfMlZpfVavuY1y/pJDSzVeNbtVv8AZjbdr3U/RR87URXFQn/H+f4f6/6sn/Df5/8Azp5/P/5d/wD53+dnP3B7I/n+lyZs/pnmWt5hq7q3SR6PmFa6XkGPHS2nohi2uBBLqdrPJdStK3z4mgijt8qfd1p6rvl+ifAh4n+NZnJ8XknXkWii2F+ltw9hk8n4tl4ctuJ9tqZElKancbLOjsjplQ1r73DsvvpfX0WXVtupTIPD9gsnpHefSWSz9V1DG0p777OUkc12PiY7G3Y2PfaY5Y29Uj2Maj0Y5XOa3p5dwV2Zvwg+I7Seddh7u1GqshIiyRR38DRfnMXP1csZJHkca6asxj+zk94dWe1F/OMYvKJ+A7V6z6Y7A7XzqY/FNLLfg2X+jL3udS/E0uH6fv6SZl0d1Z5rfh6sXDjycmz1WXSRWRVrLTPPqbwOafUS4u57P2MXIsuO6yS3juu97DpopLbvVSmXlXUiy9nbStLa0s91g491K3xZGNlR3M9dVqNbo8HH1mpwcXW4GHDZBi4uHDHj40EMdtLbIo4YqWWR2WW0pS222lKW+VPLyp5UWB618QGPptko6PhTI2uFYuUsseyjEqpx1V4HIyay5vfhz/Ki54VElb2JmbBezX1Pn309Qb3XZNK4dHMlZpHGSwzaivMTpcjMhdYs1TERPTs5kLrd3hXNVaz0RyYrdQeEXgXXf0bcb6y3mPKYaxzWZ2xx7bddrpra2yW3azV1kkjsvjussutysq/Jy7L6VvgmhsuujplzbZHFbS2yy2yy2lKUtttpbSnl8KfCn8nweXl+rz+f+6ufn8Kot5vUGY1FcffzN+xfsu5+VM9VZG1V56IYk4ihjRe6MiYxv0oq9y4Lb/bPQu1uCg05oPTWM07i4WsRzKNdrbFuRjUZ7xfuP67d6y5E+VPamlkXlURWt4agB0xnQAAAAAAAAAAAAAAAAAAAAAAAAAAAAAAAAAAAAAAAAAAAAAAAAAAAAAAAAAAAAAAAAAAAAAAAAAAAAAAAAAAAAAAAAAAAAAAAAAAAAAAAAAAAAAAAAAAAAAAAAAAAAAAAAAAAAAAAAAAAAAAAAAAAAAAAAAAAAAAAAAAAAAAAAAAAAAAAAAAAAAAAAAAAAAAAAAAAAAAAAAAAAAAAAAAAAAAAAAAAAAAAAAAAAAAAAAAAAAAAAAAAAAAAAAAAAAAAAAAAAAAAAAAAAAAAAAAAAAAAAAAAAAAAAAAAAAAAAAAAAAAAAAAAAAAAAAAAAAAAAAAAAAAAAAAAAAAAAAAAAAAAAAAAAAAAAAAAAAAAAAAAAAAAAAAAAAAAAAAAAAAAAAAAAAAAAAAAAAAAAAAAAAAAAAAAAAAAAAAAAAAAAAAAAAAAAAAAAAAAAAAAAAAAAAAAAAAAAAAAAAAAAAAAAAAAAAAAAAAAAAAAAAAAAAAAAAAAAAAAAAAAAAAAAAAAAAAAAAAAAAAAAAAAAAAAAAAAAAAAAAAAAAAAAAAAAAAAAAAAAAAAAAAAAAAAAAAAAAAAAAAAAAAAAAAAAAAAAAAAAAAAAAAAAAAAAAAAAAAAAAAAAAAAAAAAAAAAAAAAAAAAAAAAAAAAAAAAAAAAAAAAAAAAAAAAAAAAAAAAAAAAAAAAAAAAAAAAAAAAAAAAAAAAAAAAAAAAAAAAAAAAAAAAAAAAAAAAAAAAAAAAAAAAAAAAAAAAAAAAAAAAAAAAAAAAAAAAAAAAAAAAAAAAAAAAAAAAAAAAAAAAAAAAAAAAAAAAAAAAAAAAAAAAAAAAAAAAAAAAAAAAAAAAAAAAAAAAAAAAAAAAAAAAAAAAAAAAAAAAAAAAAAAAAAAAAAAAAAAAAAAAAAAAAAAAAAAAAAAAAAAAAAAAAAAAAAAAAAAAAAAAAAAAAAAAAAAAAAAAAAAAAAAAAAAAAAAAAAAAAAAAAAAAAAAAAAAAAAAAAAAAAAAAAAAAAAAAAAAAAAAAAAAAAAAAAAAAAAAAAAAAAAAAAAAAAAAAAAAAAAAAAAAAAAAAAAAAAAAAAAAAAAAAAAAAAAAAAAAAAAAAAAAAAAAAAAAAAAAAAAAAAAAAAAAAAAAAAAAAAAAAAAAAAAAAAAAAAAAAAAAAAAAAAAAAAAAAAAAAAAAAAAAAAAAAAAAAAAAAAAAAAAAAAAAAAAAAAAAAAAAAAAAAAAAAAAAAAAAAAAAAAAAAAAAAAAAAAAAAAAAAAAAAAAAAAAAAAAAAAAAAAAAAAAAAAAAAAAAAAAAAAAAAAAAAAAAAAAAAAAAAAAAAAAAAAAAAAAAAAAAAAAAAAAAAAAAAAAAAAAAAAAAAAAAAAAAAAAAAAAAAAAAAAAAAAAAAAAAAAAAAAAAAAAAAAAAAAAAAAAAAAAAAAAAAAAAAAAAAAAAAAAAAAAAAAAAAAAAAAAAAAAAAAAAAAAAAAAAAAAAAAAAAAAAAAAAAAAAAAAAAAAAAAAAAAAAAAAAAAAAAAAAAAAAAAAAAAAAAAAAAAAAAAAAAAAAAAAAAAAAAAAAAAAAAAAAAAAAAAAAAAAAAAAAAAAAAAAAAAAAAAAAAAAAAAAAAAAAAAAAAAAAAAAAAAAAAAAAAAAAAAAAAAAAAAAAAAAAAAAAAAAAAAAAAAAAAAAAAAAAAAAAAAAAAAAAAAAAAAAAAAAAAAAAAAAAAAAAAAAAAAAAAAAAAAAAAAAAAAAAAAAAAAAAAAAAAAAAAAAAAAAAAAAAAAAAAAAAAAAAAAAAAAAAAAAAAAAAAAAAAAAAAAAAAAAAAAAAAAAAAAAAAAAAAAAAAAAAAAAAAAAAAAAAAAAAAAAAAAAAAAAAAAAAAAAAAAAAf/9k=;" parent="1" vertex="1">
          <mxGeometry x="185" y="530" width="60" height="60" as="geometry" />
        </mxCell>
        <mxCell id="VxR14Vq80_6-qc9pXVwi-181" value="" style="edgeStyle=orthogonalEdgeStyle;fontSize=12;html=1;endArrow=blockThin;endFill=1;rounded=0;strokeWidth=2;endSize=4;startSize=4;dashed=0;strokeColor=#4284F3;exitX=1;exitY=0.5;exitDx=0;exitDy=0;entryX=0;entryY=0.5;entryDx=0;entryDy=0;" parent="1" source="127" target="VxR14Vq80_6-qc9pXVwi-179" edge="1">
          <mxGeometry width="100" relative="1" as="geometry">
            <mxPoint x="500" y="360" as="sourcePoint" />
            <mxPoint x="600" y="360" as="targetPoint" />
          </mxGeometry>
        </mxCell>
        <mxCell id="VxR14Vq80_6-qc9pXVwi-186" value="External&#xa;Infrastructure&#xa;3&lt;sup&gt;rd&lt;/sup&gt; Party" style="sketch=0;points=[[0,0,0],[0.25,0,0],[0.5,0,0],[0.75,0,0],[1,0,0],[1,0.25,0],[1,0.5,0],[1,0.75,0],[1,1,0],[0.75,1,0],[0.5,1,0],[0.25,1,0],[0,1,0],[0,0.75,0],[0,0.5,0],[0,0.25,0]];rounded=1;absoluteArcSize=1;arcSize=2;html=1;strokeColor=none;gradientColor=none;shadow=0;dashed=0;fontSize=12;fontColor=#9E9E9E;align=left;verticalAlign=top;spacing=10;spacingTop=-4;whiteSpace=wrap;fillColor=#E0F2F1;" parent="1" vertex="1">
          <mxGeometry x="330" y="680" width="510" height="140" as="geometry" />
        </mxCell>
        <mxCell id="VxR14Vq80_6-qc9pXVwi-189" value="" style="strokeColor=#dddddd;shadow=1;strokeWidth=1;rounded=1;absoluteArcSize=1;arcSize=2;" parent="1" vertex="1">
          <mxGeometry x="430" y="708.68" width="160" height="70.5" as="geometry" />
        </mxCell>
        <mxCell id="VxR14Vq80_6-qc9pXVwi-190" value="&lt;font color=&quot;#000000&quot;&gt;NLP API&lt;/font&gt;&lt;br&gt;Open AI API" style="editableCssRules=.*;html=1;fontColor=#999999;shape=image;verticalLabelPosition=middle;labelBackgroundColor=#ffffff;verticalAlign=middle;labelPosition=right;align=left;spacingLeft=20;part=1;points=[];imageAspect=0;image=data:image/svg+xml,PHN2ZyB4bWxucz0iaHR0cDovL3d3dy53My5vcmcvMjAwMC9zdmciIHZpZXdCb3g9IjAgMCAyNCAyNCIgcm9sZT0iaW1nIj48cGF0aCBkPSJNMjIuMjgyIDkuODIxYTUuOTg1IDUuOTg1IDAgMCAwLS41MTYtNC45MSA2LjA0NiA2LjA0NiAwIDAgMC02LjUxLTIuOUE2LjA2NSA2LjA2NSAwIDAgMCA0Ljk4MSA0LjE4YTUuOTg1IDUuOTg1IDAgMCAwLTMuOTk4IDIuOSA2LjA0NiA2LjA0NiAwIDAgMCAuNzQzIDcuMDk3IDUuOTggNS45OCAwIDAgMCAuNTEgNC45MTEgNi4wNTEgNi4wNTEgMCAwIDAgNi41MTUgMi45QTUuOTg1IDUuOTg1IDAgMCAwIDEzLjI2IDI0YTYuMDU2IDYuMDU2IDAgMCAwIDUuNzcyLTQuMjA2IDUuOTkgNS45OSAwIDAgMCAzLjk5Ny0yLjkgNi4wNTYgNi4wNTYgMCAwIDAtLjc0Ny03LjA3M3pNMTMuMjYgMjIuNDNhNC40NzYgNC40NzYgMCAwIDEtMi44NzYtMS4wNGwuMTQxLS4wODEgNC43NzktMi43NThhLjc5NS43OTUgMCAwIDAgLjM5Mi0uNjgxdi02LjczN2wyLjAyIDEuMTY4YS4wNzEuMDcxIDAgMCAxIC4wMzguMDUydjUuNTgzYTQuNTA0IDQuNTA0IDAgMCAxLTQuNDk0IDQuNDk0ek0zLjYgMTguMzA0YTQuNDcgNC40NyAwIDAgMS0uNTM1LTMuMDE0bC4xNDIuMDg1IDQuNzgzIDIuNzU5YS43NzEuNzcxIDAgMCAwIC43OCAwbDUuODQzLTMuMzY5djIuMzMyYS4wOC4wOCAwIDAgMS0uMDMzLjA2Mkw5Ljc0IDE5Ljk1YTQuNSA0LjUgMCAwIDEtNi4xNC0xLjY0NnpNMi4zNCA3Ljg5NmE0LjQ4NSA0LjQ4NSAwIDAgMSAyLjM2Ni0xLjk3M1YxMS42YS43NjYuNzY2IDAgMCAwIC4zODguNjc2bDUuODE1IDMuMzU1LTIuMDIgMS4xNjhhLjA3Ni4wNzYgMCAwIDEtLjA3MSAwbC00LjgzLTIuNzg2QTQuNTA0IDQuNTA0IDAgMCAxIDIuMzQgNy44NzJ6bTE2LjU5NyAzLjg1NWwtNS44MzMtMy4zODdMMTUuMTE5IDcuMmEuMDc2LjA3NiAwIDAgMSAuMDcxIDBsNC44MyAyLjc5MWE0LjQ5NCA0LjQ5NCAwIDAgMS0uNjc2IDguMTA1di01LjY3OGEuNzkuNzkgMCAwIDAtLjQwNy0uNjY3em0yLjAxLTMuMDIzbC0uMTQxLS4wODUtNC43NzQtMi43ODJhLjc3Ni43NzYgMCAwIDAtLjc4NSAwTDkuNDA5IDkuMjNWNi44OTdhLjA2Ni4wNjYgMCAwIDEgLjAyOC0uMDYxbDQuODMtMi43ODdhNC41IDQuNSAwIDAgMSA2LjY4IDQuNjZ6bS0xMi42NCA0LjEzNWwtMi4wMi0xLjE2NGEuMDguMDggMCAwIDEtLjAzOC0uMDU3VjYuMDc1YTQuNSA0LjUgMCAwIDEgNy4zNzUtMy40NTNsLS4xNDIuMDhMOC43MDQgNS40NmEuNzk1Ljc5NSAwIDAgMC0uMzkzLjY4MXptMS4wOTctMi4zNjVsMi42MDItMS41IDIuNjA3IDEuNXYyLjk5OWwtMi41OTcgMS41LTIuNjA3LTEuNXoiLz48L3N2Zz4=;" parent="VxR14Vq80_6-qc9pXVwi-189" vertex="1">
          <mxGeometry width="44" height="44" relative="1" as="geometry">
            <mxPoint x="15" y="16" as="offset" />
          </mxGeometry>
        </mxCell>
        <mxCell id="VxR14Vq80_6-qc9pXVwi-184" value="" style="strokeColor=#dddddd;shadow=1;strokeWidth=1;rounded=1;absoluteArcSize=1;arcSize=2;" parent="1" vertex="1">
          <mxGeometry x="606" y="706.81" width="190" height="72.37" as="geometry" />
        </mxCell>
        <mxCell id="VxR14Vq80_6-qc9pXVwi-185" value="&lt;font color=&quot;#000000&quot;&gt;Recommend API&lt;/font&gt;&lt;br&gt;Algolia" style="editableCssRules=.*;html=1;fontColor=#999999;verticalLabelPosition=middle;labelBackgroundColor=#ffffff;verticalAlign=middle;labelPosition=right;align=left;spacingLeft=20;part=1;points=[];imageAspect=0;" parent="VxR14Vq80_6-qc9pXVwi-184" vertex="1">
          <mxGeometry width="44" height="44" relative="1" as="geometry">
            <mxPoint x="15" y="16" as="offset" />
          </mxGeometry>
        </mxCell>
        <mxCell id="VxR14Vq80_6-qc9pXVwi-192" value="" style="shape=image;html=1;verticalAlign=top;verticalLabelPosition=bottom;labelBackgroundColor=#ffffff;imageAspect=0;aspect=fixed;image=https://cdn2.iconfinder.com/data/icons/boxicons-logos/24/bxl-algolia-128.png" parent="VxR14Vq80_6-qc9pXVwi-184" vertex="1">
          <mxGeometry x="9" y="9.693820598006646" width="57.70365448504984" height="57.70365448504984" as="geometry" />
        </mxCell>
        <mxCell id="VxR14Vq80_6-qc9pXVwi-198" value="" style="edgeStyle=orthogonalEdgeStyle;fontSize=12;html=1;endArrow=blockThin;endFill=1;rounded=0;strokeWidth=2;endSize=4;startSize=4;dashed=0;strokeColor=#4284F3;entryX=0;entryY=0.5;entryDx=0;entryDy=0;" parent="1" source="128" target="VxR14Vq80_6-qc9pXVwi-196" edge="1">
          <mxGeometry width="100" relative="1" as="geometry">
            <mxPoint x="310" y="545" as="sourcePoint" />
            <mxPoint x="383" y="545" as="targetPoint" />
            <Array as="points">
              <mxPoint x="340" y="270" />
              <mxPoint x="340" y="342" />
            </Array>
          </mxGeometry>
        </mxCell>
        <mxCell id="VxR14Vq80_6-qc9pXVwi-199" value="" style="edgeStyle=orthogonalEdgeStyle;fontSize=12;html=1;endArrow=blockThin;endFill=1;rounded=0;strokeWidth=2;endSize=4;startSize=4;dashed=0;strokeColor=#4284F3;exitX=1;exitY=0.5;exitDx=0;exitDy=0;entryX=0;entryY=0.5;entryDx=0;entryDy=0;" parent="1" source="129" target="VxR14Vq80_6-qc9pXVwi-196" edge="1">
          <mxGeometry width="100" relative="1" as="geometry">
            <mxPoint x="310" y="545" as="sourcePoint" />
            <mxPoint x="383" y="545" as="targetPoint" />
          </mxGeometry>
        </mxCell>
        <mxCell id="ANfDOpSylxRKEM2ptjQJ-141" value="" style="edgeStyle=orthogonalEdgeStyle;fontSize=12;html=1;endArrow=blockThin;endFill=1;rounded=0;strokeWidth=2;endSize=4;startSize=4;dashed=0;strokeColor=#4284F3;exitX=0.5;exitY=1;exitDx=0;exitDy=0;entryX=0.5;entryY=0;entryDx=0;entryDy=0;entryPerimeter=0;" edge="1" parent="1" source="VxR14Vq80_6-qc9pXVwi-182" target="VxR14Vq80_6-qc9pXVwi-186">
          <mxGeometry width="100" relative="1" as="geometry">
            <mxPoint x="690" y="570" as="sourcePoint" />
            <mxPoint x="790" y="570" as="targetPoint" />
            <Array as="points">
              <mxPoint x="700" y="566" />
              <mxPoint x="700" y="630" />
              <mxPoint x="585" y="630" />
            </Array>
          </mxGeometry>
        </mxCell>
        <mxCell id="ANfDOpSylxRKEM2ptjQJ-144" value="External Data&#xa;Sources" style="sketch=0;points=[[0,0,0],[0.25,0,0],[0.5,0,0],[0.75,0,0],[1,0,0],[1,0.25,0],[1,0.5,0],[1,0.75,0],[1,1,0],[0.75,1,0],[0.5,1,0],[0.25,1,0],[0,1,0],[0,0.75,0],[0,0.5,0],[0,0.25,0]];rounded=1;absoluteArcSize=1;arcSize=2;html=1;strokeColor=none;gradientColor=none;shadow=0;dashed=0;fontSize=12;fontColor=#9E9E9E;align=left;verticalAlign=top;spacing=10;spacingTop=-4;whiteSpace=wrap;fillColor=#FFF8E1;" vertex="1" parent="1">
          <mxGeometry x="850" y="680" width="170" height="140" as="geometry" />
        </mxCell>
        <mxCell id="ANfDOpSylxRKEM2ptjQJ-145" value="Source Code" style="dashed=0;outlineConnect=0;html=1;align=center;labelPosition=center;verticalLabelPosition=bottom;verticalAlign=top;shape=mxgraph.weblogos.github" vertex="1" parent="1">
          <mxGeometry x="910" y="717" width="72" height="66" as="geometry" />
        </mxCell>
        <mxCell id="ANfDOpSylxRKEM2ptjQJ-146" value="" style="edgeStyle=orthogonalEdgeStyle;fontSize=12;html=1;endArrow=blockThin;endFill=1;rounded=0;strokeWidth=2;endSize=4;startSize=4;dashed=0;strokeColor=#9E9E9E;exitX=0.5;exitY=0;exitDx=0;exitDy=0;exitPerimeter=0;entryX=0.5;entryY=1;entryDx=0;entryDy=0;" edge="1" parent="1" source="ANfDOpSylxRKEM2ptjQJ-144" target="ANfDOpSylxRKEM2ptjQJ-142">
          <mxGeometry width="100" relative="1" as="geometry">
            <mxPoint x="700" y="520" as="sourcePoint" />
            <mxPoint x="800" y="520" as="targetPoint" />
            <Array as="points">
              <mxPoint x="935" y="640" />
              <mxPoint x="922" y="640" />
            </Array>
          </mxGeometry>
        </mxCell>
      </root>
    </mxGraphModel>
  </diagram>
</mxfile>
